<svg xmlns="http://www.w3.org/2000/svg" xmlns:xlink="http://www.w3.org/1999/xlink" id="Layer_1" x="0" y="0" enable-background="new -429 231 100 100" version="1.1" viewBox="-429 231 100 100" xml:space="preserve"><path fill="#033" d="M-366.1,261.9c11.2,0,21.4,0,32.6,0c3.2,0,3.2-5,0-5c-11.2,0-21.4,0-32.6,0	C-369.2,256.9-369.3,261.9-366.1,261.9z"/><path fill="#033" d="M-333.4,266c-7,0-13.1,0-20.1,0c-3.2,0-3.2,5,0,5c7,0,13.1,0,20.1,0C-330.3,271-330.2,266-333.4,266z"/><path fill="#033" d="M-345.1,289.1c3.2,0,3.2-5,0-5c-7,0-14,0-20.9,0c-3.2,0-3.2,5,0,5C-359.1,289.1-352.1,289.1-345.1,289.1z"/><path fill="#033" d="M-333.4,275.1c-11.2,0-21.4,0-32.6,0c-3.2,0-3.2,5,0,5c11.2,0,21.4,0,32.6,0	C-330.3,280-330.2,275.1-333.4,275.1z"/><path fill="#033" d="M-333.4,293.2c-11.2,0-21.4,0-32.6,0c-3.2,0-3.2,5,0,5c11.2,0,21.4,0,32.6,0	C-330.3,298.1-330.2,293.2-333.4,293.2z"/><path fill="#033" d="M-358,312.9c-3.2-1.4-6.3-3-9.4-4.7c-5-2.8-9.7-5.9-13.3-10.5c-1.9-2.4-2.3-4.9-1.4-7.7	c1.4-4.4,2.8-8.5,4.7-12.7c2.7-6.3,4.5-8.2,2.4-17.9c-3-13.7-21.2-16.1-30.5-5.9c-3.2,3.5-3.3,5.4-3.6,8.7c-0.3,3.1,1.4,4.5,0.4,5.8	c-1.2,1.5-3.2,4.8-3.2,6c0.1,1.9,3.7,1.1,2.8,3.3c-0.7,1.9-0.1,1.5,0.3,2.2c0.1,0.3-1.1,0.9-0.6,1.5c2,3-0.3,4,1,5.6	c1.8,2,5.7,0.3,6.7,1c1.2,1,1.6,5-0.1,8c-4.1,7.6-8,9-13.2,12c-4.1,2.4-8.3,3.6-11.3,5.3c0,0,0,0,0,0c0,0-0.1,0.1-0.1,0.1	c-0.5,0.4-0.6,0.9-0.4,1.4c0.1,0.5,0.5,0.9,1.1,0.9c0,0,0.1,0,0.1,0c0,0,0,0,0.1,0c21.7,0,45.3,0,67,0	C-357.5,315.4-356.8,313.5-358,312.9z"/></svg>