<svg xmlns="http://www.w3.org/2000/svg" xmlns:xlink="http://www.w3.org/1999/xlink" id="Layer_1" x="0" y="0" version="1.1" viewBox="0 0 32 32" xml:space="preserve" style="enable-background:new 0 0 32 32"><style type="text/css">.st0{fill:#fff}</style><metadata><?xpacket begin="﻿" id="W5M0MpCehiHzreSzNTczkc9d"?><?xpacket end="w"?></metadata><switch><g><linearGradient id="SVGID_1_" x1="-343.412" x2="-343.412" y1="-98.392" y2="-99.392" gradientUnits="userSpaceOnUse"><stop offset="0" style="stop-color:#656565"/><stop offset=".618" style="stop-color:#1b1b1b"/><stop offset=".629" style="stop-color:#545454"/><stop offset=".983" style="stop-color:#3e3e3e"/></linearGradient><g><path d="M32,15.9c0,0.6-0.2,1.1-0.6,1.5C31,17.8,30.5,18,29.9,18c-0.6,0-1.1-0.2-1.5-0.6L28,16.9V30 c0,0.5-0.2,1-0.6,1.4C27,31.8,26.6,32,26,32h-6v-9c0-0.3-0.1-0.5-0.3-0.7C19.5,22.1,19.3,22,19,22h-6c-0.3,0-0.5,0.1-0.7,0.3 C12.1,22.5,12,22.7,12,23v9H6c-0.6,0-1-0.2-1.4-0.6C4.2,31,4,30.5,4,30V16.9l-0.5,0.5C3.1,17.8,2.7,18,2.1,18 c-0.6,0-1.1-0.2-1.5-0.6C0.2,17,0,16.5,0,15.9c0-0.6,0.2-1.1,0.6-1.5L14.5,0.6C14.9,0.2,15.4,0,16,0c0.6,0,1.1,0.2,1.5,0.6 l13.9,13.9C31.8,14.9,32,15.3,32,15.9z" class="st0"/></g></g></switch></svg>