<?xml version="1.0" encoding="utf-8"?>
<!-- Generator: Adobe Illustrator 18.1.1, SVG Export Plug-In . SVG Version: 6.00 Build 0)  -->
<svg version="1.1" id="Layer_1" xmlns="http://www.w3.org/2000/svg" xmlns:xlink="http://www.w3.org/1999/xlink" x="0px" y="0px"
	 viewBox="0 235 960 90" enable-background="new 0 235 960 90" xml:space="preserve">
<metadata><?xpacket begin="﻿" id="W5M0MpCehiHzreSzNTczkc9d"?>
<x:xmpmeta xmlns:x="adobe:ns:meta/" x:xmptk="Adobe XMP Core 5.6-c014 79.156821, 2014/08/29-03:07:50        ">
   <rdf:RDF xmlns:rdf="http://www.w3.org/1999/02/22-rdf-syntax-ns#">
      <rdf:Description rdf:about=""
            xmlns:dc="http://purl.org/dc/elements/1.1/"
            xmlns:xmp="http://ns.adobe.com/xap/1.0/"
            xmlns:xmpGImg="http://ns.adobe.com/xap/1.0/g/img/"
            xmlns:xmpMM="http://ns.adobe.com/xap/1.0/mm/"
            xmlns:stRef="http://ns.adobe.com/xap/1.0/sType/ResourceRef#"
            xmlns:stEvt="http://ns.adobe.com/xap/1.0/sType/ResourceEvent#"
            xmlns:stMfs="http://ns.adobe.com/xap/1.0/sType/ManifestItem#"
            xmlns:illustrator="http://ns.adobe.com/illustrator/1.0/"
            xmlns:xmpTPg="http://ns.adobe.com/xap/1.0/t/pg/"
            xmlns:stDim="http://ns.adobe.com/xap/1.0/sType/Dimensions#"
            xmlns:stFnt="http://ns.adobe.com/xap/1.0/sType/Font#"
            xmlns:xmpG="http://ns.adobe.com/xap/1.0/g/"
            xmlns:pdf="http://ns.adobe.com/pdf/1.3/">
         <dc:format>image/svg+xml</dc:format>
         <dc:title>
            <rdf:Alt>
               <rdf:li xml:lang="x-default">draft_logo</rdf:li>
            </rdf:Alt>
         </dc:title>
         <xmp:CreatorTool>Adobe Illustrator CC 2014 (Macintosh)</xmp:CreatorTool>
         <xmp:CreateDate>2015-05-08T13:16:43-04:00</xmp:CreateDate>
         <xmp:ModifyDate>2015-05-08T13:16:43-04:00</xmp:ModifyDate>
         <xmp:MetadataDate>2015-05-08T13:16:43-04:00</xmp:MetadataDate>
         <xmp:Thumbnails>
            <rdf:Alt>
               <rdf:li rdf:parseType="Resource">
                  <xmpGImg:width>256</xmpGImg:width>
                  <xmpGImg:height>32</xmpGImg:height>
                  <xmpGImg:format>JPEG</xmpGImg:format>
                  <xmpGImg:image>/9j/4AAQSkZJRgABAgEASABIAAD/7QAsUGhvdG9zaG9wIDMuMAA4QklNA+0AAAAAABAASAAAAAEA&#xA;AQBIAAAAAQAB/+4ADkFkb2JlAGTAAAAAAf/bAIQABgQEBAUEBgUFBgkGBQYJCwgGBggLDAoKCwoK&#xA;DBAMDAwMDAwQDA4PEA8ODBMTFBQTExwbGxscHx8fHx8fHx8fHwEHBwcNDA0YEBAYGhURFRofHx8f&#xA;Hx8fHx8fHx8fHx8fHx8fHx8fHx8fHx8fHx8fHx8fHx8fHx8fHx8fHx8fHx8f/8AAEQgAIAEAAwER&#xA;AAIRAQMRAf/EAaIAAAAHAQEBAQEAAAAAAAAAAAQFAwIGAQAHCAkKCwEAAgIDAQEBAQEAAAAAAAAA&#xA;AQACAwQFBgcICQoLEAACAQMDAgQCBgcDBAIGAnMBAgMRBAAFIRIxQVEGE2EicYEUMpGhBxWxQiPB&#xA;UtHhMxZi8CRygvElQzRTkqKyY3PCNUQnk6OzNhdUZHTD0uIIJoMJChgZhJRFRqS0VtNVKBry4/PE&#xA;1OT0ZXWFlaW1xdXl9WZ2hpamtsbW5vY3R1dnd4eXp7fH1+f3OEhYaHiImKi4yNjo+Ck5SVlpeYmZ&#xA;qbnJ2en5KjpKWmp6ipqqusra6voRAAICAQIDBQUEBQYECAMDbQEAAhEDBCESMUEFURNhIgZxgZEy&#xA;obHwFMHR4SNCFVJicvEzJDRDghaSUyWiY7LCB3PSNeJEgxdUkwgJChgZJjZFGidkdFU38qOzwygp&#xA;0+PzhJSktMTU5PRldYWVpbXF1eX1RlZmdoaWprbG1ub2R1dnd4eXp7fH1+f3OEhYaHiImKi4yNjo&#xA;+DlJWWl5iZmpucnZ6fkqOkpaanqKmqq6ytrq+v/aAAwDAQACEQMRAD8A7Gf+ch/ydBI/xANvC0vS&#xA;PvEOR4g435vH3/ei4fzd0O+s11DSIJL3THLBL1626MEJVmCyLzpyFASoHWtKZp9f2v4BI4LqutXf&#xA;wPcR7x7rz9PjGUAg7b/YiW/MaNp5YrbT3ufRlZHMb1/dlwsMn2afveQKgkde+CXbG5EI8VX16Dho&#xA;jb+K9mQwd5/G/wByGufzx/LCz1J9Lv8AWVs9Shcw3NtJDOfSlU0eN5VjaKqtsfjpm4jOwLFHucGW&#xA;pxg1bOYpYpokmhdZIpFDxyIQysrCoZSNiCMm3LsVdirsVaZSy0DFfcUr+NcVUvq7/wC/5P8AhP8A&#xA;mnFXlXm/88bXy75gvdOijN5b2fGFpOBkY3IDNIn7sqVC0C7r1Db7ZGMhZvkg30WX356Qz+Wpr7RJ&#xA;rR9UBi9K1u4bpPhlLFXMfwO6uIiqlTTky1PE7yJHRBtNPys86efvNlzetrdna2Gn2ahBLbxSxu8z&#xA;UIVTLLKKKu7bdxhkCDTIEEW9E+rv/v8Ak/4T/mnArxTz7+efmXSPMuo6X5Xs7fUrTSY6Xs1wkksp&#xA;mVqSCJIpISwQnjQAmoY9BmNPMRKg5OHBxC96VNB/5yEHmIxafoXoXeqy27SPIbaYJBKKFBLbrM0r&#xA;RyD7Tws4i6yUAOUS1GSFmQHw+f69qHl3L4UCaBTv8ofzD86eeGvLnUbW0ttJtSIlubWORWeZhz4j&#xA;1JJRRVpy2/aGZOHKZ7sM2MR2emfV3/3/ACf8J/zTl7S8f89/nD5q0jV7qDy5bWV/p9qHiae55ySe&#xA;vCaTHjE8Q4Kfh8ag4mEq4hybtPHHOXDIkS6MY1D/AJyM892+nWFxFZaW0tz9beQ+hdmIRW/oBWDm&#xA;VV5cpmqgZjTiTxqKws8Ntw048Uw32DP/AMovzE82+ebeS+v7W3tNNiAh+sW6SKZbkjkRH6jyfAiD&#xA;eo/aG/XCLcacaekfV3/3/J/wn/NOSYPIPMn516lpP5gy6FFNpsGiRwUjvtSF0GmulkCyRxyWySLs&#xA;KgKU3pXl+zlWSRA2PD8OL7AQ2Y4X0v7PtSnWfz/1mK2Euk6t5ZvHt7kpexR/XJZGim9NLaO2jZrd&#xA;5puYlMnFSqrx77MyycOO/qkPLh/X97IY7lXIe+/1PWPKer61qujWcuqJHBqBVVvxboyRrMY+bJGJ&#xA;Gkainbc44snGL82OWHCaT36u/wDv+T/hP+acta3z153/AOcl9d0vzNqlh5ctbK90bTriOzbUrpZp&#xA;SZwsnqLxgZAQ8i8Yz/kk7hvhgSmNHmwu6/5y/wDzNhmlQaXo1IzSvo3R/EXOHiTT2H8h/wAyPzD/&#xA;ADEs77V9ctbCw0W3cW9o9nFMks09OUlDLNMvBAVH2dyeuxwhiXrH1d/9/wAn/Cf804Vd9Xf/AH/J&#xA;/wAJ/wA04qpGV4r2GAuzrMkjEtTbgV8AP5sCHlfnHyX5Og/Nf8u7KDQtOis7z9M/XLZLSBYpvSs0&#xA;aP1ECcX4NuvIbHImItxckR4kNu/7ln5izXEXmVfKegKmh2Om6DLrE8+nwolxIq3JigtYiiFo4xPS&#xA;Rwm7bgUO+UamPolwj1cJ/sbDL94I3Q5/ag31OHStT8s655f1abU9J1nWrbSNX0nUAkqRzTk+nLBV&#xA;BJC0Lo5oWrWg2pmq7Gx4BAwhDgmOHjBG99D186Lk62eQTjLi4oyO3x+5KdJuPylisvzG/wAZJpsl&#xA;9/iHV/SjmEJ1Awnjw+rcgZh8fLgV2Db5u6HV10JQAnxV9Rek/kZFqEX5T+XVvwwnMDsgfr6LTO0H&#xA;Xt6JSntko8nI0wIxi2d5JvdirsVdirEfzR86L5T8qXF5Cy/pO5/0bTEND+/kBo5B6rGKuflTvjwk&#xA;8kWLF9XzNq+inRPKd/c6nqlrPd35ga3kP78m4MpFEdCwf92zMxjryUnqVFYyxkQu0Y8oMhw7j72S&#xA;/l+1trF3FcRXsr3ksKW7WKwrDFKyM8CrG1ZGaOsfP+84A7faPHLMEQBac8ze76W0fTk07TobUULo&#xA;o9VwKBnP2m+/pgkbNrEUGO/mh5un8t+WJG09TLruot9T0a3Qcna4kFAyrRq8B8XTc0HfKM2XgjfV&#xA;sxw4jT5S8rTeatC886StwYbO+t56TQ6u72SIsitVrl5DGUJR+Q2PKoHFieJxQLkCRuA7KGQxgYA2&#xA;D8Xoq/l9ea5atc6TftaXOomKKey1SKCb69G8i3KyxXVhIsBhZXV+CxtyaqyVUrxljwRMdtt/x+O/&#xA;cFx9RP1C9/c988m+VrHyt5asdDszyS0jpJNShllb4pJGG/2mJNO3TMyEBEUHElIk2Ui/N7z7F5N8&#xA;oTXivx1C6It7JVpzHIj1JUB2JiQlhXYtxB64ylSBEnk8B/MTy15W0OPSxPqi3VnJF+6k9LnPzVSw&#xA;IYScWUlqv+4dv5ak7GcQKFtunyyiTUfLr+zdith5c1DWbfRrS0ci/TUZ7PTdDLM0VrbzLwo5VIoW&#xA;kla2MskkQ4HnzO7Uyrij9Pffeevf8eXy2DkTxzxnjIo/AX8Of4+L7E8q+WbLyz5f0zRLID0bNeLO&#xA;BTm5VjI5/wBZyT7dMtApw5Ss2qeZL26hs0tLBguoX7ejbt3jU/3kv/PNNx/lUGJLAl84fmQsvke4&#xA;g0y4iddVvpFvC+nx/XIvQCyR8pGf6vK0o9GvHgVoBVqZXPScQ4ibHL4udj1ojEQEaN2S8t0lofOv&#xA;mzRPLTS3z2l1KsEQhBe4CM3Ni3qu4XkoPNuRVB8VCBxMRilEHhri8+X2NebMJe5932lpHZ28FunR&#xA;DufFiCWP0nLIR4QA48jZt57+f35j/wCCvI0xtJfT13V+dnpQX7asV/eTAf8AFSnr/MVyRYkvjhLm&#xA;60rQYkvY0uo76KVtJuoWjV4ixMdwJGMXrsCKhY/VVFYl+JYtlIqRrlTfvAdCCo6J5Y1XzT5gtNL0&#xA;aBTNqE6W3BCWCEgcpWqW+ACrsRsN+mwy2mm36AeT/K2m+VfLOneXtNWlpp0KxKx2Lt1kkb/Kkclj&#xA;7nJKnGKuxVBXH/HXs/8AjFP+uPAjqwbzx/5OP8s/lrh/6ckwHmGjIP3kPj9y380rC2ttY0nzHp10&#xA;+n+abRJIrS6HD6tLbl19SC7DK54N6jcCqkq2/YZg9oasYYgb8Urqhdee/dYciODikJDmPt8kn0bS&#xA;9O1XzrYaz5iZ11GK69aPTIYyllHfGIJHNK8wjklcxqhhpGlPtb7k63QaiMcpMzKWSfDZ4eEAUeDa&#xA;zz3+bbmw8VHkI3Q8+qG/Lf8ALnyR5h1nznrGt6TDqGo2nmvU4YZJi7KI1aORVaLl6bfE5PxKeub8&#xA;AF12HFEmRI34i9oVVVQqgKqigA2AAybmN4q7FXYq7FXzT+ZfmdfMfnySWe4WLQNJQ2tgGJpI7Gss&#xA;3h8ZFB/kqMsx5OHyYCBkbq2P38Wh32jW0epSUiEyzWs7ywegHjed4+STGpDM/wAaowL1Fdg2RNED&#xA;i7/1tUuGBuPpv9O71b8mPJZjvZdclEZsrYCDTkSFYQ0yhkabgpYL6cT+kpB+KrFt8BPTojHjlxcU&#xA;jf4/AewEgCp6YHJfKH5kfmlPrn5hPc2DxS6XpLfV9PhlBeG4jBpcmRARyjuN0YVHKOgzDyTs33OR&#xA;i2B82K2OsrYeao9bFu95cyo9wtlZyTLJNIYiGuDMC8iOGrNI4anOpBA2GPLJKew2LkcMYx3Oz3X8&#xA;iPKmomS980ahJdLZXLv+h9MvZnuWhaV2kuLkPKXZXmeRuYDGrcmJq1FzsMJRHqNycLJMSO3J7ISA&#xA;CSaAbknLmD5G/NbzcfPXnJJ9PveNjZF4dKVVJDRLUNNUkL+9kQ/NaDtmPOQPNzNNApRoMVmkdxaa&#xA;tDC1zBFeFLqKNwzFLZ2hQcAOKo4LyHkeRCgqKfFhavLkgRV0THu/nUfPy6d+/TZ9nx5kc/0c3qn/&#xA;ADjX5QvJhN5v1At9WQPZ6FbsKBVLf6RN0qSW+AEn+bNhjh1cDtLJxZNnvhIAJJoBuSctde8muPzB&#xA;stI/MK5u9euGNnqNvBFoFtClfRiRpgXlLlBzupK+mEqTxCmnw8mBs0ituLomH5n+SW1qePXorNry&#xA;XT4YS1sYY5XZEnMxa3TkpkljAPKKUFZFPBSOT8rR9JiTzRdGwkX5EflNougzSeZV0mTT70xyWcKX&#xA;LPI5KzOJLhPWjhkRZEVAgaKNqcuQNQcqjYG/M/iuZ+87sibL2KZ0jCyOwREJZ2Y0AAUkkk4q+M/z&#xA;O125/MPzrf6561v+hdMja20nT7xLzhJGiyEMzWwXjJMaypVxtTlsu+PLMAab8OnMxbEdR8pC98qX&#xA;WuxXE11qFnPNDeJHbwOf3LhfWnmju5T/AHTcuSxGprUkUdj444gO/wDHcx8I1fc9z/5xJ/Lua20u&#xA;4876mpM17ytdHVv2bdG4yy7j9tl4r7A9jl7S+i8UuxV2KoK4/wCOvZ/8Yp/1x4EdUbhSgdS0LSdS&#xA;Vhe2yzc1WOQ7qWRW5qjMpBZQ2/E7ZVkwQn9Qv+2/vSCQhLbyd5dtr5b6K1b62nGkrzTSE8FCpyDu&#xA;wbgFHGv2e2UY9BhiQRHccrs187ZHJI9U5zMYOxV2KuxV2KoLWdOfUtLutPW4ktBdRtC1xDxEqq4o&#xA;xQsGAanemEGigiwwW5/I3y/cWA09tZ1dbIJwa2E8Bib4ufIo8DLyqOoGDL6zfL3M8UuAVzS2H/nG&#xA;nyJHbT2pvtUltZpPWEEs8LJHJ6bRckHo7fC/4Dwyvw9qssc4GX6gz+x03VtNsoLCwNqlpbII4gyO&#xA;WoO7EOoqep265PdjRWappWuarpt1plzdRW1vexPBLPaqyzKkg4t6bO0ihqHrxwEEimUSQbYDaf8A&#xA;OMv5f20qyLdakzKKLylgIH0ehlQ08fNzjr5V9Mfl+1E23/OOnkK11mDVraW9jngWVfQEkPoyetG0&#xA;bGRRDU/C56EZdEAcnDnLiNlnEVr5gtIktrL6mlrCoSJWSQtxHiQ43x3a90Pquk+YdY0u70q8uYba&#xA;1vYmgmmtFZZgjijcGdpFBK1H2cBBIpIJBefW3/OLXkGEOG1LVpQ6laPLa/CDXZeNspHXInGHKGql&#xA;RFDdff8A/OL/AJDvblbiXUtWDoqIqLNbKoEbch0t67998RiA5dUYtTKHJ6Bp+l61pVhb6bpi2UOn&#xA;2caw20ZSQkIgoKkOKnxPfJUXHlKUjZVbiz8x3sD2t1LbR28w4ytCjh+BPxAFnYfENumHdjRKQat+&#xA;T/l7U9fXXpb6+i1GJYVtGRrd0tzbMHiaFJoZVUq45UNRUnbfBKNm22M6FMr1jS5NR0i406K+udPe&#xA;4j9P67aMi3CDuY3dJFUkbcuNRWq0NCJ3u10h/T8zR/BAbMRLsgZJSae59TI7o3S7zD5d13zHod7o&#xA;WoXiWdlqEZgubiwDR3AjYjmqNIZVHNaoar0JwbruwjSv+cYfI2lo31TVdZSdkMK3BuIC6wOkkcsK&#xA;j0OHGVZiGqtf5SN6wOIE25EM0oikRZf845eU9OtFg07VdTtmRZEEy/UDKyyy+qytI1ozU5e/TIHT&#xA;RJssfFldhnNlp+uabZW+nacljBYWcSQWsPCU8Io1Cov952Ay/dp3V6ebT+3Yj39OU/8AMwY7ru3w&#xA;81/7+sf+RMv/AFVx3Xd3DzX/AL+sf+RMv/VXHdd1a0ttTa5Se/eFmiVlj9BGTZ6Vryd/5cUh/9k=</xmpGImg:image>
               </rdf:li>
            </rdf:Alt>
         </xmp:Thumbnails>
         <xmpMM:RenditionClass>proof:pdf</xmpMM:RenditionClass>
         <xmpMM:OriginalDocumentID>uuid:65E6390686CF11DBA6E2D887CEACB407</xmpMM:OriginalDocumentID>
         <xmpMM:DocumentID>xmp.did:195ef81a-c1ea-4463-9017-324620d16574</xmpMM:DocumentID>
         <xmpMM:InstanceID>xmp.iid:195ef81a-c1ea-4463-9017-324620d16574</xmpMM:InstanceID>
         <xmpMM:DerivedFrom rdf:parseType="Resource">
            <stRef:instanceID>xmp.iid:3427c1ca-2c05-47ac-ac23-eec3321b6632</stRef:instanceID>
            <stRef:documentID>xmp.did:3427c1ca-2c05-47ac-ac23-eec3321b6632</stRef:documentID>
            <stRef:originalDocumentID>uuid:65E6390686CF11DBA6E2D887CEACB407</stRef:originalDocumentID>
            <stRef:renditionClass>proof:pdf</stRef:renditionClass>
         </xmpMM:DerivedFrom>
         <xmpMM:History>
            <rdf:Seq>
               <rdf:li rdf:parseType="Resource">
                  <stEvt:action>saved</stEvt:action>
                  <stEvt:instanceID>xmp.iid:3576c26f-78d7-4fcb-abc1-716d54b13fc6</stEvt:instanceID>
                  <stEvt:when>2015-04-01T12:29:35-04:00</stEvt:when>
                  <stEvt:softwareAgent>Adobe Illustrator CC 2014 (Macintosh)</stEvt:softwareAgent>
                  <stEvt:changed>/</stEvt:changed>
               </rdf:li>
               <rdf:li rdf:parseType="Resource">
                  <stEvt:action>saved</stEvt:action>
                  <stEvt:instanceID>xmp.iid:195ef81a-c1ea-4463-9017-324620d16574</stEvt:instanceID>
                  <stEvt:when>2015-05-08T13:16:43-04:00</stEvt:when>
                  <stEvt:softwareAgent>Adobe Illustrator CC 2014 (Macintosh)</stEvt:softwareAgent>
                  <stEvt:changed>/</stEvt:changed>
               </rdf:li>
            </rdf:Seq>
         </xmpMM:History>
         <xmpMM:Manifest>
            <rdf:Seq>
               <rdf:li rdf:parseType="Resource">
                  <stMfs:linkForm>EmbedByReference</stMfs:linkForm>
                  <stMfs:reference rdf:parseType="Resource">
                     <stRef:filePath>/Users/aaronrobertwilson/Dropbox/Documents/Full Sail U/DWS2/WK1/Assignments/Project One/Wk1_wilson_aaron/img/C439AC1F664BC235.png</stRef:filePath>
                     <stRef:documentID>0</stRef:documentID>
                     <stRef:instanceID>0</stRef:instanceID>
                  </stMfs:reference>
               </rdf:li>
               <rdf:li rdf:parseType="Resource">
                  <stMfs:linkForm>EmbedByReference</stMfs:linkForm>
                  <stMfs:reference rdf:parseType="Resource">
                     <stRef:filePath>/Users/aaronrobertwilson/Dropbox/Documents/Full Sail U/DWS2/WK1/Assignments/Project One/Wk1_wilson_aaron/img/bp5.jpg</stRef:filePath>
                     <stRef:documentID>xmp.did:7E4A7C61D95711E49EC9929BB4036BF0</stRef:documentID>
                     <stRef:instanceID>xmp.iid:7E4A7C60D95711E49EC9929BB4036BF0</stRef:instanceID>
                  </stMfs:reference>
               </rdf:li>
               <rdf:li rdf:parseType="Resource">
                  <stMfs:linkForm>EmbedByReference</stMfs:linkForm>
                  <stMfs:reference rdf:parseType="Resource">
                     <stRef:filePath>/Users/aaronrobertwilson/Dropbox/Documents/Full Sail U/DWS2/WK1/Assignments/Project One/Wk1_wilson_aaron/img/kw1.jpg</stRef:filePath>
                     <stRef:documentID>xmp.did:A2A12C69D3FA11E4984DD0533FF402A9</stRef:documentID>
                     <stRef:instanceID>xmp.iid:ec875d94-e65f-42cd-9c7f-8b149660c927</stRef:instanceID>
                  </stMfs:reference>
               </rdf:li>
               <rdf:li rdf:parseType="Resource">
                  <stMfs:linkForm>EmbedByReference</stMfs:linkForm>
                  <stMfs:reference rdf:parseType="Resource">
                     <stRef:filePath>/Users/aaronrobertwilson/Dropbox/Documents/Full Sail U/DWS2/WK1/Assignments/Project One/Wk1_wilson_aaron/img/lw4.jpg</stRef:filePath>
                     <stRef:documentID>xmp.did:2087C276D3FC11E4984DD0533FF402A9</stRef:documentID>
                     <stRef:instanceID>xmp.iid:6fa49295-ff3a-4a41-831a-6c8c40e11504</stRef:instanceID>
                  </stMfs:reference>
               </rdf:li>
               <rdf:li rdf:parseType="Resource">
                  <stMfs:linkForm>EmbedByReference</stMfs:linkForm>
                  <stMfs:reference rdf:parseType="Resource">
                     <stRef:filePath>/Users/aaronrobertwilson/Dropbox/Documents/Full Sail U/DWS2/WK1/Assignments/Project One/Wk1_wilson_aaron/img/jw5.jpg</stRef:filePath>
                     <stRef:documentID>xmp.did:A2A12C65D3FA11E4984DD0533FF402A9</stRef:documentID>
                     <stRef:instanceID>xmp.iid:356b3b32-d246-4695-8c37-0d01c1f478a9</stRef:instanceID>
                  </stMfs:reference>
               </rdf:li>
               <rdf:li rdf:parseType="Resource">
                  <stMfs:linkForm>EmbedByReference</stMfs:linkForm>
                  <stMfs:reference rdf:parseType="Resource">
                     <stRef:filePath>/Users/aaronrobertwilson/Dropbox/Documents/Full Sail U/DWS2/WK1/Assignments/Project One/Wk1_wilson_aaron/img/mm3.jpg</stRef:filePath>
                     <stRef:documentID>xmp.did:15DB66DCD3FD11E4984DD0533FF402A9</stRef:documentID>
                     <stRef:instanceID>xmp.iid:866c699e-2bbe-4d88-b066-f9fea0079c46</stRef:instanceID>
                  </stMfs:reference>
               </rdf:li>
            </rdf:Seq>
         </xmpMM:Manifest>
         <xmpMM:Ingredients>
            <rdf:Bag>
               <rdf:li rdf:parseType="Resource">
                  <stRef:filePath>/Users/aaronrobertwilson/Dropbox/Documents/Full Sail U/DWS2/WK1/Assignments/Project One/Wk1_wilson_aaron/img/C439AC1F664BC235.png</stRef:filePath>
                  <stRef:documentID>0</stRef:documentID>
                  <stRef:instanceID>0</stRef:instanceID>
               </rdf:li>
               <rdf:li rdf:parseType="Resource">
                  <stRef:filePath>/Users/aaronrobertwilson/Dropbox/Documents/Full Sail U/DWS2/WK1/Assignments/Project One/Wk1_wilson_aaron/img/bp5.jpg</stRef:filePath>
                  <stRef:documentID>xmp.did:7E4A7C61D95711E49EC9929BB4036BF0</stRef:documentID>
                  <stRef:instanceID>xmp.iid:7E4A7C60D95711E49EC9929BB4036BF0</stRef:instanceID>
               </rdf:li>
               <rdf:li rdf:parseType="Resource">
                  <stRef:filePath>/Users/aaronrobertwilson/Dropbox/Documents/Full Sail U/DWS2/WK1/Assignments/Project One/Wk1_wilson_aaron/img/kw1.jpg</stRef:filePath>
                  <stRef:documentID>xmp.did:A2A12C69D3FA11E4984DD0533FF402A9</stRef:documentID>
                  <stRef:instanceID>xmp.iid:ec875d94-e65f-42cd-9c7f-8b149660c927</stRef:instanceID>
               </rdf:li>
               <rdf:li rdf:parseType="Resource">
                  <stRef:filePath>/Users/aaronrobertwilson/Dropbox/Documents/Full Sail U/DWS2/WK1/Assignments/Project One/Wk1_wilson_aaron/img/lw4.jpg</stRef:filePath>
                  <stRef:documentID>xmp.did:2087C276D3FC11E4984DD0533FF402A9</stRef:documentID>
                  <stRef:instanceID>xmp.iid:6fa49295-ff3a-4a41-831a-6c8c40e11504</stRef:instanceID>
               </rdf:li>
               <rdf:li rdf:parseType="Resource">
                  <stRef:filePath>/Users/aaronrobertwilson/Dropbox/Documents/Full Sail U/DWS2/WK1/Assignments/Project One/Wk1_wilson_aaron/img/jw5.jpg</stRef:filePath>
                  <stRef:documentID>xmp.did:A2A12C65D3FA11E4984DD0533FF402A9</stRef:documentID>
                  <stRef:instanceID>xmp.iid:356b3b32-d246-4695-8c37-0d01c1f478a9</stRef:instanceID>
               </rdf:li>
               <rdf:li rdf:parseType="Resource">
                  <stRef:filePath>/Users/aaronrobertwilson/Dropbox/Documents/Full Sail U/DWS2/WK1/Assignments/Project One/Wk1_wilson_aaron/img/mm3.jpg</stRef:filePath>
                  <stRef:documentID>xmp.did:15DB66DCD3FD11E4984DD0533FF402A9</stRef:documentID>
                  <stRef:instanceID>xmp.iid:866c699e-2bbe-4d88-b066-f9fea0079c46</stRef:instanceID>
               </rdf:li>
            </rdf:Bag>
         </xmpMM:Ingredients>
         <illustrator:StartupProfile>Web</illustrator:StartupProfile>
         <xmpTPg:NPages>1</xmpTPg:NPages>
         <xmpTPg:HasVisibleTransparency>True</xmpTPg:HasVisibleTransparency>
         <xmpTPg:HasVisibleOverprint>False</xmpTPg:HasVisibleOverprint>
         <xmpTPg:MaxPageSize rdf:parseType="Resource">
            <stDim:w>960.000000</stDim:w>
            <stDim:h>90.000000</stDim:h>
            <stDim:unit>Pixels</stDim:unit>
         </xmpTPg:MaxPageSize>
         <xmpTPg:Fonts>
            <rdf:Bag>
               <rdf:li rdf:parseType="Resource">
                  <stFnt:fontName>MyriadPro-Regular</stFnt:fontName>
                  <stFnt:fontFamily>Myriad Pro</stFnt:fontFamily>
                  <stFnt:fontFace>Regular</stFnt:fontFace>
                  <stFnt:fontType>Open Type</stFnt:fontType>
                  <stFnt:versionString>Version 2.106;PS 2.000;hotconv 1.0.70;makeotf.lib2.5.58329</stFnt:versionString>
                  <stFnt:composite>False</stFnt:composite>
                  <stFnt:fontFileName>MyriadPro-Regular.otf</stFnt:fontFileName>
               </rdf:li>
            </rdf:Bag>
         </xmpTPg:Fonts>
         <xmpTPg:PlateNames>
            <rdf:Seq>
               <rdf:li>Cyan</rdf:li>
               <rdf:li>Magenta</rdf:li>
               <rdf:li>Yellow</rdf:li>
               <rdf:li>Black</rdf:li>
            </rdf:Seq>
         </xmpTPg:PlateNames>
         <xmpTPg:SwatchGroups>
            <rdf:Seq>
               <rdf:li rdf:parseType="Resource">
                  <xmpG:groupName>Default Swatch Group</xmpG:groupName>
                  <xmpG:groupType>0</xmpG:groupType>
               </rdf:li>
            </rdf:Seq>
         </xmpTPg:SwatchGroups>
         <pdf:Producer>Adobe PDF library 11.00</pdf:Producer>
      </rdf:Description>
   </rdf:RDF>
</x:xmpmeta>
                                                                                                    
                                                                                                    
                                                                                                    
                                                                                                    
                                                                                                    
                                                                                                    
                                                                                                    
                                                                                                    
                                                                                                    
                                                                                                    
                                                                                                    
                                                                                                    
                                                                                                    
                                                                                                    
                                                                                                    
                                                                                                    
                                                                                                    
                                                                                                    
                                                                                                    
                                                                                                    
                           
<?xpacket end="w"?>
	</metadata>
<g>
	<g id="image_1_">
		
			<image overflow="visible" enable-background="new    " width="620" height="420" xlink:href="../img/mm3.jpg"  transform="matrix(0.2143 0 0 0.2143 271.1799 234.1768)">
		</image>
		
			<image overflow="visible" enable-background="new    " width="620" height="420" xlink:href="../img/jw5.jpg"  transform="matrix(0.2177 0 0 0.2143 388.9162 234.1768)">
		</image>
		
			<image overflow="visible" enable-background="new    " width="620" height="420" xlink:href="../img/lw4.jpg"  transform="matrix(0.2129 0 0 0.2143 507.2758 234.1768)">
		</image>
		
			<image overflow="visible" enable-background="new    " width="620" height="420" xlink:href="../img/kw1.jpg"  transform="matrix(0.2129 0 0 0.2143 626.592 234.5)">
		</image>
		
			<image overflow="visible" enable-background="new    " width="620" height="420" xlink:href="../img/bp5.jpg"  transform="matrix(0.2129 0 0 0.2143 746.4339 234.5)">
		</image>
	</g>
	<g id="effect_1_">
		<g>
			
				<image overflow="visible" opacity="0.68" enable-background="new    " width="704" height="115" xlink:href="../img/C439AC1F664BC235.png"  transform="matrix(1 0 0 1 260.9339 223.5)">
			</image>
			<g>
				<g>
					<g>
						<path fill="#FFFFFF" d="M270.6,324.5h-0.3v-90h50.3L270.6,324.5z M389.3,234.5l-50,90h51.3"/>
						<path fill="#FFFFFF" d="M389.6,324.5h-0.3v-90h50.3L389.6,324.5z M508.3,234.5l-50,90h51.3 M508.3,324.5v-90"/>
						<path fill="#FFFFFF" d="M508.6,324.5h-0.3v-90h50.3L508.6,324.5z M627.3,234.5l-50,90h51.3 M627.3,324.5v-90"/>
						<path fill="#FFFFFF" d="M627.6,324.5h-0.3v-90h50.3L627.6,324.5z M746.3,234.5l-50,90h51.3 M746.3,324.5v-90"/>
						<path fill="#FFFFFF" d="M746.6,324.5h-0.3v-90h50.3L746.6,324.5z M865.3,234.5l-50,90h51.3 M865.3,324.5v-90"/>
					</g>
					<polygon fill="#FFFFFF" points="949.1,324.2 859.4,324.2 865.5,234.5 949.1,234.5 					"/>
				</g>
			</g>
		</g>
		<rect x="243" y="234.5" fill="#FFFFFF" width="27.3" height="89.7"/>
		<g>
			<g id="logo_2_">
				<g>
					<g>
						
							<text transform="matrix(0.8202 0 0 1 9.1404 312.2017)" fill="#003300" font-family="'MyriadPro-Regular'" font-size="91.2543">T</text>
						
							<text transform="matrix(1.2303 0 0 1 46.3376 299.5273)" fill="#003300" font-family="'MyriadPro-Regular'" font-size="60.8362">O</text>
						
							<text transform="matrix(0.8202 0 0 1 97.906 312.2017)" fill="#003300" font-family="'MyriadPro-Regular'" font-size="91.2543">P</text>
						
							<text transform="matrix(0.7141 0 0 1 61.6911 300.3042)" fill="#003300" font-family="'MyriadPro-Regular'" font-size="63.8979">5</text>
						<path fill="#003300" d="M51.4,256.1c-0.1-0.2-0.1-0.2-0.2-0.4c0.1-0.2,0.2-0.6,0.3-0.7c-0.1-0.4-0.3-1-0.7-1.7
							c-0.6-1.2-0.9-2.1-1.1-2.6c-0.7-1.4-1-2.2-1.7-3.7c-0.2-0.6-0.6-1.2-1-2c-0.2-0.4-0.4-0.8-0.6-0.9c-0.2-0.1-0.1-0.1-0.2-0.1
							c-0.2,0-0.6,0-1.1,0.2c0-0.1,0-0.2-0.2-0.4c0.8-0.3,1.5-0.5,2.2-0.6c0.4-0.1,1.1-0.3,1.9-0.6c0.8-0.2,1.4-0.4,1.9-0.6
							c1.3-0.3,2.5-0.4,3.3-0.2c0.9,0.3,1.8,0.7,2.5,1.6c0.8,0.8,1.3,1.9,1.7,3.2c0.2,1,0.3,1.9,0.3,2.7c0,0.9-0.1,1.7-0.3,2.3
							c-0.2,0.7-0.4,1.2-0.8,1.7c-0.3,0.4-0.7,0.8-1,1.1c-0.4,0.3-1,0.6-1.8,0.7c-0.2,0.1-0.7,0.1-1.1,0.2c-0.6,0.1-1,0.2-1.1,0.3
							C52.5,255.7,52.1,255.9,51.4,256.1z M53,254.6c0.6,0,1-0.1,1.6-0.2c0.6-0.1,1-0.3,1.3-0.6c0.3-0.2,0.7-0.6,0.9-0.8
							c0.2-0.3,0.4-0.8,0.6-1.2c0.1-0.6,0.2-1.2,0.1-2s-0.2-1.6-0.4-2.3c-0.3-1.1-0.8-2.1-1.3-2.9c-0.5-0.8-1.3-1.2-2.1-1.6
							c-0.9-0.2-1.9-0.2-3.1,0.1c-0.9,0.2-1.5,0.4-2.1,0.8c0.1,0.3,0.3,0.8,0.7,1.6c0.2,0.6,0.3,0.8,0.6,1.3
							c0.6,1.4,0.9,2.1,1.6,3.6c0.4,1.1,0.7,1.7,1.2,2.8C52.4,253.3,52.6,253.9,53,254.6z"/>
						<path fill="#003300" d="M58.2,241.1c-0.1-0.2-0.1-0.4-0.1-0.6c0.2,0,0.6-0.1,1-0.1c0.6-0.2,0.9-0.2,1.6-0.3
							c0.3,0,0.8-0.1,1.4-0.2c0.9-0.1,1.3-0.2,1.4-0.2c1.2-0.2,1.9-0.2,2.4,0c0.6,0.2,0.9,0.6,1.2,1c0.3,0.4,0.4,1,0.6,1.6
							c0,0.6,0,1.1-0.2,1.7s-0.4,1-0.9,1.4c-0.4,0.3-0.9,0.7-1.6,1c0.1,0.2,0.6,0.7,1.1,1.4c0.9,1.2,1.3,1.8,2.1,3
							c0.6,0.9,0.9,1.3,1,1.4l0.1,0.1c0.1,0,0.2,0,0.4,0c0,0.2,0,0.3,0,0.7c-0.3,0-0.7,0-0.9,0s-0.6,0-0.9,0.1
							c-0.3-0.4-0.9-1.3-1.8-2.7c-0.4-0.8-0.9-1.3-1.3-1.8c-0.7-0.8-1.2-1.6-1.9-2.1c0-0.1,0-0.2,0-0.3c0.2,0,0.4,0,0.6,0
							c0.9-0.1,1.6-0.4,2-1c0.4-0.6,0.6-1.3,0.4-2.2c-0.1-0.8-0.3-1.4-0.9-1.8c-0.4-0.4-1.2-0.6-2.1-0.4c-0.6,0.1-1.1,0.2-1.6,0.6
							c0,0.3,0.1,0.7,0.1,1c0,0.1,0.1,1,0.4,2.8c0.3,1.7,0.4,2.6,0.8,4.2c0.1,0.9,0.3,1.7,0.6,2.6c0.1,0.6,0.2,1,0.3,1.1
							c0.1,0.1,0.2,0.2,0.3,0.2c0.1,0,0.4,0,1,0c0,0.2,0.1,0.3,0.1,0.6c-0.7,0-1.2,0.1-1.7,0.1s-1.1,0.2-2.1,0.3
							c-0.1-0.2-0.1-0.3-0.1-0.6c0.6-0.1,0.8-0.2,0.9-0.2c0.1-0.1,0.1-0.1,0.2-0.2c0-0.1,0-0.4-0.1-0.9c0-0.1-0.2-1-0.6-2.7
							c-0.3-1.8-0.6-2.7-0.9-4.3c-0.2-0.9-0.3-1.7-0.6-2.5c-0.2-1.3-0.3-1.7-0.4-1.8c-0.1-0.1-0.2-0.1-0.3-0.2
							C59.3,241,58.9,241,58.2,241.1z"/>
						<path fill="#003300" d="M70.2,252.9c0-0.2,0-0.4,0-0.7c0.3,0,0.6,0,0.7-0.1c0.1,0,0.1-0.1,0.2-0.2c0.1-0.1,0.1-0.3,0.3-0.8
							c0.1-0.2,0.3-1.1,0.9-2.8c0.7-2.2,1-3.2,1.9-5.5c0.1-0.4,0.6-1.8,1.3-3.9c0.2,0,0.3,0,0.6,0c1.2,3.9,1.8,5.9,2.6,9.9
							c0.3,1.6,0.6,2.7,0.7,3c0.1,0.2,0.1,0.4,0.2,0.4c0.1,0.1,0.3,0.1,0.7,0.2c0,0.2,0,0.4-0.1,0.7c-0.7-0.1-1.1-0.2-1.4-0.2
							c-0.9,0-1.2,0-2.1,0c0-0.2,0-0.4,0-0.7c0.4,0,0.8,0,0.9,0s0.2-0.1,0.2-0.1c0-0.1,0.1-0.1,0.1-0.2s0-0.3,0-0.6
							c-0.2-1.2-0.3-1.8-0.7-3c-1.7-0.1-2.5-0.1-4.1-0.1c-0.3,1-0.4,1.4-0.8,2.5c-0.1,0.4-0.2,0.8-0.2,1c0,0.1,0,0.1,0.1,0.2
							c0,0.1,0.1,0.1,0.2,0.2c0.1,0,0.4,0.1,0.9,0.1c0,0.2,0,0.4,0,0.7c-0.8-0.1-1.3-0.1-1.7-0.1S70.7,252.8,70.2,252.9z
							 M73.3,247.4c1.4,0,2.2,0,3.7,0.1c-0.6-2.3-0.9-3.6-1.6-5.9C74.5,244,74,245.1,73.3,247.4z"/>
						<path fill="#003300" d="M82.8,240.2c0-0.2,0.1-0.3,0.1-0.7c0.9,0.1,1.6,0.2,2.1,0.3c0.4,0,1.1,0.1,2.2,0.2s1.8,0.2,2.2,0.3
							c0.4,0.1,0.8,0.1,1.1,0.2c0.3,0.1,0.7,0.1,0.9,0.2c-0.3,0.6-0.7,1.4-1.1,2.8c-0.2,0-0.3-0.1-0.4-0.1c0.2-0.8,0.3-1.7,0.3-1.8
							c-0.2-0.1-0.7-0.3-1.1-0.4c-0.4-0.1-0.9-0.2-1.4-0.3c-0.5-0.1-1.1-0.1-1.8-0.1c-0.1,0.3-0.2,0.7-0.2,1c0,0.2-0.2,0.9-0.4,2.2
							c-0.2,0.9-0.2,1.2-0.4,2.1c0.6,0.1,1,0.2,1.4,0.2c0.7,0.1,1.1,0.1,1.6,0.1c0.1,0,0.2,0,0.3-0.1c0.1-0.1,0.2-0.3,0.3-0.8
							c0.1-0.2,0.1-0.3,0.2-0.6c0.2,0,0.3,0,0.4,0.1c-0.2,0.9-0.4,1.3-0.7,2.1c-0.2,0.9-0.3,1.4-0.6,2.3c-0.2,0-0.2,0-0.4-0.1
							c0-0.2,0.1-0.3,0.1-0.7c0.1-0.7,0.2-1.1,0.2-1.1c0-0.1-0.1-0.2-0.2-0.2c-0.2-0.1-0.9-0.3-1.9-0.4c-0.3,0-0.7-0.1-1.1-0.1
							c-0.1,0.8-0.2,1.1-0.4,1.9c-0.2,0.9-0.3,1.8-0.4,2.6c-0.1,0.6-0.1,1-0.1,1.1c0,0.1,0.1,0.2,0.2,0.3c0.1,0.1,0.4,0.1,0.9,0.2
							c-0.1,0.2-0.1,0.3-0.1,0.7c-0.6-0.1-1.1-0.2-1.7-0.3c-0.4-0.1-1.2-0.1-2.2-0.2c0-0.2,0.1-0.3,0.1-0.7c0.6,0,0.9,0,1,0
							s0.2-0.1,0.2-0.2c0.1-0.1,0.1-0.4,0.2-0.9c0-0.1,0.2-1,0.6-2.8s0.4-2.7,0.8-4.5c0.1-0.9,0.3-1.8,0.4-2.6
							c0.1-0.3,0.1-0.8,0.1-0.9s-0.1-0.2-0.2-0.3C83.8,240.3,83.4,240.3,82.8,240.2z"/>
						<path fill="#003300" d="M91.9,244.2c-0.2,0-0.3-0.1-0.4-0.1c0.4-1.6,0.8-2.6,0.9-3.1c0.6,0.1,1.6,0.3,2.8,0.7
							c1,0.2,1.7,0.4,2,0.6c0.3,0.1,1.2,0.3,2.6,0.7c1,0.2,1.7,0.4,2.1,0.6c-0.4,0.7-0.9,1.7-1.6,3c-0.2-0.1-0.3-0.1-0.4-0.1
							c0.1-0.3,0.2-0.6,0.3-0.9c0.2-0.6,0.3-0.9,0.3-0.9c0-0.1,0-0.1,0-0.2c0,0,0-0.1-0.1-0.1s-0.3-0.1-0.8-0.3
							c-0.4-0.1-0.8-0.3-1.1-0.3c-0.3-0.1-0.6-0.1-1-0.2c-0.3,0.6-0.7,1.3-1,2.5c-0.9,2.2-1.3,3.2-2.2,5.5c-0.3,0.9-0.7,1.7-1,2.5
							c-0.2,0.6-0.3,1-0.3,1.1c0,0.1,0,0.2,0.1,0.3s0.3,0.2,0.9,0.3c-0.1,0.2-0.1,0.3-0.2,0.6c-0.8-0.2-1.3-0.4-1.7-0.6
							c-0.1,0-0.8-0.2-2-0.4c0.1-0.2,0.1-0.3,0.2-0.6c0.6,0.1,0.9,0.1,1,0.1s0.2-0.1,0.3-0.1c0.1-0.1,0.2-0.4,0.4-0.9
							c0-0.1,0.4-1,1-2.7c0.8-2.2,1.2-3.2,2.1-5.5c0.1-0.2,0.2-0.6,0.3-0.9c0.2-0.7,0.3-1,0.6-1.6c-0.4-0.1-0.7-0.2-1.2-0.3
							c-0.7-0.1-1.2-0.2-1.7-0.3c-0.1,0-0.2,0-0.3,0.1c-0.1,0-0.3,0.3-0.6,0.9C92.2,243.6,92.1,243.9,91.9,244.2z"/>
						<path fill="#003300" d="M56.1,302.9c0.1-0.2,0.1-0.3,0.2-0.6c0.8,0.3,1.3,0.6,1.8,0.7c0.3,0.1,0.7,0.2,1,0.3
							c0.3,0.1,0.6,0.1,0.9,0.2c0.1,0,0.2,0,0.3,0.1c0.6,0.2,1.1,0.4,1.3,0.8c0.3,0.3,0.4,0.8,0.6,1.3c0.1,0.6,0,1.2-0.1,1.8
							s-0.3,1.1-0.7,1.7c-0.3,0.6-0.7,1-1.2,1.2c-0.4,0.3-0.9,0.4-1.3,0.6c-0.3,0-0.7,0-1-0.1s-0.6-0.2-0.9-0.4c0-0.3,0-0.4,0.1-0.8
							c0.3,0.2,0.7,0.4,0.9,0.4c0.3,0.1,0.7,0.1,1-0.1c0.3-0.1,0.7-0.4,1-0.9c0.3-0.4,0.6-1,0.7-1.6s0.2-1.1,0.2-1.6
							c0-0.4-0.1-0.9-0.3-1.2c-0.2-0.3-0.6-0.6-1-0.7c-0.3-0.1-0.8-0.1-1.3,0c-0.2,0.7-0.7,1.8-1.1,3.2c-0.7,2-1,2.9-1.7,4.9
							c-0.3,0.9-0.6,1.8-0.9,2.6c-0.2,0.7-0.3,1-0.2,1.1c0.1,0.1,0.1,0.2,0.2,0.3s0.4,0.2,1,0.4c-0.1,0.2-0.1,0.3-0.2,0.7
							c-0.9-0.3-1.6-0.6-2-0.8c-0.2-0.1-1-0.3-2.3-0.8c0.1-0.2,0.1-0.3,0.2-0.6c0.6,0.2,0.9,0.3,1.1,0.3c0.1,0,0.2,0,0.3-0.1
							c0.1-0.1,0.2-0.4,0.4-0.9c0-0.1,0.4-1,1-2.7c0.7-1.8,1-2.7,1.7-4.5c0.3-0.9,0.7-1.8,0.9-2.6c0.2-0.6,0.3-1,0.3-1.1
							c0-0.1,0-0.2-0.1-0.3C56.9,303.2,56.5,303,56.1,302.9z"/>
						<path fill="#003300" d="M64.9,318.9c0,0.2,0,0.4-0.1,0.7c-1.1-0.2-1.8-0.3-2.1-0.4c-1-0.1-1.4-0.2-2.3-0.4
							c0.1-0.2,0.1-0.3,0.1-0.7c0.6,0.1,1,0.1,1.1,0.1s0.2-0.1,0.3-0.2c0.1-0.1,0.2-0.4,0.3-1c0-0.1,0.2-1.1,0.6-2.9
							c0.3-1.9,0.6-2.8,0.9-4.7c0.2-0.9,0.3-1.8,0.4-2.7c0.1-0.7,0.1-1,0.1-1.1s-0.1-0.2-0.2-0.3c-0.1-0.1-0.3-0.1-0.8-0.3
							c0.1-0.2,0.1-0.3,0.1-0.7c0.8,0.2,1.3,0.3,1.7,0.4c0.4,0.1,1,0.1,1.8,0.2c0,0.2,0,0.4-0.1,0.7c-0.4,0-0.8-0.1-0.9,0
							c-0.1,0-0.2,0.1-0.2,0.2c0,0.1,0,0.4-0.1,1c0,0.1-0.2,1.1-0.6,2.9c-0.3,1.9-0.4,2.9-0.8,4.8c-0.1,0.9-0.3,1.8-0.4,2.7
							c-0.1,0.7-0.1,1-0.1,1.2c0,0.1,0.1,0.2,0.2,0.3C64,318.7,64.3,318.8,64.9,318.9z"/>
						<path fill="#003300" d="M76.1,318.4c-0.1,0.4-0.1,0.6-0.2,1c-0.6,0.4-1.2,0.8-1.8,0.9c-0.5,0.2-1.2,0.2-1.9,0.2
							c-0.8,0-1.6-0.2-2.2-0.6c-0.7-0.3-1.2-0.8-1.7-1.3c-0.4-0.6-0.8-1.1-1.1-1.8c-0.2-0.7-0.4-1.3-0.4-2.1c-0.1-0.8,0-1.6,0.1-2.5
							c0.2-2.2,1-3.9,2-5.3c1-1.3,2.2-2,3.8-2c0.3,0,0.7,0,1,0.1c0.3,0.1,0.7,0.2,1.1,0.4c0.4,0.2,0.8,0.3,0.8,0.3
							c-0.1,0.3-0.1,0.8-0.1,1.1c0,0.6-0.1,1.3,0,2.1c-0.1,0-0.2,0-0.4,0c0-0.4,0-0.8,0-1.2c-0.1-0.7-0.3-1.2-0.7-1.6
							c-0.3-0.3-1-0.4-1.8-0.4c-0.6,0-1,0.1-1.4,0.3s-0.8,0.6-1.1,1.1c-0.3,0.4-0.7,1.1-0.9,1.9c-0.2,0.8-0.4,1.8-0.6,3
							c-0.2,2.1,0.1,3.8,0.9,5.1c0.8,1.3,2.1,2.1,3.7,2.1c0.7,0,1.3-0.1,2-0.4c0.4-0.2,0.8-0.4,1.2-0.9
							C76,318.2,76,318.3,76.1,318.4z"/>
						<path fill="#003300" d="M81.5,319.1c0,0.2,0,0.4,0.1,0.7c-0.9,0.1-1.4,0.1-2.3,0.2c-0.1,0-0.9,0.1-2.2,0.2c0-0.2,0-0.4,0-0.7
							c0.6,0,1-0.1,1.1-0.2c0.1-0.1,0.2-0.1,0.2-0.2s0.1-0.4,0-1c0-0.1-0.1-1.1-0.2-3c-0.2-1.9-0.2-2.9-0.4-4.9
							c-0.1-1-0.2-1.9-0.2-2.8c-0.1-0.7-0.1-1-0.2-1.1c-0.1-0.1-0.1-0.2-0.2-0.2s-0.4-0.1-0.9,0c0-0.2,0-0.4,0-0.7
							c0.8,0,1.3,0,1.8-0.1c0.4,0,1-0.1,1.7-0.3c0,0.2,0,0.4,0.1,0.7c-0.4,0.1-0.8,0.1-0.9,0.2s-0.1,0.1-0.2,0.2c0,0.1,0,0.4,0,1
							c0,0.1,0.1,1.1,0.3,3c0.1,0.9,0.1,1.3,0.2,2.1c0.2-0.2,0.4-0.7,0.8-1.2c0.2-0.6,0.4-0.9,0.7-1.4c0.4-1,0.7-1.6,1-2.6
							s0.6-1.7,0.7-1.9c0-0.2-0.1-0.4-0.1-0.7c0.4-0.1,0.8-0.1,1.1-0.2c0.3-0.1,0.6-0.1,0.9-0.2c0.1,0.2,0.1,0.4,0.1,0.7
							c-0.3,0.1-0.7,0.2-0.8,0.2c-0.1,0.1-0.2,0.2-0.3,0.4c-0.2,0.3-0.4,1-0.9,2c-0.7,1.7-1.1,2.6-2,4.2c1.9,2.1,3,3.1,5.2,5.1
							c0.9,0.8,1.4,1.2,1.6,1.2c0.1,0.1,0.3,0.1,0.7,0c0.1,0.2,0.1,0.3,0.1,0.7c-0.6,0.1-0.9,0.1-1,0.2c-0.2,0-0.6,0.1-1.2,0.3
							c-0.1-0.1-0.7-0.6-1.6-1.4c-0.3-0.3-0.6-0.6-1-0.9c-1.7-1.6-2.5-2.3-3.9-4c-0.1,0.1-0.1,0.1-0.1,0.1c0.1,0.8,0.1,1.2,0.2,2
							c0.1,1,0.2,1.9,0.3,2.8c0.1,0.7,0.1,1,0.2,1.2c0.1,0.1,0.2,0.2,0.3,0.2C80.5,319.2,80.9,319.2,81.5,319.1z"/>
						<path fill="#003300" d="M88.5,317.8c-0.1-0.7-0.3-1.8-0.7-3.2c0.2,0,0.3-0.1,0.4-0.1c0.3,1,0.4,1.6,0.6,1.8
							c0.1,0.1,0.3,0.3,0.6,0.4c0.2,0.1,0.7,0.2,1,0.3c0.4,0,0.8,0,1.1-0.1c0.6-0.1,0.9-0.4,1.2-0.9c0.3-0.4,0.4-1,0.4-1.6
							c0-0.6-0.1-1.1-0.3-1.7c-0.1-0.4-0.3-0.8-0.6-1.1c-0.2-0.3-0.4-0.4-0.7-0.7c-0.2-0.1-0.6-0.2-0.8-0.2s-0.6,0.1-1.1,0.1
							s-1,0.1-1.3,0.1c-0.6-0.1-0.9-0.2-1.2-0.4c-0.3-0.2-0.6-0.6-0.8-1c-0.2-0.4-0.4-0.9-0.6-1.4c-0.2-0.8-0.2-1.6-0.2-2.3
							c0.1-0.8,0.2-1.4,0.6-2c0.3-0.6,0.8-0.9,1.3-1.1c0.3-0.1,0.7-0.1,1.1-0.1s0.9,0.1,1.3,0.2c0.1,0.4,0.2,0.9,0.3,1.2
							c0.1,0.3,0.3,0.9,0.6,1.7c-0.1,0.1-0.2,0.1-0.4,0.1c-0.4-1-0.7-1.6-0.7-1.7c-0.2-0.2-0.4-0.3-0.7-0.6c-0.6-0.2-1-0.3-1.4-0.1
							c-0.6,0.2-0.9,0.7-1.1,1.3c-0.1,0.7-0.1,1.6,0.1,2.5c0.1,0.6,0.3,1,0.6,1.3c0.2,0.2,0.6,0.4,0.9,0.6c0.2,0.1,0.7,0.1,1.2,0
							c0.6-0.1,1.1-0.1,1.6-0.1c0.4,0,0.9,0.1,1.1,0.3c0.2,0.2,0.6,0.4,0.9,0.8c0.3,0.3,0.6,0.8,0.8,1.3c0.6,1.3,0.6,2.7,0.1,3.9
							c-0.4,1.2-1.3,2.1-2.7,2.6C90.5,318.2,89.5,318.2,88.5,317.8z"/>
					</g>
					<g>
						<g>
							<g>
								
									<text transform="matrix(0.8202 0 0 1 10.2546 311.0874)" fill="#004E27" font-family="'MyriadPro-Regular'" font-size="91.2543">T</text>
								
									<text transform="matrix(1.2303 0 0 1 47.4518 298.4126)" fill="#004E27" font-family="'MyriadPro-Regular'" font-size="60.8362">O</text>
								
									<text transform="matrix(0.8202 0 0 1 99.0203 311.0874)" fill="#004E27" font-family="'MyriadPro-Regular'" font-size="91.2543">P</text>
								
									<text transform="matrix(0.7141 0 0 1 62.8054 299.1904)" fill="#FFCC00" font-family="'MyriadPro-Regular'" font-size="63.8979">5</text>
								<g>
									<g>
										<path fill="#FFCC00" d="M52.5,255c-0.1-0.2-0.1-0.2-0.2-0.4c0.1-0.2,0.2-0.6,0.3-0.7c-0.1-0.4-0.3-1-0.7-1.7
											c-0.6-1.2-0.9-2.1-1.1-2.6c-0.7-1.4-1-2.2-1.7-3.7c-0.2-0.6-0.6-1.2-1-2c-0.2-0.4-0.4-0.8-0.6-0.9s-0.1-0.1-0.2-0.1
											c-0.2,0-0.6,0-1.1,0.2c-0.1-0.2-0.1-0.3-0.2-0.6c0.8-0.2,1.4-0.4,2.1-0.6c0.5,0.1,1.2-0.1,2-0.4c0.8-0.2,1.4-0.4,1.9-0.6
											c1.3-0.3,2.5-0.4,3.3-0.2c0.9,0.2,1.8,0.7,2.6,1.6c0.8,0.8,1.3,1.9,1.7,3.2c0.2,1,0.3,1.9,0.3,2.7c0,0.9-0.1,1.7-0.3,2.3
											c-0.2,0.7-0.4,1.2-0.8,1.7c-0.3,0.4-0.7,0.8-1,1.1c-0.4,0.3-1,0.6-1.8,0.7c-0.2,0.1-0.7,0.1-1.1,0.2
											c-0.6,0.1-1,0.2-1.1,0.3C53.6,254.6,53.2,254.8,52.5,255z M54.1,253.4c0.6,0,1-0.1,1.6-0.2c0.6-0.1,1-0.3,1.3-0.6
											c0.3-0.2,0.7-0.6,0.9-0.8c0.2-0.3,0.4-0.8,0.6-1.2c0.1-0.6,0.2-1.2,0.1-2c-0.1-0.8-0.2-1.6-0.4-2.3
											c-0.3-1.1-0.8-2.1-1.3-2.9c-0.6-0.8-1.3-1.2-2.1-1.6c-0.9-0.2-1.9-0.2-3.1,0.1c-0.7,0.2-1.3,0.4-1.9,0.8
											c0.1,0.3,0.3,0.8,0.7,1.6c0.2,0.6,0.3,0.8,0.6,1.3c0.6,1.4,0.9,2.1,1.6,3.6c0.4,1.1,0.7,1.7,1.2,2.8
											C53.5,252.2,53.7,252.8,54.1,253.4z"/>
										<path fill="#FFCC00" d="M59.3,240c-0.1-0.2-0.1-0.3-0.1-0.6c0.2,0,0.6-0.1,1-0.1c0.6-0.2,0.9-0.2,1.6-0.3
											c0.3,0,0.8-0.1,1.4-0.2c0.9-0.2,1.3-0.3,1.5-0.3c1.1-0.1,1.9-0.1,2.3,0.1c0.6,0.2,0.9,0.6,1.2,1c0.3,0.4,0.4,1,0.6,1.6
											c0,0.6,0,1.1-0.2,1.7c-0.2,0.6-0.4,1-0.9,1.4c-0.4,0.3-0.9,0.7-1.6,1c0.1,0.2,0.6,0.7,1.1,1.4c0.9,1.2,1.3,1.8,2.1,3
											c0.6,0.9,0.9,1.3,1,1.4l0.1,0.1c0.1,0,0.2,0,0.4,0c0,0.2,0,0.3,0,0.7c-0.3,0-0.7,0-0.9,0s-0.6,0-0.9,0.1
											c-0.3-0.4-0.9-1.3-1.8-2.7c-0.4-0.8-0.9-1.3-1.3-1.8c-0.7-0.8-1.2-1.6-1.9-2.1c0-0.1,0-0.2,0-0.3c0.2,0,0.4,0,0.6,0
											c0.9-0.1,1.6-0.4,2-1c0.5-0.5,0.6-1.2,0.5-2.1c-0.1-0.8-0.3-1.4-0.9-1.8c-0.4-0.4-1.2-0.6-2.1-0.4
											c-0.6,0.1-1.1,0.2-1.6,0.6c0,0.3,0.1,0.7,0.1,1c0,0.1,0.1,1,0.4,2.8c0.3,1.7,0.4,2.6,0.8,4.2c0.1,0.9,0.3,1.7,0.6,2.6
											c0.1,0.6,0.2,1,0.3,1.1c0.1,0.1,0.2,0.2,0.3,0.2c0.1,0,0.4,0,1,0c0,0.2,0.1,0.3,0.1,0.6c-0.7,0-1.2,0.1-1.7,0.1
											c-0.5,0-1.1,0.2-2.1,0.3c-0.1-0.2-0.1-0.3-0.1-0.6c0.6-0.1,0.8-0.2,0.9-0.2c0.1-0.1,0.1-0.1,0.2-0.2c0-0.1,0-0.4-0.1-0.9
											c0-0.1-0.2-1-0.6-2.7c-0.3-1.8-0.6-2.7-0.9-4.3c-0.2-0.9-0.3-1.7-0.6-2.5c0-1.4-0.1-1.7-0.2-1.8c-0.1-0.1-0.2-0.1-0.3-0.2
											C60.4,239.9,60,239.9,59.3,240z"/>
										<path fill="#FFCC00" d="M71.3,251.8c0-0.2,0-0.4,0-0.7c0.3,0,0.6,0,0.7-0.1c0.1,0,0.1-0.1,0.2-0.2
											c0.1-0.1,0.1-0.3,0.3-0.8c0.1-0.2,0.3-1.1,0.9-2.8c0.7-2.2,1-3.2,1.9-5.5c0.1-0.4,0.6-1.8,1.3-3.9c0.2,0,0.3,0,0.6,0
											c1.2,3.9,1.8,5.9,2.6,9.9c0.3,1.6,0.6,2.7,0.7,3c0.1,0.2,0.1,0.4,0.2,0.4c0.1,0.1,0.3,0.1,0.7,0.2c0,0.2,0,0.4-0.1,0.7
											c-0.7-0.1-1.1-0.2-1.4-0.2c-0.9,0-1.2,0-2.1,0c0-0.2,0-0.4,0-0.7c0.4,0,0.8,0,0.9,0s0.2-0.1,0.2-0.1
											c0-0.1,0.1-0.1,0.1-0.2c0-0.1,0-0.3,0-0.6c-0.2-1.2-0.3-1.8-0.7-3c-1.7-0.1-2.5-0.1-4.1-0.1c-0.3,1-0.4,1.4-0.8,2.5
											c-0.1,0.4-0.2,0.8-0.2,1c0,0.1,0,0.1,0.1,0.2c0,0.1,0.1,0.1,0.2,0.2c0.1,0,0.4,0.1,0.9,0.1c0,0.2,0,0.4,0,0.7
											c-0.8-0.1-1.3-0.1-1.7-0.1S71.8,251.7,71.3,251.8z M74.5,246.3c1.4,0,2.2,0,3.7,0.1c-0.6-2.3-0.9-3.6-1.6-5.9
											C75.6,242.9,75.1,244,74.5,246.3z"/>
										<path fill="#FFCC00" d="M83.9,239.1c0-0.2,0.1-0.3,0.1-0.7c0.9,0.1,1.6,0.2,2.1,0.3c0.4,0,1.1,0.1,2.2,0.2
											c1.1,0.1,1.8,0.2,2.2,0.3c0.4,0.1,0.8,0.1,1.1,0.2c0.3,0.1,0.7,0.1,0.9,0.2c-0.3,0.6-0.7,1.4-1.1,2.8
											c-0.2,0-0.3-0.1-0.4-0.1c0.2-0.8,0.3-1.7,0.3-1.8c-0.2-0.1-0.7-0.3-1.1-0.4c-0.4-0.1-0.9-0.2-1.4-0.3
											c-0.6-0.1-1.1-0.1-1.8-0.1c-0.1,0.3-0.2,0.7-0.2,1c0,0.2-0.2,0.9-0.4,2.2c-0.2,0.9-0.2,1.2-0.4,2.1c0.6,0.1,1,0.2,1.4,0.2
											c0.7,0.1,1.1,0.1,1.6,0.1c0.1,0,0.2,0,0.3-0.1c0.1-0.1,0.2-0.3,0.3-0.8c0.1-0.2,0.1-0.3,0.2-0.6c0.2,0,0.3,0,0.4,0.1
											c-0.2,0.9-0.4,1.3-0.7,2.1c-0.2,0.9-0.3,1.4-0.6,2.3c-0.2,0-0.2,0-0.4-0.1c0-0.2,0.1-0.3,0.1-0.7c0.1-0.7,0.2-1.1,0.2-1.1
											c0-0.1-0.1-0.2-0.2-0.2c-0.2-0.1-0.9-0.3-1.9-0.4c-0.3,0-0.7-0.1-1.1-0.1c-0.1,0.8-0.2,1.1-0.4,1.9
											c-0.2,0.9-0.3,1.8-0.4,2.6c-0.1,0.6-0.1,1-0.1,1.1c0,0.1,0.1,0.2,0.2,0.3c0.1,0.1,0.4,0.1,0.9,0.2
											c-0.1,0.2-0.1,0.3-0.1,0.7c-0.6-0.1-1.1-0.2-1.7-0.3c-0.4-0.1-1.2-0.1-2.2-0.2c0-0.2,0.1-0.3,0.1-0.7c0.6,0,0.9,0,1,0
											s0.2-0.1,0.2-0.2c0.1-0.1,0.1-0.4,0.2-0.9c0-0.1,0.2-1,0.6-2.8c0.4-1.8,0.4-2.7,0.8-4.5c0.1-0.9,0.3-1.8,0.4-2.6
											c0.1-0.6,0.1-1,0.1-1.1c0-0.1-0.1-0.2-0.2-0.3C84.9,239.2,84.5,239.2,83.9,239.1z"/>
										<path fill="#FFCC00" d="M93.1,243.1c-0.2,0-0.3-0.1-0.4-0.1c0.4-1.6,0.8-2.6,0.9-3.1c0.6,0.1,1.6,0.3,2.8,0.7
											c1,0.2,1.7,0.4,2,0.6s1.2,0.3,2.6,0.7c1,0.2,1.7,0.4,2.1,0.6c-0.4,0.7-0.9,1.7-1.6,3c-0.2-0.1-0.3-0.1-0.4-0.1
											c0.1-0.3,0.2-0.6,0.3-0.9c0.2-0.6,0.3-0.9,0.3-0.9c0-0.1,0-0.1,0-0.2c0,0,0-0.1-0.1-0.1s-0.3-0.1-0.8-0.3
											c-0.4-0.1-0.8-0.3-1.1-0.3c-0.3-0.1-0.6-0.1-1-0.2c-0.3,0.6-0.7,1.3-1,2.5c-0.9,2.2-1.3,3.2-2.2,5.5
											c-0.3,0.9-0.7,1.7-1,2.5c-0.2,0.6-0.3,1-0.3,1.1c0,0.1,0,0.2,0.1,0.3c0.1,0.1,0.3,0.2,0.9,0.3c-0.1,0.2-0.1,0.3-0.2,0.6
											c-0.8-0.2-1.3-0.4-1.7-0.6c-0.1,0-0.8-0.2-2-0.4c0.1-0.2,0.1-0.3,0.2-0.6c0.6,0.1,0.9,0.1,1,0.1s0.2-0.1,0.3-0.1
											c0.1-0.1,0.2-0.4,0.4-0.9c0-0.1,0.4-1,1-2.7c0.8-2.2,1.2-3.2,2.1-5.5c0.1-0.2,0.2-0.6,0.3-0.9c0.2-0.7,0.3-1,0.6-1.6
											c-0.4-0.1-0.7-0.2-1.2-0.3c-0.7-0.1-1.2-0.2-1.7-0.3c-0.1,0-0.2,0-0.3,0.1c-0.1,0-0.3,0.3-0.6,0.9
											C93.3,242.5,93.2,242.8,93.1,243.1z"/>
									</g>
								</g>
								<g>
									<g>
										<path fill="#FFCC00" d="M57.2,301.8c0.1-0.2,0.1-0.3,0.2-0.6c0.8,0.3,1.3,0.6,1.8,0.7c0.3,0.1,0.7,0.2,1,0.3
											s0.6,0.1,0.9,0.2c0.1,0,0.2,0,0.3,0.1c0.6,0.2,1.1,0.4,1.3,0.8c0.3,0.3,0.4,0.8,0.6,1.3c0.1,0.6,0,1.2-0.1,1.8
											c-0.1,0.6-0.3,1.1-0.7,1.7c-0.3,0.6-0.7,1-1.2,1.2c-0.4,0.3-0.9,0.4-1.3,0.6c-0.3,0-0.7,0-1-0.1c-0.3-0.1-0.6-0.2-0.9-0.4
											c0-0.3,0-0.4,0.1-0.8c0.3,0.2,0.7,0.4,0.9,0.4c0.3,0.1,0.7,0.1,1-0.1c0.3-0.1,0.7-0.4,1-0.9c0.3-0.4,0.6-1,0.7-1.6
											s0.2-1.1,0.2-1.6c0-0.6-0.1-0.9-0.3-1.2c-0.2-0.3-0.6-0.6-1-0.7c-0.3-0.1-0.8-0.1-1.3,0c-0.2,0.7-0.7,1.8-1.1,3.2
											c-0.7,2-1,2.9-1.7,4.9c-0.3,0.9-0.6,1.8-0.9,2.6c-0.2,0.7-0.3,1-0.2,1.1c0.1,0.1,0.1,0.2,0.2,0.3s0.4,0.2,1,0.4
											c-0.1,0.2-0.1,0.3-0.2,0.7c-0.9-0.3-1.6-0.6-2-0.8c-0.2-0.1-1-0.3-2.3-0.8c0.1-0.2,0.1-0.3,0.2-0.6
											c0.6,0.2,0.9,0.3,1.1,0.3c0.1,0,0.2,0,0.3-0.1c0.1-0.1,0.2-0.4,0.4-0.9c0-0.1,0.4-1,1-2.7c0.7-1.8,1-2.7,1.7-4.5
											c0.3-0.9,0.7-1.8,0.9-2.6c0.2-0.6,0.3-1,0.3-1.1s0-0.2-0.1-0.3C58,302.1,57.6,301.9,57.2,301.8z"/>
										<path fill="#FFCC00" d="M66,317.8c0,0.2,0,0.4-0.1,0.7c-1.1-0.2-1.8-0.3-2.1-0.4c-1-0.1-1.4-0.2-2.3-0.4
											c0.1-0.2,0.1-0.3,0.1-0.7c0.6,0.1,1,0.1,1.1,0.1s0.2-0.1,0.3-0.2c0.1-0.1,0.2-0.4,0.3-1c0-0.1,0.2-1.1,0.6-2.9
											c0.3-1.9,0.6-2.8,0.9-4.7c0.2-0.9,0.3-1.8,0.4-2.7c0.1-0.7,0.1-1,0.1-1.1c0-0.1-0.1-0.2-0.2-0.3s-0.3-0.1-0.8-0.3
											c0.1-0.2,0.1-0.3,0.1-0.7c0.8,0.2,1.3,0.3,1.7,0.4c0.4,0.1,1,0.1,1.8,0.2c0,0.2,0,0.4-0.1,0.7c-0.4,0-0.8-0.1-0.9,0
											c-0.1,0-0.2,0.1-0.2,0.2c0,0.1,0,0.4-0.1,1c0,0.1-0.2,1.1-0.6,2.9c-0.3,1.9-0.4,2.9-0.8,4.8c-0.1,0.9-0.3,1.8-0.4,2.7
											c-0.1,0.7-0.1,1-0.1,1.2c0,0.1,0.1,0.2,0.2,0.3C65.1,317.6,65.4,317.7,66,317.8z"/>
										<path fill="#FFCC00" d="M77.2,317.3c-0.1,0.4-0.1,0.6-0.2,1c-0.6,0.4-1.2,0.8-1.8,0.9c-0.6,0.2-1.2,0.2-1.9,0.2
											c-0.8,0-1.6-0.2-2.2-0.6c-0.7-0.3-1.2-0.8-1.7-1.3c-0.4-0.6-0.8-1.1-1.1-1.8c-0.2-0.7-0.4-1.3-0.4-2.1
											c-0.1-0.8,0-1.6,0.1-2.5c0.2-2.2,1-3.9,2-5.3c1-1.3,2.2-2,3.8-2c0.3,0,0.7,0,1,0.1s0.7,0.2,1.1,0.4s0.8,0.3,0.8,0.3
											c-0.1,0.3-0.1,0.8-0.1,1.1c0,0.6-0.1,1.3,0,2.1c-0.1,0-0.2,0-0.4,0c0-0.4,0-0.8,0-1.2c-0.1-0.7-0.3-1.2-0.7-1.6
											c-0.3-0.3-1-0.4-1.8-0.4c-0.6,0-1,0.1-1.4,0.3c-0.4,0.2-0.8,0.6-1.1,1.1c-0.3,0.4-0.7,1.1-0.9,1.9c-0.2,0.8-0.4,1.8-0.6,3
											c-0.2,2.1,0.1,3.8,0.9,5.1s2.1,2.1,3.7,2.1c0.7,0,1.3-0.1,2-0.4c0.4-0.2,0.8-0.4,1.2-0.9C77.1,317,77.1,317.2,77.2,317.3z
											"/>
										<path fill="#FFCC00" d="M82.6,317.9c0,0.2,0,0.4,0.1,0.7c-0.9,0.1-1.4,0.1-2.3,0.2c-0.1,0-0.9,0.1-2.2,0.2
											c0-0.2,0-0.4,0-0.7c0.6,0,1-0.1,1.1-0.2s0.2-0.1,0.2-0.2s0.1-0.4,0-1c0-0.1-0.1-1.1-0.2-3c-0.2-1.9-0.2-2.9-0.4-4.9
											c-0.1-1-0.2-1.9-0.2-2.8c-0.1-0.7-0.1-1-0.2-1.1s-0.1-0.2-0.2-0.2s-0.4-0.1-0.9,0c0-0.2,0-0.4,0-0.7c0.8,0,1.3,0,1.8-0.1
											c0.4,0,1-0.1,1.7-0.3c0,0.2,0,0.4,0.1,0.7c-0.4,0.1-0.8,0.1-0.9,0.2c-0.1,0.1-0.1,0.1-0.2,0.2c0,0.1,0,0.4,0,1
											c0,0.1,0.1,1.1,0.3,3c0.1,0.9,0.1,1.3,0.2,2.1c0.2-0.2,0.4-0.7,0.8-1.2c0.2-0.6,0.4-0.9,0.7-1.4c0.4-1,0.7-1.6,1-2.6
											s0.6-1.7,0.7-1.9c0-0.2-0.1-0.4-0.1-0.7c0.4-0.1,0.8-0.1,1.1-0.2c0.3-0.1,0.6-0.1,0.9-0.2c0.1,0.2,0.1,0.4,0.1,0.7
											c-0.3,0.1-0.7,0.2-0.8,0.2c-0.1,0.1-0.2,0.2-0.3,0.4c-0.2,0.3-0.4,1-0.9,2c-0.7,1.7-1.1,2.6-2,4.2c1.9,2.1,3,3.1,5.2,5.1
											c0.9,0.8,1.4,1.2,1.6,1.2c0.1,0.1,0.3,0.1,0.7,0c0.1,0.2,0.1,0.3,0.1,0.7c-0.6,0.1-0.9,0.1-1,0.2c-0.2,0-0.6,0.1-1.2,0.3
											c-0.1-0.1-0.7-0.6-1.6-1.4c-0.3-0.3-0.6-0.6-1-0.9c-1.7-1.6-2.5-2.3-3.9-4c-0.4,0.2-0.4,0.2-0.4,0.2
											c0.1,0.8,0.1,1.2,0.2,2c0.1,1,0.2,1.9,0.3,2.8c0.1,0.7,0.1,1,0.2,1.2c0.1,0.1,0.2,0.2,0.3,0.2
											C81.6,318.1,82,318.1,82.6,317.9z"/>
										<path fill="#FFCC00" d="M89.6,316.7c-0.1-0.7-0.3-1.8-0.7-3.2c0.2,0,0.3-0.1,0.4-0.1c0.3,1,0.4,1.6,0.6,1.8
											c0.1,0.1,0.3,0.3,0.6,0.4c0.2,0.1,0.7,0.2,1,0.3c0.4,0,0.8,0,1.1-0.1c0.6-0.1,0.9-0.4,1.2-0.9c0.3-0.4,0.4-1,0.4-1.6
											s-0.1-1.1-0.3-1.7c-0.1-0.4-0.3-0.8-0.6-1.1c-0.2-0.3-0.4-0.4-0.7-0.7c-0.2-0.1-0.6-0.2-0.8-0.2s-0.6,0.1-1.1,0.1
											s-1,0.1-1.3,0.1c-0.6-0.1-0.9-0.2-1.2-0.4c-0.3-0.2-0.6-0.6-0.8-1c-0.2-0.4-0.4-0.9-0.6-1.4c-0.2-0.8-0.2-1.6-0.2-2.3
											c0.1-0.8,0.2-1.4,0.6-2c0.3-0.6,0.8-0.9,1.3-1.1c0.3-0.1,0.7-0.1,1.1-0.1s0.9,0.1,1.3,0.2c0.1,0.4,0.2,0.9,0.3,1.2
											c0.1,0.3,0.3,0.9,0.6,1.7c-0.1,0.1-0.2,0.1-0.4,0.1c-0.4-1-0.7-1.6-0.7-1.7c-0.2-0.2-0.4-0.3-0.7-0.6
											c-0.6-0.2-1-0.3-1.4-0.1c-0.6,0.2-0.9,0.7-1.1,1.3c-0.1,0.7-0.1,1.6,0.1,2.5c0.1,0.6,0.3,1,0.6,1.3
											c0.2,0.2,0.6,0.4,0.9,0.6c0.2,0.1,0.7,0.1,1.2,0c0.5-0.1,1.1-0.1,1.6-0.1c0.4,0,0.9,0.1,1.1,0.3s0.6,0.4,0.9,0.8
											c0.3,0.3,0.6,0.8,0.8,1.3c0.6,1.3,0.6,2.7,0.1,3.9c-0.4,1.2-1.3,2.1-2.7,2.6C91.6,317,90.6,317,89.6,316.7z"/>
									</g>
								</g>
							</g>
						</g>
					</g>
				</g>
			</g>
		</g>
	</g>
</g>
</svg>
