<?xml version="1.0" encoding="utf-8"?>
<!-- Generator: Adobe Illustrator 18.1.1, SVG Export Plug-In . SVG Version: 6.00 Build 0)  -->
<svg version="1.1" id="Layer_1" xmlns="http://www.w3.org/2000/svg" xmlns:xlink="http://www.w3.org/1999/xlink" x="0px" y="0px"
	 viewBox="-429 231 100 100" enable-background="new -429 231 100 100" xml:space="preserve">
<path fill="#FF9900" d="M-375,236.1v11.1c19,0.5,33.1,15.4,33.1,33.7c0,18.6-14.9,33.7-33.5,33.7c-10.8,0-20.3-5.1-26.5-13
	c-3.3-4.6-5.4-10.5-6.1-15.5h8.6l-14.8-25.6L-429,286h9c2.1,23,21.7,41.4,45.4,41.4c25.2,0,45.3-20.4,45.3-45.6
	C-329.2,256.6-350,236.2-375,236.1z"/>
<polygon fill="#FF9900" points="-371,278 -371,261 -378,261 -378,278.4 -378,285 -371.3,285 -354,285 -354,278 "/>
</svg>
