<svg xmlns="http://www.w3.org/2000/svg" xmlns:xlink="http://www.w3.org/1999/xlink" id="Layer_1" x="0" y="0" enable-background="new -429 231 100 100" version="1.1" viewBox="-429 231 100 100" xml:space="preserve"><path fill="#F90" d="M-332.8,254.1l-3.8,0v61.5h-76.9v3.8c0,3.8,0,3.8,3.8,3.8h76.9c3.8,0,3.8,0,3.8-3.8v-61.5	C-329,254.1-329,254.1-332.8,254.1z M-398.2,261.8l15.4,23.1l11.5-11.5l15.4,19.2h-61.5L-398.2,261.8z M-425.2,238.7	c-3.8,0-3.8,0-3.8,3.9v61.5c0,3.8,0,3.8,3.8,3.8h76.9c3.8,0,3.8,0,3.8-3.8v-61.5c0-3.8,0-3.8-3.8-3.8L-425.2,238.7z"/></svg>