<svg xmlns="http://www.w3.org/2000/svg" xmlns:xlink="http://www.w3.org/1999/xlink" id="Livello_1" x="0" y="0" enable-background="new -429 231 100 100" version="1.1" viewBox="-429 231 100 100" xml:space="preserve"><g><path fill="#FF3" d="M-379,236c-24.8,0-45,20.1-45,45c0,23,17.2,41.9,39.4,44.7v-63.5h11.2v63.5c22.2-2.8,39.4-21.7,39.4-44.7 C-334,256.1-354.2,236-379,236z M-395.9,322.7c-4-1.7-7.8-3.9-11.2-6.6v-35.3h11.2V322.7z M-350.9,316.1c-3.3,2.7-7.1,4.9-11.2,6.6 v-26.3h11.2V316.1z"/></g><g><g><g><path fill="#FF3" d="M-379,326c-1.9,0-3.8-0.1-5.6-0.3l0,0C-382.8,325.9-380.9,326.1-379,326c1.9,0.1,3.8-0.1,5.6-0.3l0,0 C-375.2,325.9-377.1,326-379,326z"/></g></g></g></svg>