<svg xmlns="http://www.w3.org/2000/svg" xmlns:xlink="http://www.w3.org/1999/xlink" id="Layer_1" x="0" y="0" version="1.1" viewBox="0 0 44 44" xml:space="preserve" style="enable-background:new 0 0 44 44"><style type="text/css">.st0{fill:#fff}</style><metadata><?xpacket begin="﻿" id="W5M0MpCehiHzreSzNTczkc9d"?><?xpacket end="w"?></metadata><switch><g><g><path d="M0-0.7C0,14.2,0,29.1,0,44c14.7,0,29.3,0,44,0c0-14.9,0-29.8,0-44.7C29.3-0.7,14.7-0.7,0-0.7z M39.6,19.9 c-1.1,3.5-1.9,7-2.6,10.6c-0.5,2.8-1.3,4.9-4.1,4.1c-0.3,0.4-0.6,0.8-0.9,1.2c1,0.5,1.7,1.5,1.7,2.5c0,1.7-1.7,3-3.8,3 s-3.8-1.3-3.8-3c0-0.8,0.4-1.4,0.9-2c-0.5-0.6-0.9-1.1-1.5-1.8c-1.2,0-3.2,0-5,0c-0.2,0.4-0.5,0.8-0.7,1.2 c0.9,0.5,1.5,1.5,1.5,2.6c0,1.7-1.4,3-3.1,3s-3.1-1.3-3.1-3c0-0.5,0.2-1,0.4-1.5c-0.5-0.9-1-1.7-1.5-2.5c-2.3,0.7-3.4-0.7-4-3.2 c-1.3-4.9-2.8-9.8-4.4-15.1c2.7,0,5,0,8.2,0c0-3-0.1-5.6,0-8.2c0.1-1.8,0.7-3.5,1.1-5.7c3.3,2.2,2.8,4.6,2.6,7.1 c-0.1,2,0.3,4.1,0.7,6c0.1,0.3,2.3,0.4,2.4,0.3c0.5-1.8,1-3.7,1.1-5.6c0.1-1.6-0.2-3.3-0.1-5c0-0.6,1.1-1.5,1.4-1.4 c0.7,0.2,1.7,0.9,1.7,1.5c0.2,1.6-0.1,3.3-0.2,5c0,1-0.2,2.1,0.2,3c0.5,1.3,0.3,4.1,2.5,2.9c1.2-0.7,1.7-3.2,1.9-5 c0.3-1.8-0.3-3.8-0.2-5.7c0-0.5,0.9-1.4,1.5-1.4c0.5,0,1.5,0.7,1.6,1.3c0.2,1.6,0.5,3.4,0.1,5c-1,4.2,0.3,6.3,4.4,6.4 C39.5,16.2,40.4,17.1,39.6,19.9z" class="st0"/><path d="M36.8,16.1c-4.1-0.1-5.4-2.2-4.4-6.4c0.4-1.6,0.1-3.3-0.1-5c-0.1-0.5-1.1-1.3-1.6-1.3c-0.5,0-1.4,0.9-1.5,1.4 c-0.1,1.9,0.5,3.8,0.2,5.7c-0.2,1.8-0.7,4.4-1.9,5c-2.2,1.2-2.1-1.6-2.5-2.9c-0.3-0.9-0.2-2-0.2-3c0-1.7,0.3-3.4,0.2-5 c-0.1-0.6-1.1-1.4-1.7-1.5c-0.4-0.1-1.4,0.9-1.4,1.4c-0.1,1.7,0.2,3.3,0.1,5c-0.2,1.9-0.6,3.8-1.1,5.6c0,0.1-2.3,0-2.4-0.3 c-0.4-2-0.8-4-0.7-6c0.2-2.5,0.8-4.9-2.6-7.1c-0.4,2.2-1,4-1.1,5.7c-0.2,2.6,0,5.3,0,8.2c-3.2,0-5.5,0-8.2,0 c1.5,5.3,3.1,10.2,4.4,15.1c0.7,2.5,1.8,3.9,4,3.2c0.5,0.9,1,1.7,1.5,2.5c-0.3,0.4-0.4,0.9-0.4,1.5c0,1.7,1.4,3,3.1,3 s3.1-1.3,3.1-3c0-1.1-0.6-2.1-1.5-2.6c0.2-0.4,0.5-0.8,0.7-1.2c1.8,0,3.8,0,5,0c0.5,0.7,1,1.2,1.5,1.8c-0.6,0.5-0.9,1.2-0.9,2 c0,1.7,1.7,3,3.8,3s3.8-1.3,3.8-3c0-1-0.7-2-1.7-2.5c0.3-0.4,0.6-0.8,0.9-1.2c2.8,0.9,3.6-1.2,4.1-4.1c0.7-3.6,1.5-7.1,2.6-10.6 C40.4,17.1,39.5,16.2,36.8,16.1z"/></g></g></switch></svg>