<svg xmlns="http://www.w3.org/2000/svg" xmlns:xlink="http://www.w3.org/1999/xlink" id="Layer_1" x="0" y="0" version="1.1" viewBox="0 0 50.5 57.6" xml:space="preserve" style="enable-background:new 0 0 50.5 57.6"><style type="text/css">.st0{fill:#177eff}</style><metadata><?xpacket begin="﻿" id="W5M0MpCehiHzreSzNTczkc9d"?><?xpacket end="w"?></metadata><switch><g><g><path d="M40.5,22.3c-0.2,4-1.8,5.6-5.8,5.7c-6.4,0.1-12.7,0-19.1,0c-3.5,0-5.3-1.8-5.5-5.2c-0.1-1-0.2-1.9-0.3-3.4 c-2.8,2.4-3.7,11.5-2,15.5c2.5,5.7,11.7,9.6,20.5,8.7c7.2-0.8,14.5-5.3,14.8-10.1c0.3-4.5,1.9-9.6-1.9-13.6 C40.6,20.7,40.5,21.5,40.5,22.3z" class="st0"/><path d="M43.2,6.4c-0.7,0.4-1.7,0.7-2.2,1.4c-0.9,1.3-1.2,3.2-2.3,4.2c-1.7,1.4-4,3.2-5.9,2.9 c-1.8-0.2-3.6-2.6-5-4.3c-0.8-1-0.6-2.6-1.1-3.9c-0.3-0.8-1.1-1.4-1.6-2c-0.5,0.6-1.2,1.2-1.4,1.9C23.2,8,23,9.7,22.4,11.2 c-2.2,4.9-7.1,5.6-10.3,1.3c-1.1-1.4-1.6-3.3-2.6-4.9C9.1,7,8.1,6.7,7.5,6.3C7.2,7.1,6.5,8,6.7,8.5c1,2.3,2.3,4.4,3.4,6.6 c0.9,1.8,2,3.7,2.2,5.5c0.4,4.8,0.5,5.1,5.2,5.1c1.2,0,2.4,0,4,0c0.5-4.6-1.1-9.5,3.7-11.9c5.2,2.6,2.7,7.7,3.9,11.9 c2.2,0,4.2,0.3,6.1-0.1c1.1-0.2,2.8-1.6,2.7-2.2c-0.6-4.6,1.6-7.8,4.3-11c0.8-1,1.3-2.4,1.6-3.7C44,8,43.4,7.2,43.2,6.4z" class="st0"/><path d="M14.1,43.2c-1.7,3.4-3.2,6.2-4.8,9.4c3,0,5.7,1.5,7.3-1.9c0.2-0.4,1.3-0.5,2.1-0.5c4.1,0,8.2,0,12.3,0 c0.7,0,1.8,0.2,2,0.6c1.7,3.2,4.4,1.8,7.4,1.8c-1.6-3.2-3.1-6-4.7-9.2C28.3,49.2,21.2,49.3,14.1,43.2z" class="st0"/><path d="M16.9,13.1c1,0,2.9-1.7,3-2.8c0.1-1.2-1.4-2.5-2.9-4.9c-1.6,2.3-3.1,3.6-3.1,4.8C14,11.3,15.8,13,16.9,13.1z" class="st0"/><path d="M33.5,13.3c1-1.1,2.7-2.1,2.9-3.4c0.2-0.9-1.5-2.2-3-4.3C32,7.7,30.5,9,30.7,10.1 C30.8,11.2,32.5,12.2,33.5,13.3z" class="st0"/></g></g></switch></svg>