<svg xmlns="http://www.w3.org/2000/svg" xmlns:xlink="http://www.w3.org/1999/xlink" x="0" y="0" enable-background="new 0 0 960 90" version="1.1" viewBox="0 0 960 90" xml:space="preserve"><g id="image"><image width="620" height="420" overflow="visible" transform="matrix(0.2143 0 0 0.2143 282.1138 -0.3232)" xlink:href="mm3.jpg"/><image width="620" height="420" overflow="visible" transform="matrix(0.2177 0 0 0.2143 399.8501 -0.3232)" xlink:href="jw5.jpg"/><image width="620" height="420" overflow="visible" transform="matrix(0.2129 0 0 0.2143 518.2097 -0.3232)" xlink:href="lw4.jpg"/><image width="620" height="420" overflow="visible" transform="matrix(0.2129 0 0 0.2143 637.5259 0)" xlink:href="kw1.jpg"/><image width="620" height="420" overflow="visible" transform="matrix(0.2129 0 0 0.2143 757.3678 0)" xlink:href="bp5.jpg"/></g><g id="effect"><g><image width="704" height="115" opacity=".68" overflow="visible" transform="matrix(1 0 0 1 271.8678 -11)" xlink:href="C439AC1F664BC235.png"/><g><g><g><path fill="#FFF" d="M281.5,90h-0.3V0h50.3L281.5,90z M400.2,0l-50,90h51.3 M399.2,0 M399.2,90"/><path fill="#FFF" d="M400.5,90h-0.3V0h50.3L400.5,90z M519.2,0l-50,90h51.3 M519.2,90V0"/><path fill="#FFF" d="M519.5,90h-0.3V0h50.3L519.5,90z M638.2,0l-50,90h51.3 M638.2,90V0"/><path fill="#FFF" d="M638.5,90h-0.3V0h50.3L638.5,90z M757.2,0l-50,90h51.3 M757.2,90V0"/><path fill="#FFF" d="M757.5,90h-0.3V0h50.3L757.5,90z M876.2,0l-50,90h51.3 M876.2,90V0"/></g><polygon fill="#FFF" points="960 89.7 870.3 89.7 876.4 0 960 0"/></g></g></g><rect width="27.3" height="89.7" x="253.9" fill="#FFF"/><g><g id="logo_1_"><g><g><text fill="#030" font-family="'MyriadPro-Regular'" font-size="91.254" transform="matrix(0.8202 0 0 1 20.0742 77.7015)">T</text><text fill="#030" font-family="'MyriadPro-Regular'" font-size="60.836" transform="matrix(1.2303 0 0 1 57.2717 65.0271)">O</text><text fill="#030" font-family="'MyriadPro-Regular'" font-size="91.254" transform="matrix(0.8202 0 0 1 108.8398 77.7015)">P</text><text fill="#030" font-family="'MyriadPro-Regular'" font-size="63.898" transform="matrix(0.7141 0 0 1 72.6251 65.8041)">5</text><path fill="#030" d="M62.3,21.6c-0.1-0.2-0.1-0.2-0.2-0.4c0.1-0.2,0.2-0.6,0.3-0.7c-0.1-0.4-0.3-1-0.7-1.7 c-0.6-1.2-0.9-2.1-1.1-2.6c-0.7-1.4-1-2.2-1.7-3.7c-0.2-0.6-0.6-1.2-1-2c-0.2-0.4-0.4-0.8-0.6-0.9s-0.1-0.1-0.2-0.1 c-0.2,0-0.6,0-1.1,0.2C56,9.6,56,9.5,55.8,9.3C56.6,9,57.3,8.8,58,8.7c0.4-0.1,1.1-0.3,1.9-0.6c0.8-0.2,1.4-0.4,1.9-0.6 c1.3-0.3,2.5-0.4,3.3-0.2C66,7.6,66.9,8,67.6,8.9c0.8,0.8,1.3,1.9,1.7,3.2c0.2,1,0.3,1.9,0.3,2.7c0,0.9-0.1,1.7-0.3,2.3 c-0.2,0.7-0.4,1.2-0.8,1.7c-0.3,0.4-0.7,0.8-1,1.1c-0.4,0.3-1,0.6-1.8,0.7c-0.2,0.1-0.7,0.1-1.1,0.2c-0.6,0.1-1,0.2-1.1,0.3 C63.4,21.2,63,21.4,62.3,21.6z M63.9,20.1c0.6,0,1-0.1,1.6-0.2c0.6-0.1,1-0.3,1.3-0.6c0.3-0.2,0.7-0.6,0.9-0.8 c0.2-0.3,0.4-0.8,0.6-1.2c0.1-0.6,0.2-1.2,0.1-2c-0.1-0.8-0.2-1.6-0.4-2.3c-0.3-1.1-0.8-2.1-1.3-2.9s-1.3-1.2-2.1-1.6 c-0.9-0.2-1.9-0.2-3.1,0.1C60.6,8.8,60,9,59.4,9.4c0.1,0.3,0.3,0.8,0.7,1.6c0.2,0.6,0.3,0.8,0.6,1.3c0.6,1.4,0.9,2.1,1.6,3.6 c0.4,1.1,0.7,1.7,1.2,2.8C63.3,18.8,63.5,19.4,63.9,20.1z"/><path fill="#030" d="M69.1,6.6C69,6.4,69,6.2,69,6c0.2,0,0.6-0.1,1-0.1c0.6-0.2,0.9-0.2,1.6-0.3c0.3,0,0.8-0.1,1.4-0.2 c0.9-0.1,1.3-0.2,1.4-0.2C75.6,5,76.3,5,76.8,5.2c0.6,0.2,0.9,0.6,1.2,1c0.3,0.4,0.4,1,0.6,1.6c0,0.6,0,1.1-0.2,1.7 c-0.2,0.6-0.4,1-0.9,1.4c-0.4,0.3-0.9,0.7-1.6,1c0.1,0.2,0.6,0.7,1.1,1.4c0.9,1.2,1.3,1.8,2.1,3c0.6,0.9,0.9,1.3,1,1.4l0.1,0.1 c0.1,0,0.2,0,0.4,0c0,0.2,0,0.3,0,0.7c-0.3,0-0.7,0-0.9,0s-0.6,0-0.9,0.1c-0.3-0.4-0.9-1.3-1.8-2.7c-0.4-0.8-0.9-1.3-1.3-1.8 c-0.7-0.8-1.2-1.6-1.9-2.1c0-0.1,0-0.2,0-0.3c0.2,0,0.4,0,0.6,0c0.9-0.1,1.6-0.4,2-1c0.4-0.6,0.6-1.3,0.4-2.2 c-0.1-0.8-0.3-1.4-0.9-1.8c-0.4-0.4-1.2-0.6-2.1-0.4c-0.6,0.1-1.1,0.2-1.6,0.6c0,0.3,0.1,0.7,0.1,1c0,0.1,0.1,1,0.4,2.8 c0.3,1.7,0.4,2.6,0.8,4.2c0.1,0.9,0.3,1.7,0.6,2.6c0.1,0.6,0.2,1,0.3,1.1c0.1,0.1,0.2,0.2,0.3,0.2c0.1,0,0.4,0,1,0 c0,0.2,0.1,0.3,0.1,0.6c-0.7,0-1.2,0.1-1.7,0.1s-1.1,0.2-2.1,0.3c-0.1-0.2-0.1-0.3-0.1-0.6c0.6-0.1,0.8-0.2,0.9-0.2 c0.1-0.1,0.1-0.1,0.2-0.2c0-0.1,0-0.4-0.1-0.9c0-0.1-0.2-1-0.6-2.7c-0.3-1.8-0.6-2.7-0.9-4.3c-0.2-0.9-0.3-1.7-0.6-2.5 c-0.2-1.3-0.3-1.7-0.4-1.8c-0.1-0.1-0.2-0.1-0.3-0.2C70.2,6.5,69.8,6.5,69.1,6.6z"/><path fill="#030" d="M81.1,18.4c0-0.2,0-0.4,0-0.7c0.3,0,0.6,0,0.7-0.1c0.1,0,0.1-0.1,0.2-0.2c0.1-0.1,0.1-0.3,0.3-0.8 c0.1-0.2,0.3-1.1,0.9-2.8c0.7-2.2,1-3.2,1.9-5.5c0.1-0.4,0.6-1.8,1.3-3.9c0.2,0,0.3,0,0.6,0c1.2,3.9,1.8,5.9,2.6,9.9 c0.3,1.6,0.6,2.7,0.7,3c0.1,0.2,0.1,0.4,0.2,0.4c0.1,0.1,0.3,0.1,0.7,0.2c0,0.2,0,0.4-0.1,0.7c-0.7-0.1-1.1-0.2-1.4-0.2 c-0.9,0-1.2,0-2.1,0c0-0.2,0-0.4,0-0.7c0.4,0,0.8,0,0.9,0c0.1,0,0.2-0.1,0.2-0.1c0-0.1,0.1-0.1,0.1-0.2s0-0.3,0-0.6 c-0.2-1.2-0.3-1.8-0.7-3c-1.7-0.1-2.5-0.1-4.1-0.1c-0.3,1-0.4,1.4-0.8,2.5c-0.1,0.4-0.2,0.8-0.2,1c0,0.1,0,0.1,0.1,0.2 c0,0.1,0.1,0.1,0.2,0.2c0.1,0,0.4,0.1,0.9,0.1c0,0.2,0,0.4,0,0.7c-0.8-0.1-1.3-0.1-1.7-0.1C82.1,18.3,81.6,18.3,81.1,18.4z M84.2,12.9c1.4,0,2.2,0,3.7,0.1c-0.6-2.3-0.9-3.6-1.6-5.9C85.4,9.5,84.9,10.6,84.2,12.9z"/><path fill="#030" d="M93.7,5.7c0-0.2,0.1-0.3,0.1-0.7c0.9,0.1,1.6,0.2,2.1,0.3c0.4,0,1.1,0.1,2.2,0.2s1.8,0.2,2.2,0.3 c0.4,0.1,0.8,0.1,1.1,0.2c0.3,0.1,0.7,0.1,0.9,0.2c-0.3,0.6-0.7,1.4-1.1,2.8c-0.2,0-0.3-0.1-0.4-0.1c0.2-0.8,0.3-1.7,0.3-1.8 c-0.2-0.1-0.7-0.3-1.1-0.4c-0.4-0.1-0.9-0.2-1.4-0.3s-1.1-0.1-1.8-0.1c-0.1,0.3-0.2,0.7-0.2,1c0,0.2-0.2,0.9-0.4,2.2 c-0.2,0.9-0.2,1.2-0.4,2.1c0.6,0.1,1,0.2,1.4,0.2c0.7,0.1,1.1,0.1,1.6,0.1c0.1,0,0.2,0,0.3-0.1c0.1-0.1,0.2-0.3,0.3-0.8 c0.1-0.2,0.1-0.3,0.2-0.6c0.2,0,0.3,0,0.4,0.1c-0.2,0.9-0.4,1.3-0.7,2.1c-0.2,0.9-0.3,1.4-0.6,2.3c-0.2,0-0.2,0-0.4-0.1 c0-0.2,0.1-0.3,0.1-0.7c0.1-0.7,0.2-1.1,0.2-1.1c0-0.1-0.1-0.2-0.2-0.2c-0.2-0.1-0.9-0.3-1.9-0.4c-0.3,0-0.7-0.1-1.1-0.1 c-0.1,0.8-0.2,1.1-0.4,1.9c-0.2,0.9-0.3,1.8-0.4,2.6c-0.1,0.6-0.1,1-0.1,1.1s0.1,0.2,0.2,0.3c0.1,0.1,0.4,0.1,0.9,0.2 c-0.1,0.2-0.1,0.3-0.1,0.7c-0.6-0.1-1.1-0.2-1.7-0.3c-0.4-0.1-1.2-0.1-2.2-0.2c0-0.2,0.1-0.3,0.1-0.7c0.6,0,0.9,0,1,0 c0.1,0,0.2-0.1,0.2-0.2c0.1-0.1,0.1-0.4,0.2-0.9c0-0.1,0.2-1,0.6-2.8s0.4-2.7,0.8-4.5c0.1-0.9,0.3-1.8,0.4-2.6 C95,6.6,95,6.1,95,6c0-0.1-0.1-0.2-0.2-0.3C94.7,5.8,94.3,5.8,93.7,5.7z"/><path fill="#030" d="M102.8,9.7c-0.2,0-0.3-0.1-0.4-0.1c0.4-1.6,0.8-2.6,0.9-3.1c0.6,0.1,1.6,0.3,2.8,0.7 c1,0.2,1.7,0.4,2,0.6c0.3,0.1,1.2,0.3,2.6,0.7c1,0.2,1.7,0.4,2.1,0.6c-0.4,0.7-0.9,1.7-1.6,3c-0.2-0.1-0.3-0.1-0.4-0.1 c0.1-0.3,0.2-0.6,0.3-0.9c0.2-0.6,0.3-0.9,0.3-0.9c0-0.1,0-0.1,0-0.2c0,0,0-0.1-0.1-0.1c-0.1,0-0.3-0.1-0.8-0.3 c-0.4-0.1-0.8-0.3-1.1-0.3c-0.3-0.1-0.6-0.1-1-0.2c-0.3,0.6-0.7,1.3-1,2.5c-0.9,2.2-1.3,3.2-2.2,5.5c-0.3,0.9-0.7,1.7-1,2.5 c-0.2,0.6-0.3,1-0.3,1.1c0,0.1,0,0.2,0.1,0.3c0.1,0.1,0.3,0.2,0.9,0.3c-0.1,0.2-0.1,0.3-0.2,0.6c-0.8-0.2-1.3-0.4-1.7-0.6 c-0.1,0-0.8-0.2-2-0.4c0.1-0.2,0.1-0.3,0.2-0.6c0.6,0.1,0.9,0.1,1,0.1c0.1,0,0.2-0.1,0.3-0.1c0.1-0.1,0.2-0.4,0.4-0.9 c0-0.1,0.4-1,1-2.7c0.8-2.2,1.2-3.2,2.1-5.5c0.1-0.2,0.2-0.6,0.3-0.9c0.2-0.7,0.3-1,0.6-1.6c-0.4-0.1-0.7-0.2-1.2-0.3 c-0.7-0.1-1.2-0.2-1.7-0.3c-0.1,0-0.2,0-0.3,0.1c-0.1,0-0.3,0.3-0.6,0.9C103.1,9.1,103,9.4,102.8,9.7z"/><path fill="#030" d="M67,68.4c0.1-0.2,0.1-0.3,0.2-0.6c0.8,0.3,1.3,0.6,1.8,0.7c0.3,0.1,0.7,0.2,1,0.3s0.6,0.1,0.9,0.2 c0.1,0,0.2,0,0.3,0.1c0.6,0.2,1.1,0.4,1.3,0.8c0.3,0.3,0.4,0.8,0.6,1.3c0.1,0.6,0,1.2-0.1,1.8s-0.3,1.1-0.7,1.7 c-0.3,0.6-0.7,1-1.2,1.2c-0.4,0.3-0.9,0.4-1.3,0.6c-0.3,0-0.7,0-1-0.1c-0.3-0.1-0.6-0.2-0.9-0.4c0-0.3,0-0.4,0.1-0.8 c0.3,0.2,0.7,0.4,0.9,0.4c0.3,0.1,0.7,0.1,1-0.1c0.3-0.1,0.7-0.4,1-0.9c0.3-0.4,0.6-1,0.7-1.6c0.1-0.6,0.2-1.1,0.2-1.6 c0-0.4-0.1-0.9-0.3-1.2c-0.2-0.3-0.6-0.6-1-0.7c-0.3-0.1-0.8-0.1-1.3,0c-0.2,0.7-0.7,1.8-1.1,3.2c-0.7,2-1,2.9-1.7,4.9 c-0.3,0.9-0.6,1.8-0.9,2.6c-0.2,0.7-0.3,1-0.2,1.1c0.1,0.1,0.1,0.2,0.2,0.3c0.1,0.1,0.4,0.2,1,0.4c-0.1,0.2-0.1,0.3-0.2,0.7 c-0.9-0.3-1.6-0.6-2-0.8c-0.2-0.1-1-0.3-2.3-0.8c0.1-0.2,0.1-0.3,0.2-0.6c0.6,0.2,0.9,0.3,1.1,0.3c0.1,0,0.2,0,0.3-0.1 c0.1-0.1,0.2-0.4,0.4-0.9c0-0.1,0.4-1,1-2.7c0.7-1.8,1-2.7,1.7-4.5c0.3-0.9,0.7-1.8,0.9-2.6c0.2-0.6,0.3-1,0.3-1.1 c0-0.1,0-0.2-0.1-0.3C67.8,68.7,67.4,68.5,67,68.4z"/><path fill="#030" d="M75.8,84.4c0,0.2,0,0.4-0.1,0.7c-1.1-0.2-1.8-0.3-2.1-0.4c-1-0.1-1.4-0.2-2.3-0.4 c0.1-0.2,0.1-0.3,0.1-0.7c0.6,0.1,1,0.1,1.1,0.1s0.2-0.1,0.3-0.2c0.1-0.1,0.2-0.4,0.3-1c0-0.1,0.2-1.1,0.6-2.9 c0.3-1.9,0.6-2.8,0.9-4.7c0.2-0.9,0.3-1.8,0.4-2.7c0.1-0.7,0.1-1,0.1-1.1s-0.1-0.2-0.2-0.3s-0.3-0.1-0.8-0.3 c0.1-0.2,0.1-0.3,0.1-0.7c0.8,0.2,1.3,0.3,1.7,0.4c0.4,0.1,1,0.1,1.8,0.2c0,0.2,0,0.4-0.1,0.7c-0.4,0-0.8-0.1-0.9,0 c-0.1,0-0.2,0.1-0.2,0.2c0,0.1,0,0.4-0.1,1c0,0.1-0.2,1.1-0.6,2.9c-0.3,1.9-0.4,2.9-0.8,4.8c-0.1,0.9-0.3,1.8-0.4,2.7 c-0.1,0.7-0.1,1-0.1,1.2c0,0.1,0.1,0.2,0.2,0.3C74.9,84.2,75.2,84.3,75.8,84.4z"/><path fill="#030" d="M87,83.9c-0.1,0.4-0.1,0.6-0.2,1c-0.6,0.4-1.2,0.8-1.8,0.9C84.5,86,83.8,86,83.1,86 c-0.8,0-1.6-0.2-2.2-0.6c-0.7-0.3-1.2-0.8-1.7-1.3c-0.4-0.6-0.8-1.1-1.1-1.8c-0.2-0.7-0.4-1.3-0.4-2.1c-0.1-0.8,0-1.6,0.1-2.5 c0.2-2.2,1-3.9,2-5.3c1-1.3,2.2-2,3.8-2c0.3,0,0.7,0,1,0.1s0.7,0.2,1.1,0.4c0.4,0.2,0.8,0.3,0.8,0.3c-0.1,0.3-0.1,0.8-0.1,1.1 c0,0.6-0.1,1.3,0,2.1c-0.1,0-0.2,0-0.4,0c0-0.4,0-0.8,0-1.2c-0.1-0.7-0.3-1.2-0.7-1.6c-0.3-0.3-1-0.4-1.8-0.4 c-0.6,0-1,0.1-1.4,0.3c-0.4,0.2-0.8,0.6-1.1,1.1c-0.3,0.4-0.7,1.1-0.9,1.9c-0.2,0.8-0.4,1.8-0.6,3c-0.2,2.1,0.1,3.8,0.9,5.1 c0.8,1.3,2.1,2.1,3.7,2.1c0.7,0,1.3-0.1,2-0.4c0.4-0.2,0.8-0.4,1.2-0.9C86.9,83.7,86.9,83.8,87,83.9z"/><path fill="#030" d="M92.4,84.6c0,0.2,0,0.4,0.1,0.7c-0.9,0.1-1.4,0.1-2.3,0.2c-0.1,0-0.9,0.1-2.2,0.2c0-0.2,0-0.4,0-0.7 c0.6,0,1-0.1,1.1-0.2c0.1-0.1,0.2-0.1,0.2-0.2s0.1-0.4,0-1c0-0.1-0.1-1.1-0.2-3c-0.2-1.9-0.2-2.9-0.4-4.9 c-0.1-1-0.2-1.9-0.2-2.8c-0.1-0.7-0.1-1-0.2-1.1c-0.1-0.1-0.1-0.2-0.2-0.2c-0.1,0-0.4-0.1-0.9,0c0-0.2,0-0.4,0-0.7 c0.8,0,1.3,0,1.8-0.1c0.4,0,1-0.1,1.7-0.3c0,0.2,0,0.4,0.1,0.7c-0.4,0.1-0.8,0.1-0.9,0.2c-0.1,0.1-0.1,0.1-0.2,0.2 c0,0.1,0,0.4,0,1c0,0.1,0.1,1.1,0.3,3c0.1,0.9,0.1,1.3,0.2,2.1c0.2-0.2,0.4-0.7,0.8-1.2c0.2-0.6,0.4-0.9,0.7-1.4 c0.4-1,0.7-1.6,1-2.6c0.3-1,0.6-1.7,0.7-1.9c0-0.2-0.1-0.4-0.1-0.7c0.4-0.1,0.8-0.1,1.1-0.2c0.3-0.1,0.6-0.1,0.9-0.2 c0.1,0.2,0.1,0.4,0.1,0.7c-0.3,0.1-0.7,0.2-0.8,0.2c-0.1,0.1-0.2,0.2-0.3,0.4c-0.2,0.3-0.4,1-0.9,2c-0.7,1.7-1.1,2.6-2,4.2 c1.9,2.1,3,3.1,5.2,5.1c0.9,0.8,1.4,1.2,1.6,1.2c0.1,0.1,0.3,0.1,0.7,0c0.1,0.2,0.1,0.3,0.1,0.7c-0.6,0.1-0.9,0.1-1,0.2 c-0.2,0-0.6,0.1-1.2,0.3c-0.1-0.1-0.7-0.6-1.6-1.4c-0.3-0.3-0.6-0.6-1-0.9c-1.7-1.6-2.5-2.3-3.9-4c-0.1,0.1-0.1,0.1-0.1,0.1 c0.1,0.8,0.1,1.2,0.2,2c0.1,1,0.2,1.9,0.3,2.8c0.1,0.7,0.1,1,0.2,1.2c0.1,0.1,0.2,0.2,0.3,0.2C91.4,84.7,91.8,84.7,92.4,84.6z"/><path fill="#030" d="M99.4,83.3c-0.1-0.7-0.3-1.8-0.7-3.2c0.2,0,0.3-0.1,0.4-0.1c0.3,1,0.4,1.6,0.6,1.8 c0.1,0.1,0.3,0.3,0.6,0.4c0.2,0.1,0.7,0.2,1,0.3c0.4,0,0.8,0,1.1-0.1c0.6-0.1,0.9-0.4,1.2-0.9c0.3-0.4,0.4-1,0.4-1.6 s-0.1-1.1-0.3-1.7c-0.1-0.4-0.3-0.8-0.6-1.1c-0.2-0.3-0.4-0.4-0.7-0.7c-0.2-0.1-0.6-0.2-0.8-0.2s-0.6,0.1-1.1,0.1 s-1,0.1-1.3,0.1c-0.6-0.1-0.9-0.2-1.2-0.4c-0.3-0.2-0.6-0.6-0.8-1c-0.2-0.4-0.4-0.9-0.6-1.4c-0.2-0.8-0.2-1.6-0.2-2.3 c0.1-0.8,0.2-1.4,0.6-2c0.3-0.6,0.8-0.9,1.3-1.1c0.3-0.1,0.7-0.1,1.1-0.1s0.9,0.1,1.3,0.2c0.1,0.4,0.2,0.9,0.3,1.2 c0.1,0.3,0.3,0.9,0.6,1.7c-0.1,0.1-0.2,0.1-0.4,0.1c-0.4-1-0.7-1.6-0.7-1.7c-0.2-0.2-0.4-0.3-0.7-0.6c-0.6-0.2-1-0.3-1.4-0.1 c-0.6,0.2-0.9,0.7-1.1,1.3c-0.1,0.7-0.1,1.6,0.1,2.5c0.1,0.6,0.3,1,0.6,1.3c0.2,0.2,0.6,0.4,0.9,0.6c0.2,0.1,0.7,0.1,1.2,0 c0.6-0.1,1.1-0.1,1.6-0.1c0.4,0,0.9,0.1,1.1,0.3s0.6,0.4,0.9,0.8c0.3,0.3,0.6,0.8,0.8,1.3c0.6,1.3,0.6,2.7,0.1,3.9 c-0.4,1.2-1.3,2.1-2.7,2.6C101.4,83.7,100.4,83.7,99.4,83.3z"/></g><g><g><g><text fill="#004E27" font-family="'MyriadPro-Regular'" font-size="91.254" transform="matrix(0.8202 0 0 1 21.1885 76.5875)">T</text><text fill="#004E27" font-family="'MyriadPro-Regular'" font-size="60.836" transform="matrix(1.2303 0 0 1 58.3855 63.9128)">O</text><text fill="#004E27" font-family="'MyriadPro-Regular'" font-size="91.254" transform="matrix(0.8202 0 0 1 109.9541 76.5875)">P</text><text fill="#FC0" font-family="'MyriadPro-Regular'" font-size="63.898" transform="matrix(0.7141 0 0 1 73.7394 64.6906)">5</text><g><g><path fill="#FC0" d="M63.4,20.5c-0.1-0.2-0.1-0.2-0.2-0.4c0.1-0.2,0.2-0.6,0.3-0.7c-0.1-0.4-0.3-1-0.7-1.7 c-0.6-1.2-0.9-2.1-1.1-2.6c-0.7-1.4-1-2.2-1.7-3.7c-0.2-0.6-0.6-1.2-1-2c-0.2-0.4-0.4-0.8-0.6-0.9s-0.1-0.1-0.2-0.1 c-0.2,0-0.6,0-1.1,0.2c-0.1-0.2-0.1-0.3-0.2-0.6c0.8-0.2,1.4-0.4,2.1-0.6C59.5,7.5,60.2,7.3,61,7c0.8-0.2,1.4-0.4,1.9-0.6 c1.3-0.3,2.5-0.4,3.3-0.2c0.9,0.2,1.8,0.7,2.6,1.6c0.8,0.8,1.3,1.9,1.7,3.2c0.2,1,0.3,1.9,0.3,2.7c0,0.9-0.1,1.7-0.3,2.3 c-0.2,0.7-0.4,1.2-0.8,1.7c-0.3,0.4-0.7,0.8-1,1.1c-0.4,0.3-1,0.6-1.8,0.7c-0.2,0.1-0.7,0.1-1.1,0.2 c-0.6,0.1-1,0.2-1.1,0.3C64.5,20.1,64.1,20.3,63.4,20.5z M65,18.9c0.6,0,1-0.1,1.6-0.2c0.6-0.1,1-0.3,1.3-0.6 c0.3-0.2,0.7-0.6,0.9-0.8c0.2-0.3,0.4-0.8,0.6-1.2c0.1-0.6,0.2-1.2,0.1-2s-0.2-1.6-0.4-2.3c-0.3-1.1-0.8-2.1-1.3-2.9 c-0.6-0.8-1.3-1.2-2.1-1.6c-0.9-0.2-1.9-0.2-3.1,0.1c-0.7,0.2-1.3,0.4-1.9,0.8c0.1,0.3,0.3,0.8,0.7,1.6 c0.2,0.6,0.3,0.8,0.6,1.3c0.6,1.4,0.9,2.1,1.6,3.6c0.4,1.1,0.7,1.7,1.2,2.8C64.4,17.7,64.6,18.3,65,18.9z"/><path fill="#FC0" d="M70.2,5.5c-0.1-0.2-0.1-0.3-0.1-0.6c0.2,0,0.6-0.1,1-0.1c0.6-0.2,0.9-0.2,1.6-0.3 c0.3,0,0.8-0.1,1.4-0.2C75,4.1,75.4,4,75.6,4c1.1-0.1,1.9-0.1,2.3,0.1c0.6,0.2,0.9,0.6,1.2,1c0.3,0.4,0.4,1,0.6,1.6 c0,0.6,0,1.1-0.2,1.7c-0.2,0.6-0.4,1-0.9,1.4c-0.4,0.3-0.9,0.7-1.6,1c0.1,0.2,0.6,0.7,1.1,1.4c0.9,1.2,1.3,1.8,2.1,3 c0.6,0.9,0.9,1.3,1,1.4l0.1,0.1c0.1,0,0.2,0,0.4,0c0,0.2,0,0.3,0,0.7c-0.3,0-0.7,0-0.9,0s-0.6,0-0.9,0.1 c-0.3-0.4-0.9-1.3-1.8-2.7c-0.4-0.8-0.9-1.3-1.3-1.8c-0.7-0.8-1.2-1.6-1.9-2.1c0-0.1,0-0.2,0-0.3c0.2,0,0.4,0,0.6,0 c0.9-0.1,1.6-0.4,2-1C78,9.1,78.1,8.4,78,7.5c-0.1-0.8-0.3-1.4-0.9-1.8c-0.4-0.4-1.2-0.6-2.1-0.4c-0.6,0.1-1.1,0.2-1.6,0.6 c0,0.3,0.1,0.7,0.1,1c0,0.1,0.1,1,0.4,2.8c0.3,1.7,0.4,2.6,0.8,4.2c0.1,0.9,0.3,1.7,0.6,2.6c0.1,0.6,0.2,1,0.3,1.1 c0.1,0.1,0.2,0.2,0.3,0.2c0.1,0,0.4,0,1,0c0,0.2,0.1,0.3,0.1,0.6c-0.7,0-1.2,0.1-1.7,0.1s-1.1,0.2-2.1,0.3 c-0.1-0.2-0.1-0.3-0.1-0.6c0.6-0.1,0.8-0.2,0.9-0.2c0.1-0.1,0.1-0.1,0.2-0.2c0-0.1,0-0.4-0.1-0.9c0-0.1-0.2-1-0.6-2.7 c-0.3-1.8-0.6-2.7-0.9-4.3c-0.2-0.9-0.3-1.7-0.6-2.5C72,6,71.9,5.7,71.8,5.6c-0.1-0.1-0.2-0.1-0.3-0.2 C71.3,5.4,70.9,5.4,70.2,5.5z"/><path fill="#FC0" d="M82.2,17.3c0-0.2,0-0.4,0-0.7c0.3,0,0.6,0,0.7-0.1c0.1,0,0.1-0.1,0.2-0.2c0.1-0.1,0.1-0.3,0.3-0.8 c0.1-0.2,0.3-1.1,0.9-2.8c0.7-2.2,1-3.2,1.9-5.5c0.1-0.4,0.6-1.8,1.3-3.9c0.2,0,0.3,0,0.6,0c1.2,3.9,1.8,5.9,2.6,9.9 c0.3,1.6,0.6,2.7,0.7,3c0.1,0.2,0.1,0.4,0.2,0.4c0.1,0.1,0.3,0.1,0.7,0.2c0,0.2,0,0.4-0.1,0.7c-0.7-0.1-1.1-0.2-1.4-0.2 c-0.9,0-1.2,0-2.1,0c0-0.2,0-0.4,0-0.7c0.4,0,0.8,0,0.9,0c0.1,0,0.2-0.1,0.2-0.1c0-0.1,0.1-0.1,0.1-0.2s0-0.3,0-0.6 c-0.2-1.2-0.3-1.8-0.7-3c-1.7-0.1-2.5-0.1-4.1-0.1c-0.3,1-0.4,1.4-0.8,2.5c-0.1,0.4-0.2,0.8-0.2,1c0,0.1,0,0.1,0.1,0.2 c0,0.1,0.1,0.1,0.2,0.2c0.1,0,0.4,0.1,0.9,0.1c0,0.2,0,0.4,0,0.7c-0.8-0.1-1.3-0.1-1.7-0.1C83.2,17.2,82.7,17.2,82.2,17.3z M85.4,11.8c1.4,0,2.2,0,3.7,0.1c-0.6-2.3-0.9-3.6-1.6-5.9C86.5,8.4,86,9.5,85.4,11.8z"/><path fill="#FC0" d="M94.8,4.6c0-0.2,0.1-0.3,0.1-0.7c0.9,0.1,1.6,0.2,2.1,0.3c0.4,0,1.1,0.1,2.2,0.2 c1.1,0.1,1.8,0.2,2.2,0.3c0.4,0.1,0.8,0.1,1.1,0.2c0.3,0.1,0.7,0.1,0.9,0.2c-0.3,0.6-0.7,1.4-1.1,2.8 c-0.2,0-0.3-0.1-0.4-0.1c0.2-0.8,0.3-1.7,0.3-1.8c-0.2-0.1-0.7-0.3-1.1-0.4c-0.4-0.1-0.9-0.2-1.4-0.3 c-0.6-0.1-1.1-0.1-1.8-0.1c-0.1,0.3-0.2,0.7-0.2,1c0,0.2-0.2,0.9-0.4,2.2c-0.2,0.9-0.2,1.2-0.4,2.1c0.6,0.1,1,0.2,1.4,0.2 c0.7,0.1,1.1,0.1,1.6,0.1c0.1,0,0.2,0,0.3-0.1c0.1-0.1,0.2-0.3,0.3-0.8c0.1-0.2,0.1-0.3,0.2-0.6c0.2,0,0.3,0,0.4,0.1 c-0.2,0.9-0.4,1.3-0.7,2.1c-0.2,0.9-0.3,1.4-0.6,2.3c-0.2,0-0.2,0-0.4-0.1c0-0.2,0.1-0.3,0.1-0.7c0.1-0.7,0.2-1.1,0.2-1.1 c0-0.1-0.1-0.2-0.2-0.2c-0.2-0.1-0.9-0.3-1.9-0.4c-0.3,0-0.7-0.1-1.1-0.1c-0.1,0.8-0.2,1.1-0.4,1.9 c-0.2,0.9-0.3,1.8-0.4,2.6c-0.1,0.6-0.1,1-0.1,1.1c0,0.1,0.1,0.2,0.2,0.3c0.1,0.1,0.4,0.1,0.9,0.2 c-0.1,0.2-0.1,0.3-0.1,0.7c-0.6-0.1-1.1-0.2-1.7-0.3c-0.4-0.1-1.2-0.1-2.2-0.2c0-0.2,0.1-0.3,0.1-0.7c0.6,0,0.9,0,1,0 c0.1,0,0.2-0.1,0.2-0.2c0.1-0.1,0.1-0.4,0.2-0.9c0-0.1,0.2-1,0.6-2.8s0.4-2.7,0.8-4.5c0.1-0.9,0.3-1.8,0.4-2.6 c0.1-0.6,0.1-1,0.1-1.1c0-0.1-0.1-0.2-0.2-0.3C95.8,4.7,95.4,4.7,94.8,4.6z"/><path fill="#FC0" d="M104,8.6c-0.2,0-0.3-0.1-0.4-0.1c0.4-1.6,0.8-2.6,0.9-3.1c0.6,0.1,1.6,0.3,2.8,0.7 c1,0.2,1.7,0.4,2,0.6s1.2,0.3,2.6,0.7c1,0.2,1.7,0.4,2.1,0.6c-0.4,0.7-0.9,1.7-1.6,3c-0.2-0.1-0.3-0.1-0.4-0.1 c0.1-0.3,0.2-0.6,0.3-0.9c0.2-0.6,0.3-0.9,0.3-0.9c0-0.1,0-0.1,0-0.2c0,0,0-0.1-0.1-0.1c-0.1,0-0.3-0.1-0.8-0.3 c-0.4-0.1-0.8-0.3-1.1-0.3c-0.3-0.1-0.6-0.1-1-0.2c-0.3,0.6-0.7,1.3-1,2.5c-0.9,2.2-1.3,3.2-2.2,5.5 c-0.3,0.9-0.7,1.7-1,2.5c-0.2,0.6-0.3,1-0.3,1.1s0,0.2,0.1,0.3c0.1,0.1,0.3,0.2,0.9,0.3c-0.1,0.2-0.1,0.3-0.2,0.6 c-0.8-0.2-1.3-0.4-1.7-0.6c-0.1,0-0.8-0.2-2-0.4c0.1-0.2,0.1-0.3,0.2-0.6c0.6,0.1,0.9,0.1,1,0.1c0.1,0,0.2-0.1,0.3-0.1 c0.1-0.1,0.2-0.4,0.4-0.9c0-0.1,0.4-1,1-2.7c0.8-2.2,1.2-3.2,2.1-5.5c0.1-0.2,0.2-0.6,0.3-0.9c0.2-0.7,0.3-1,0.6-1.6 c-0.4-0.1-0.7-0.2-1.2-0.3c-0.7-0.1-1.2-0.2-1.7-0.3c-0.1,0-0.2,0-0.3,0.1c-0.1,0-0.3,0.3-0.6,0.9 C104.2,8,104.1,8.3,104,8.6z"/></g></g><g><g><path fill="#FC0" d="M68.1,67.3c0.1-0.2,0.1-0.3,0.2-0.6c0.8,0.3,1.3,0.6,1.8,0.7c0.3,0.1,0.7,0.2,1,0.3 s0.6,0.1,0.9,0.2c0.1,0,0.2,0,0.3,0.1c0.6,0.2,1.1,0.4,1.3,0.8c0.3,0.3,0.4,0.8,0.6,1.3c0.1,0.6,0,1.2-0.1,1.8 s-0.3,1.1-0.7,1.7c-0.3,0.6-0.7,1-1.2,1.2c-0.4,0.3-0.9,0.4-1.3,0.6c-0.3,0-0.7,0-1-0.1c-0.3-0.1-0.6-0.2-0.9-0.4 c0-0.3,0-0.4,0.1-0.8c0.3,0.2,0.7,0.4,0.9,0.4c0.3,0.1,0.7,0.1,1-0.1c0.3-0.1,0.7-0.4,1-0.9c0.3-0.4,0.6-1,0.7-1.6 c0.1-0.6,0.2-1.1,0.2-1.6c0-0.6-0.1-0.9-0.3-1.2c-0.2-0.3-0.6-0.6-1-0.7c-0.3-0.1-0.8-0.1-1.3,0c-0.2,0.7-0.7,1.8-1.1,3.2 c-0.7,2-1,2.9-1.7,4.9c-0.3,0.9-0.6,1.8-0.9,2.6c-0.2,0.7-0.3,1-0.2,1.1c0.1,0.1,0.1,0.2,0.2,0.3c0.1,0.1,0.4,0.2,1,0.4 c-0.1,0.2-0.1,0.3-0.2,0.7c-0.9-0.3-1.6-0.6-2-0.8c-0.2-0.1-1-0.3-2.3-0.8c0.1-0.2,0.1-0.3,0.2-0.6 c0.6,0.2,0.9,0.3,1.1,0.3c0.1,0,0.2,0,0.3-0.1c0.1-0.1,0.2-0.4,0.4-0.9c0-0.1,0.4-1,1-2.7c0.7-1.8,1-2.7,1.7-4.5 c0.3-0.9,0.7-1.8,0.9-2.6c0.2-0.6,0.3-1,0.3-1.1c0-0.1,0-0.2-0.1-0.3C68.9,67.6,68.5,67.4,68.1,67.3z"/><path fill="#FC0" d="M76.9,83.3c0,0.2,0,0.4-0.1,0.7c-1.1-0.2-1.8-0.3-2.1-0.4c-1-0.1-1.4-0.2-2.3-0.4 c0.1-0.2,0.1-0.3,0.1-0.7c0.6,0.1,1,0.1,1.1,0.1s0.2-0.1,0.3-0.2c0.1-0.1,0.2-0.4,0.3-1c0-0.1,0.2-1.1,0.6-2.9 c0.3-1.9,0.6-2.8,0.9-4.7c0.2-0.9,0.3-1.8,0.4-2.7c0.1-0.7,0.1-1,0.1-1.1s-0.1-0.2-0.2-0.3c-0.1-0.1-0.3-0.1-0.8-0.3 c0.1-0.2,0.1-0.3,0.1-0.7c0.8,0.2,1.3,0.3,1.7,0.4c0.4,0.1,1,0.1,1.8,0.2c0,0.2,0,0.4-0.1,0.7c-0.4,0-0.8-0.1-0.9,0 c-0.1,0-0.2,0.1-0.2,0.2c0,0.1,0,0.4-0.1,1c0,0.1-0.2,1.1-0.6,2.9c-0.3,1.9-0.4,2.9-0.8,4.8c-0.1,0.9-0.3,1.8-0.4,2.7 c-0.1,0.7-0.1,1-0.1,1.2c0,0.1,0.1,0.2,0.2,0.3C76,83.1,76.3,83.2,76.9,83.3z"/><path fill="#FC0" d="M88.1,82.8c-0.1,0.4-0.1,0.6-0.2,1c-0.6,0.4-1.2,0.8-1.8,0.9c-0.6,0.2-1.2,0.2-1.9,0.2 c-0.8,0-1.6-0.2-2.2-0.6c-0.7-0.3-1.2-0.8-1.7-1.3c-0.4-0.6-0.8-1.1-1.1-1.8c-0.2-0.7-0.4-1.3-0.4-2.1 c-0.1-0.8,0-1.6,0.1-2.5c0.2-2.2,1-3.9,2-5.3c1-1.3,2.2-2,3.8-2c0.3,0,0.7,0,1,0.1c0.3,0.1,0.7,0.2,1.1,0.4 c0.4,0.2,0.8,0.3,0.8,0.3c-0.1,0.3-0.1,0.8-0.1,1.1c0,0.6-0.1,1.3,0,2.1c-0.1,0-0.2,0-0.4,0c0-0.4,0-0.8,0-1.2 c-0.1-0.7-0.3-1.2-0.7-1.6c-0.3-0.3-1-0.4-1.8-0.4c-0.6,0-1,0.1-1.4,0.3c-0.4,0.2-0.8,0.6-1.1,1.1 c-0.3,0.4-0.7,1.1-0.9,1.9c-0.2,0.8-0.4,1.8-0.6,3c-0.2,2.1,0.1,3.8,0.9,5.1c0.8,1.3,2.1,2.1,3.7,2.1c0.7,0,1.3-0.1,2-0.4 c0.4-0.2,0.8-0.4,1.2-0.9C88,82.5,88,82.7,88.1,82.8z"/><path fill="#FC0" d="M93.5,83.4c0,0.2,0,0.4,0.1,0.7c-0.9,0.1-1.4,0.1-2.3,0.2c-0.1,0-0.9,0.1-2.2,0.2 c0-0.2,0-0.4,0-0.7c0.6,0,1-0.1,1.1-0.2c0.1-0.1,0.2-0.1,0.2-0.2s0.1-0.4,0-1c0-0.1-0.1-1.1-0.2-3 c-0.2-1.9-0.2-2.9-0.4-4.9c-0.1-1-0.2-1.9-0.2-2.8c-0.1-0.7-0.1-1-0.2-1.1c-0.1-0.1-0.1-0.2-0.2-0.2c-0.1,0-0.4-0.1-0.9,0 c0-0.2,0-0.4,0-0.7c0.8,0,1.3,0,1.8-0.1c0.4,0,1-0.1,1.7-0.3c0,0.2,0,0.4,0.1,0.7c-0.4,0.1-0.8,0.1-0.9,0.2 c-0.1,0.1-0.1,0.1-0.2,0.2c0,0.1,0,0.4,0,1c0,0.1,0.1,1.1,0.3,3c0.1,0.9,0.1,1.3,0.2,2.1c0.2-0.2,0.4-0.7,0.8-1.2 c0.2-0.6,0.4-0.9,0.7-1.4c0.4-1,0.7-1.6,1-2.6c0.3-1,0.6-1.7,0.7-1.9c0-0.2-0.1-0.4-0.1-0.7c0.4-0.1,0.8-0.1,1.1-0.2 c0.3-0.1,0.6-0.1,0.9-0.2c0.1,0.2,0.1,0.4,0.1,0.7c-0.3,0.1-0.7,0.2-0.8,0.2c-0.1,0.1-0.2,0.2-0.3,0.4 c-0.2,0.3-0.4,1-0.9,2c-0.7,1.7-1.1,2.6-2,4.2c1.9,2.1,3,3.1,5.2,5.1c0.9,0.8,1.4,1.2,1.6,1.2c0.1,0.1,0.3,0.1,0.7,0 c0.1,0.2,0.1,0.3,0.1,0.7c-0.6,0.1-0.9,0.1-1,0.2c-0.2,0-0.6,0.1-1.2,0.3c-0.1-0.1-0.7-0.6-1.6-1.4c-0.3-0.3-0.6-0.6-1-0.9 c-1.7-1.6-2.5-2.3-3.9-4C91,77.2,91,77.2,91,77.2c0.1,0.8,0.1,1.2,0.2,2c0.1,1,0.2,1.9,0.3,2.8c0.1,0.7,0.1,1,0.2,1.2 c0.1,0.1,0.2,0.2,0.3,0.2C92.5,83.6,92.9,83.6,93.5,83.4z"/><path fill="#FC0" d="M100.5,82.2c-0.1-0.7-0.3-1.8-0.7-3.2c0.2,0,0.3-0.1,0.4-0.1c0.3,1,0.4,1.6,0.6,1.8 c0.1,0.1,0.3,0.3,0.6,0.4c0.2,0.1,0.7,0.2,1,0.3c0.4,0,0.8,0,1.1-0.1c0.6-0.1,0.9-0.4,1.2-0.9c0.3-0.4,0.4-1,0.4-1.6 s-0.1-1.1-0.3-1.7c-0.1-0.4-0.3-0.8-0.6-1.1c-0.2-0.3-0.4-0.4-0.7-0.7c-0.2-0.1-0.6-0.2-0.8-0.2s-0.6,0.1-1.1,0.1 s-1,0.1-1.3,0.1c-0.6-0.1-0.9-0.2-1.2-0.4c-0.3-0.2-0.6-0.6-0.8-1c-0.2-0.4-0.4-0.9-0.6-1.4c-0.2-0.8-0.2-1.6-0.2-2.3 c0.1-0.8,0.2-1.4,0.6-2c0.3-0.6,0.8-0.9,1.3-1.1c0.3-0.1,0.7-0.1,1.1-0.1s0.9,0.1,1.3,0.2c0.1,0.4,0.2,0.9,0.3,1.2 c0.1,0.3,0.3,0.9,0.6,1.7c-0.1,0.1-0.2,0.1-0.4,0.1c-0.4-1-0.7-1.6-0.7-1.7c-0.2-0.2-0.4-0.3-0.7-0.6 c-0.6-0.2-1-0.3-1.4-0.1c-0.6,0.2-0.9,0.7-1.1,1.3c-0.1,0.7-0.1,1.6,0.1,2.5c0.1,0.6,0.3,1,0.6,1.3 c0.2,0.2,0.6,0.4,0.9,0.6c0.2,0.1,0.7,0.1,1.2,0s1.1-0.1,1.6-0.1c0.4,0,0.9,0.1,1.1,0.3s0.6,0.4,0.9,0.8 c0.3,0.3,0.6,0.8,0.8,1.3c0.6,1.3,0.6,2.7,0.1,3.9c-0.4,1.2-1.3,2.1-2.7,2.6C102.5,82.5,101.5,82.5,100.5,82.2z"/></g></g></g></g></g></g></g></g></g></svg>