<?xml version="1.0" encoding="utf-8"?>
<!-- Generator: Adobe Illustrator 18.1.1, SVG Export Plug-In . SVG Version: 6.00 Build 0)  -->
<svg version="1.1" id="Layer_1" xmlns="http://www.w3.org/2000/svg" xmlns:xlink="http://www.w3.org/1999/xlink" x="0px" y="0px"
	 viewBox="0 0 650 90" enable-background="new 0 0 650 90" xml:space="preserve">
<g>
	
		<image overflow="visible" enable-background="new    " width="620" height="420" xlink:href="mm3.jpg"  transform="matrix(9.824479e-02 0 0 9.824479e-02 332.1153 24.2219)">
	</image>
	
		<image overflow="visible" enable-background="new    " width="620" height="420" xlink:href="jw5.jpg"  transform="matrix(9.980208e-02 0 0 9.824479e-02 386.0905 24.2219)">
	</image>
	
		<image overflow="visible" enable-background="new    " width="620" height="420" xlink:href="lw4.jpg"  transform="matrix(9.763541e-02 0 0 9.824479e-02 440.3515 24.2219)">
	</image>
	
		<image overflow="visible" enable-background="new    " width="620" height="420" xlink:href="kw1.jpg"  transform="matrix(9.763541e-02 0 0 9.824479e-02 495.051 24.3701)">
	</image>
	
		<image overflow="visible" enable-background="new    " width="620" height="420" xlink:href="bp5.jpg"  transform="matrix(9.763541e-02 0 0 9.824479e-02 549.9916 24.3701)">
	</image>
	<g>
		
			<image overflow="visible" opacity="0.68" enable-background="new    " width="704" height="115" xlink:href="C439AC1F664BC235.png"  transform="matrix(0.4585 0 0 0.4585 320.8207 19.3272)">
		</image>
		<g>
			<g>
				<g>
					<g>
						
							<image overflow="visible" opacity="0.47" enable-background="new    " width="565" height="74" xlink:href="CB8E42BFFB2B6C71.png"  transform="matrix(0.6771 0 0 0.6771 6.4283 19.9479)">
						</image>
						<g>
							<path fill="#FFFFFF" d="M386.3,24.3l-23,41.2h23.5 M331.8,65.7h-0.1V24.5h23.1L331.8,65.7z M332.2,65.1H12.5V24.3h319.7V65.1
								z"/>
						</g>
					</g>
					<path fill="#FFFFFF" d="M386.4,65.7h-0.1V24.3h23L386.4,65.7z M440.8,24.3l-23,41.2h23.5 M440.8,65.7V24.3"/>
					<path fill="#FFFFFF" d="M440.9,65.7h-0.1V24.3h23.1L440.9,65.7z M495.4,24.3l-23,41.2H496 M495.4,65.7V24.3"/>
					<path fill="#FFFFFF" d="M495.5,65.7h-0.1V24.3h23.1L495.5,65.7z M549.9,24.3l-23,41.2h23.5 M549.9,65.7V24.3"/>
					<path fill="#FFFFFF" d="M550.1,65.7h-0.1V24.3H573L550.1,65.7z M604.5,24.3l-23,41.2H605 M604.5,65.7V24.3"/>
				</g>
				<polygon fill="#FFFFFF" points="642.9,65.5 601.8,65.5 604.6,24.3 642.9,24.3 				"/>
				<rect x="7.4" y="24.3" fill="#FFFFFF" width="11.6" height="40.8"/>
			</g>
		</g>
	</g>
	<rect x="15.6" y="24.3" fill="#FFFFFF" width="316.1" height="41.1"/>
	<g>
		<g id="logo_1_">
			<g>
				<g>
					
						<text transform="matrix(0.8202 0 0 1 15.6308 59.9922)" fill="#003300" font-family="'MyriadPro-Regular'" font-size="41.8348">T</text>
					
						<text transform="matrix(1.2303 0 0 1 32.6843 54.1816)" fill="#003300" font-family="'MyriadPro-Regular'" font-size="27.8899">O</text>
					
						<text transform="matrix(0.8202 0 0 1 56.3247 59.9922)" fill="#003300" font-family="'MyriadPro-Regular'" font-size="41.8348">P</text>
					
						<text transform="matrix(0.7141 0 0 1 39.7228 54.5372)" fill="#003300" font-family="'MyriadPro-Regular'" font-size="29.2935">5</text>
					<path fill="#003300" d="M35,34.3c-0.1-0.1-0.1-0.1-0.1-0.2c0.1-0.1,0.1-0.3,0.1-0.3c-0.1-0.2-0.1-0.5-0.3-0.8
						c-0.3-0.5-0.4-0.9-0.5-1.2c-0.3-0.6-0.5-1-0.8-1.7c-0.1-0.3-0.3-0.5-0.5-0.9c-0.1-0.2-0.2-0.3-0.3-0.4
						c-0.1-0.1-0.1-0.1-0.1-0.1c-0.1,0-0.3,0-0.5,0.1c0-0.1,0-0.1-0.1-0.2c0.3-0.1,0.7-0.2,1-0.3c0.2-0.1,0.5-0.1,0.9-0.3
						c0.3-0.1,0.6-0.2,0.9-0.3c0.6-0.1,1.2-0.2,1.5-0.1c0.4,0.1,0.8,0.3,1.2,0.7c0.3,0.3,0.6,0.9,0.8,1.5c0.1,0.5,0.1,0.9,0.1,1.2
						c0,0.4-0.1,0.8-0.1,1.1c-0.1,0.3-0.2,0.5-0.3,0.8c-0.1,0.2-0.3,0.3-0.5,0.5c-0.2,0.1-0.5,0.3-0.8,0.3c-0.1,0.1-0.3,0.1-0.5,0.1
						c-0.3,0.1-0.5,0.1-0.5,0.1C35.5,34.1,35.3,34.2,35,34.3z M35.7,33.6c0.3,0,0.5-0.1,0.7-0.1c0.3-0.1,0.5-0.1,0.6-0.3
						c0.1-0.1,0.3-0.3,0.4-0.3c0.1-0.1,0.2-0.3,0.3-0.5c0.1-0.3,0.1-0.5,0.1-0.9c-0.1-0.3-0.1-0.7-0.2-1.1c-0.1-0.5-0.3-0.9-0.6-1.4
						c-0.2-0.3-0.6-0.5-0.9-0.7c-0.4-0.1-0.9-0.1-1.4,0.1c-0.4,0.1-0.7,0.2-0.9,0.3c0.1,0.1,0.1,0.3,0.3,0.7
						c0.1,0.3,0.1,0.3,0.3,0.6c0.3,0.6,0.4,0.9,0.7,1.6c0.2,0.5,0.3,0.8,0.5,1.3C35.5,33,35.5,33.3,35.7,33.6z"/>
					<path fill="#003300" d="M38.1,27.4C38,27.3,38,27.2,38,27.1c0.1,0,0.3-0.1,0.5-0.1c0.3-0.1,0.4-0.1,0.7-0.1
						c0.1,0,0.3-0.1,0.6-0.1c0.4-0.1,0.6-0.1,0.6-0.1c0.5-0.1,0.9-0.1,1.1,0c0.3,0.1,0.4,0.3,0.5,0.5c0.1,0.2,0.2,0.5,0.3,0.7
						c0,0.3,0,0.5-0.1,0.8c-0.1,0.3-0.2,0.5-0.4,0.6c-0.2,0.1-0.4,0.3-0.7,0.5c0.1,0.1,0.3,0.3,0.5,0.6c0.4,0.5,0.6,0.8,0.9,1.4
						c0.3,0.4,0.4,0.6,0.5,0.6l0.1,0.1c0.1,0,0.1,0,0.2,0c0,0.1,0,0.1,0,0.3c-0.1,0-0.3,0-0.4,0s-0.3,0-0.4,0.1
						c-0.1-0.2-0.4-0.6-0.8-1.2c-0.2-0.3-0.4-0.6-0.6-0.8c-0.3-0.3-0.5-0.7-0.9-0.9c0-0.1,0-0.1,0-0.1c0.1,0,0.2,0,0.3,0
						c0.4-0.1,0.7-0.2,0.9-0.5c0.2-0.3,0.3-0.6,0.2-1c-0.1-0.3-0.1-0.6-0.4-0.8c-0.2-0.2-0.5-0.3-0.9-0.2c-0.3,0.1-0.5,0.1-0.7,0.3
						c0,0.1,0.1,0.3,0.1,0.5c0,0.1,0.1,0.5,0.2,1.3c0.1,0.8,0.2,1.2,0.3,1.9c0.1,0.4,0.1,0.8,0.3,1.2c0.1,0.3,0.1,0.5,0.1,0.5
						c0.1,0.1,0.1,0.1,0.1,0.1s0.2,0,0.5,0c0,0.1,0.1,0.1,0.1,0.3c-0.3,0-0.5,0.1-0.8,0.1c-0.2,0-0.5,0.1-0.9,0.1
						c-0.1-0.1-0.1-0.1-0.1-0.3c0.3-0.1,0.3-0.1,0.4-0.1c0.1-0.1,0.1-0.1,0.1-0.1c0-0.1,0-0.2-0.1-0.4c0-0.1-0.1-0.5-0.3-1.2
						c-0.1-0.8-0.3-1.2-0.4-2c-0.1-0.4-0.1-0.8-0.3-1.2c-0.1-0.6-0.1-0.8-0.2-0.8c-0.1-0.1-0.1-0.1-0.1-0.1
						C38.6,27.3,38.5,27.3,38.1,27.4z"/>
					<path fill="#003300" d="M43.6,32.8c0-0.1,0-0.2,0-0.3c0.1,0,0.3,0,0.3-0.1c0.1,0,0.1-0.1,0.1-0.1c0.1-0.1,0.1-0.1,0.1-0.3
						c0.1-0.1,0.1-0.5,0.4-1.3c0.3-1,0.5-1.5,0.9-2.5c0.1-0.2,0.3-0.8,0.6-1.8c0.1,0,0.1,0,0.3,0c0.5,1.8,0.8,2.7,1.2,4.5
						c0.1,0.7,0.3,1.2,0.3,1.4c0.1,0.1,0.1,0.2,0.1,0.2c0.1,0.1,0.1,0.1,0.3,0.1c0,0.1,0,0.2-0.1,0.3c-0.3-0.1-0.5-0.1-0.7-0.1
						c-0.4,0-0.5,0-0.9,0c0-0.1,0-0.2,0-0.3c0.2,0,0.3,0,0.4,0c0.1,0,0.1-0.1,0.1-0.1c0-0.1,0.1-0.1,0.1-0.1c0-0.1,0-0.1,0-0.3
						c-0.1-0.5-0.1-0.8-0.3-1.4c-0.8-0.1-1.2-0.1-1.9-0.1c-0.1,0.5-0.2,0.6-0.3,1.2c-0.1,0.2-0.1,0.3-0.1,0.5c0,0.1,0,0.1,0.1,0.1
						c0,0.1,0.1,0.1,0.1,0.1c0.1,0,0.2,0.1,0.4,0.1c0,0.1,0,0.2,0,0.3c-0.3-0.1-0.6-0.1-0.8-0.1C44.1,32.7,43.8,32.7,43.6,32.8z
						 M45,30.3c0.6,0,1,0,1.7,0.1c-0.3-1.1-0.4-1.6-0.7-2.7C45.6,28.8,45.4,29.2,45,30.3z"/>
					<path fill="#003300" d="M49.4,27c0-0.1,0.1-0.1,0.1-0.3c0.4,0.1,0.7,0.1,0.9,0.1c0.2,0,0.5,0.1,1,0.1c0.5,0.1,0.8,0.1,1,0.1
						c0.2,0.1,0.3,0.1,0.5,0.1c0.1,0.1,0.3,0.1,0.4,0.1c-0.1,0.3-0.3,0.6-0.5,1.3c-0.1,0-0.1-0.1-0.2-0.1c0.1-0.3,0.1-0.8,0.1-0.8
						c-0.1-0.1-0.3-0.1-0.5-0.2c-0.2-0.1-0.4-0.1-0.6-0.1s-0.5-0.1-0.8-0.1c-0.1,0.1-0.1,0.3-0.1,0.5c0,0.1-0.1,0.4-0.2,1
						c-0.1,0.5-0.1,0.7-0.2,1.1c0.3,0.1,0.5,0.1,0.6,0.1c0.3,0.1,0.5,0.1,0.7,0.1c0.1,0,0.1,0,0.1-0.1c0.1-0.1,0.1-0.1,0.1-0.3
						c0.1-0.1,0.1-0.1,0.1-0.3c0.1,0,0.1,0,0.2,0.1c-0.1,0.4-0.2,0.6-0.3,0.9c-0.1,0.4-0.1,0.6-0.3,1c-0.1,0-0.1,0-0.2-0.1
						c0-0.1,0.1-0.1,0.1-0.3c0.1-0.3,0.1-0.5,0.1-0.5c0-0.1-0.1-0.1-0.1-0.1c-0.1-0.1-0.4-0.1-0.9-0.2c-0.1,0-0.3-0.1-0.5-0.1
						c-0.1,0.3-0.1,0.5-0.2,0.9c-0.1,0.4-0.1,0.8-0.2,1.2c0,0.3,0,0.5,0,0.5s0.1,0.1,0.1,0.1c0.1,0.1,0.2,0.1,0.4,0.1
						c-0.1,0.1-0.1,0.1-0.1,0.3c-0.3-0.1-0.5-0.1-0.8-0.1c-0.2-0.1-0.5-0.1-1-0.1c0-0.1,0.1-0.1,0.1-0.3c0.3,0,0.4,0,0.5,0
						s0.1-0.1,0.1-0.1c0.1-0.1,0.1-0.3,0.1-0.5c0-0.1,0.1-0.5,0.3-1.3c0.2-0.8,0.2-1.2,0.3-2c0.1-0.4,0.1-0.8,0.2-1.2
						c0.1-0.1,0.1-0.3,0.1-0.4s-0.1-0.1-0.1-0.1C49.8,27.1,49.6,27.1,49.4,27z"/>
					<path fill="#003300" d="M53.6,28.8c-0.1,0-0.1-0.1-0.2-0.1c0.2-0.7,0.3-1.2,0.4-1.4c0.3,0.1,0.7,0.1,1.3,0.3
						c0.5,0.1,0.8,0.2,0.9,0.3c0.1,0.1,0.5,0.1,1.2,0.3c0.5,0.1,0.8,0.2,0.9,0.3c-0.2,0.3-0.4,0.8-0.7,1.4c-0.1-0.1-0.1-0.1-0.2-0.1
						c0.1-0.1,0.1-0.3,0.1-0.4c0.1-0.3,0.1-0.4,0.1-0.4c0-0.1,0-0.1,0-0.1s0-0.1-0.1-0.1c-0.1,0-0.1-0.1-0.3-0.1
						c-0.2-0.1-0.3-0.1-0.5-0.1c-0.1-0.1-0.3-0.1-0.5-0.1c-0.1,0.3-0.3,0.6-0.5,1.2c-0.4,1-0.6,1.5-1,2.5c-0.1,0.4-0.3,0.8-0.5,1.2
						c-0.1,0.3-0.1,0.5-0.1,0.5c0,0.1,0,0.1,0.1,0.1c0.1,0.1,0.1,0.1,0.4,0.1c-0.1,0.1-0.1,0.1-0.1,0.3c-0.3-0.1-0.6-0.2-0.8-0.3
						c-0.1,0-0.3-0.1-0.9-0.2c0.1-0.1,0.1-0.1,0.1-0.3c0.3,0.1,0.4,0.1,0.5,0.1c0.1,0,0.1-0.1,0.1-0.1c0.1-0.1,0.1-0.2,0.2-0.4
						c0-0.1,0.2-0.5,0.5-1.2c0.3-1,0.5-1.5,0.9-2.5c0.1-0.1,0.1-0.3,0.1-0.4c0.1-0.3,0.1-0.5,0.3-0.7c-0.2-0.1-0.3-0.1-0.5-0.1
						c-0.3-0.1-0.5-0.1-0.8-0.1c-0.1,0-0.1,0-0.1,0.1c-0.1,0-0.1,0.1-0.3,0.4C53.7,28.5,53.6,28.7,53.6,28.8z"/>
					<path fill="#003300" d="M37.2,55.7c0.1-0.1,0.1-0.1,0.1-0.3c0.3,0.1,0.6,0.3,0.8,0.3c0.1,0.1,0.3,0.1,0.5,0.1
						c0.1,0.1,0.3,0.1,0.4,0.1c0.1,0,0.1,0,0.1,0.1c0.3,0.1,0.5,0.2,0.6,0.3c0.1,0.1,0.2,0.3,0.3,0.6c0.1,0.3,0,0.5-0.1,0.8
						c-0.1,0.3-0.1,0.5-0.3,0.8c-0.1,0.3-0.3,0.5-0.5,0.5c-0.2,0.1-0.4,0.2-0.6,0.3c-0.1,0-0.3,0-0.5-0.1s-0.3-0.1-0.4-0.2
						c0-0.1,0-0.2,0.1-0.3c0.1,0.1,0.3,0.2,0.4,0.2c0.1,0.1,0.3,0.1,0.5-0.1c0.1-0.1,0.3-0.2,0.5-0.4c0.1-0.2,0.3-0.5,0.3-0.7
						c0.1-0.3,0.1-0.5,0.1-0.7c0-0.2-0.1-0.4-0.1-0.5c-0.1-0.1-0.3-0.3-0.5-0.3c-0.1-0.1-0.3-0.1-0.6,0c-0.1,0.3-0.3,0.8-0.5,1.5
						c-0.3,0.9-0.5,1.4-0.8,2.2c-0.1,0.4-0.3,0.8-0.4,1.2c-0.1,0.3-0.1,0.5-0.1,0.5c0.1,0.1,0.1,0.1,0.1,0.1s0.2,0.1,0.5,0.2
						c-0.1,0.1-0.1,0.1-0.1,0.3c-0.4-0.1-0.7-0.3-0.9-0.3c-0.1-0.1-0.5-0.1-1.1-0.3c0.1-0.1,0.1-0.1,0.1-0.3
						c0.3,0.1,0.4,0.1,0.5,0.1c0.1,0,0.1,0,0.1-0.1c0.1-0.1,0.1-0.2,0.2-0.4c0-0.1,0.2-0.5,0.5-1.2c0.3-0.8,0.5-1.2,0.8-2
						c0.1-0.4,0.3-0.8,0.4-1.2c0.1-0.3,0.1-0.5,0.1-0.5s0-0.1-0.1-0.1C37.5,55.8,37.3,55.8,37.2,55.7z"/>
					<path fill="#003300" d="M41.2,63.1c0,0.1,0,0.2-0.1,0.3c-0.5-0.1-0.8-0.1-0.9-0.2c-0.5-0.1-0.6-0.1-1.1-0.2
						c0.1-0.1,0.1-0.1,0.1-0.3c0.3,0.1,0.5,0.1,0.5,0.1s0.1-0.1,0.1-0.1c0.1-0.1,0.1-0.2,0.1-0.5c0-0.1,0.1-0.5,0.3-1.4
						c0.1-0.9,0.3-1.3,0.4-2.2c0.1-0.4,0.1-0.8,0.2-1.2c0.1-0.3,0.1-0.5,0.1-0.5s-0.1-0.1-0.1-0.1c-0.1-0.1-0.1-0.1-0.3-0.1
						c0.1-0.1,0.1-0.1,0.1-0.3c0.3,0.1,0.6,0.1,0.8,0.2s0.5,0.1,0.8,0.1c0,0.1,0,0.2-0.1,0.3c-0.2,0-0.3-0.1-0.4,0
						c-0.1,0-0.1,0.1-0.1,0.1c0,0.1,0,0.2-0.1,0.5c0,0.1-0.1,0.5-0.3,1.4c-0.1,0.9-0.2,1.4-0.3,2.2c-0.1,0.4-0.1,0.8-0.2,1.2
						c-0.1,0.3-0.1,0.5-0.1,0.5s0.1,0.1,0.1,0.1C40.8,62.9,40.9,63,41.2,63.1z"/>
					<path fill="#003300" d="M46.3,62.8c-0.1,0.2-0.1,0.3-0.1,0.5c-0.3,0.2-0.5,0.3-0.8,0.4c-0.2,0.1-0.5,0.1-0.9,0.1
						c-0.3,0-0.7-0.1-1-0.3c-0.3-0.1-0.5-0.3-0.8-0.6c-0.2-0.3-0.3-0.5-0.5-0.8c-0.1-0.3-0.2-0.6-0.2-0.9c-0.1-0.3,0-0.7,0.1-1.2
						c0.1-1,0.5-1.8,0.9-2.4c0.5-0.6,1-0.9,1.8-0.9c0.1,0,0.3,0,0.5,0.1c0.1,0.1,0.3,0.1,0.5,0.2c0.2,0.1,0.3,0.1,0.3,0.1
						C46,57.1,46,57.3,46,57.5c0,0.3-0.1,0.6,0,0.9c-0.1,0-0.1,0-0.2,0c0-0.2,0-0.3,0-0.5c0-0.3-0.1-0.5-0.3-0.7
						c-0.1-0.1-0.5-0.2-0.8-0.2c-0.3,0-0.5,0.1-0.6,0.1c-0.2,0.1-0.3,0.3-0.5,0.5c-0.3,0.3-0.4,0.5-0.5,0.9
						c-0.1,0.3-0.2,0.8-0.3,1.4c-0.1,0.9,0.1,1.8,0.4,2.4c0.3,0.6,0.9,0.9,1.7,0.9c0.3,0,0.6-0.1,0.9-0.2c0.2-0.1,0.3-0.2,0.5-0.4
						C46.2,62.7,46.2,62.8,46.3,62.8z"/>
					<path fill="#003300" d="M48.8,63.1c0,0.1,0,0.2,0.1,0.3c-0.4,0.1-0.6,0.1-1.1,0.1c-0.1,0-0.4,0.1-1,0.1c0-0.1,0-0.2,0-0.3
						c0.3,0,0.5-0.1,0.5-0.1c0.1-0.1,0.1-0.1,0.1-0.1c0-0.1,0.1-0.2,0-0.5c0-0.1-0.1-0.5-0.1-1.4c-0.1-0.9-0.1-1.4-0.2-2.2
						C47,58.6,47,58.2,47,57.8c-0.1-0.3-0.1-0.5-0.1-0.5l-0.1-0.1c0,0-0.2-0.1-0.4,0c0-0.1,0-0.2,0-0.3c0.3,0,0.6,0,0.8-0.1
						c0.2,0,0.5-0.1,0.8-0.1c0,0.1,0,0.2,0.1,0.3c-0.2,0.1-0.3,0.1-0.4,0.1c-0.1,0.1-0.1,0.1-0.1,0.1c0,0.1,0,0.2,0,0.5
						c0,0.1,0.1,0.5,0.1,1.4c-0.1,0.5-0.1,0.7,0,1c0.1-0.1,0.2-0.3,0.3-0.5c0.1-0.3,0.2-0.4,0.3-0.6c0.2-0.5,0.3-0.7,0.5-1.2
						c0.1-0.5,0.3-0.8,0.3-0.9c0-0.1-0.1-0.2-0.1-0.3c0.2-0.1,0.3-0.1,0.5-0.1c0.1-0.1,0.3-0.1,0.4-0.1c0.1,0.1,0.1,0.2,0.1,0.3
						c-0.1,0.1-0.3,0.1-0.3,0.1c-0.1,0.1-0.1,0.1-0.1,0.2c-0.1,0.1-0.2,0.5-0.4,0.9c-0.3,0.8-0.5,1.2-0.9,1.9
						c0.9,0.9,1.4,1.4,2.4,2.4c0.4,0.3,0.6,0.5,0.7,0.5c0.1,0,0.1,0,0.3-0.1c0,0.1,0,0.1,0,0.3c-0.3,0.1-0.4,0.1-0.5,0.1
						S51,63,50.8,63.1c-0.1-0.1-0.3-0.3-0.7-0.6c-0.1-0.1-0.3-0.3-0.5-0.4c-0.8-0.7-1.2-1.1-1.8-1.8c-0.1,0.1-0.1,0.1-0.1,0.1
						c0.1,0.3,0.1,0.5,0.1,0.9c0.1,0.5,0.1,0.9,0.1,1.3C48,62.9,48,63,48,63.1c0.1,0.1,0.1,0.1,0.1,0.1
						C48.3,63.2,48.5,63.2,48.8,63.1z"/>
					<path fill="#003300" d="M52,62.5c-0.1-0.3-0.1-0.8-0.3-1.5c0.1,0,0.1-0.1,0.2-0.1c0.1,0.5,0.2,0.7,0.3,0.8
						c0.1,0.1,0.1,0.1,0.3,0.2c0.1,0.1,0.3,0.1,0.5,0.1c0.2,0,0.3,0,0.5-0.1c0.3-0.1,0.4-0.2,0.5-0.4c0.1-0.2,0.2-0.5,0.2-0.7
						c0-0.3-0.1-0.5-0.1-0.8c-0.1-0.2-0.1-0.3-0.3-0.5c-0.1-0.1-0.2-0.2-0.3-0.3c-0.1-0.1-0.3-0.1-0.3-0.1c-0.1,0-0.3,0.1-0.5,0.1
						s-0.5,0.1-0.6,0.1c-0.3-0.1-0.4-0.1-0.5-0.2c-0.1-0.1-0.3-0.3-0.3-0.5c-0.1-0.2-0.2-0.4-0.3-0.6c-0.1-0.3-0.1-0.7-0.1-1.1
						c0.1-0.3,0.1-0.6,0.3-0.9c0.1-0.3,0.3-0.4,0.6-0.5c0.1-0.1,0.3-0.1,0.5-0.1s0.4,0.1,0.6,0.1c0.1,0.2,0.1,0.4,0.1,0.5
						c0.1,0.1,0.1,0.4,0.3,0.8C53,57,53,57,52.9,57c-0.3-0.4-0.4-0.7-0.4-0.7c-0.1-0.1-0.2-0.1-0.3-0.3c-0.3-0.1-0.5-0.1-0.6-0.1
						c-0.3,0.1-0.4,0.3-0.5,0.6c-0.1,0.3-0.1,0.7,0.1,1.2c0.1,0.3,0.1,0.5,0.3,0.6c0.1,0.1,0.3,0.1,0.4,0.2c0.1,0.1,0.3,0.1,0.5,0
						c0.3,0,0.5,0,0.7,0c0.2,0,0.4,0.1,0.5,0.1c0.1,0.1,0.3,0.2,0.4,0.3s0.3,0.3,0.3,0.6c0.3,0.6,0.3,1.2,0.1,1.8
						c-0.1,0.6-0.6,1-1.2,1.2C52.9,62.7,52.5,62.7,52,62.5z"/>
				</g>
				<g>
					<g>
						<g>
							
								<text transform="matrix(0.8202 0 0 1 16.1419 59.4815)" fill="#7D1A3D" font-family="'MyriadPro-Regular'" font-size="41.8348">T</text>
							
								<text transform="matrix(1.2303 0 0 1 33.1946 53.6699)" fill="#7D1A3D" font-family="'MyriadPro-Regular'" font-size="27.8899">O</text>
							
								<text transform="matrix(0.8202 0 0 1 56.8357 59.4815)" fill="#7D1A3D" font-family="'MyriadPro-Regular'" font-size="41.8348">P</text>
							
								<text transform="matrix(0.7141 0 0 1 40.2338 54.0274)" fill="#DCC996" font-family="'MyriadPro-Regular'" font-size="29.2935">5</text>
							<g>
								<g>
									<path fill="#DCC996" d="M35.5,33.8c-0.1-0.1-0.1-0.1-0.1-0.2c0.1-0.1,0.1-0.3,0.1-0.3c-0.1-0.2-0.1-0.5-0.3-0.8
										c-0.3-0.5-0.4-0.9-0.5-1.2c-0.3-0.6-0.5-1-0.8-1.7c-0.1-0.3-0.3-0.5-0.5-0.9c-0.1-0.2-0.2-0.3-0.3-0.4
										c-0.1-0.1-0.1-0.1-0.1-0.1c-0.1,0-0.3,0-0.5,0.1c-0.1-0.1-0.1-0.1-0.1-0.3c0.3-0.1,0.6-0.2,0.9-0.3
										c0.2,0.1,0.5-0.1,0.9-0.2c0.3-0.1,0.6-0.2,0.9-0.3c0.6-0.1,1.2-0.2,1.5-0.1c0.4,0.1,0.8,0.3,1.2,0.7
										c0.3,0.3,0.6,0.9,0.8,1.5c0.1,0.5,0.1,0.9,0.1,1.2c0,0.4-0.1,0.8-0.1,1.1c-0.1,0.3-0.2,0.5-0.3,0.8
										c-0.1,0.2-0.3,0.3-0.5,0.5c-0.2,0.1-0.5,0.3-0.8,0.3c-0.1,0.1-0.3,0.1-0.5,0.1c-0.3,0.1-0.5,0.1-0.5,0.1
										C36,33.6,35.8,33.7,35.5,33.8z M36.2,33c0.3,0,0.5-0.1,0.7-0.1c0.3-0.1,0.5-0.1,0.6-0.3c0.1-0.1,0.3-0.3,0.4-0.3
										c0.1-0.1,0.2-0.3,0.3-0.5c0.1-0.3,0.1-0.5,0.1-0.9c-0.1-0.3-0.1-0.7-0.2-1.1c-0.1-0.5-0.3-0.9-0.6-1.4
										c-0.3-0.3-0.6-0.5-0.9-0.7c-0.4-0.1-0.9-0.1-1.4,0.1c-0.3,0.1-0.6,0.2-0.9,0.3c0.1,0.1,0.1,0.3,0.3,0.7
										c0.1,0.3,0.1,0.3,0.3,0.6c0.3,0.6,0.4,0.9,0.7,1.6c0.2,0.5,0.3,0.8,0.5,1.3C35.9,32.5,36,32.7,36.2,33z"/>
									<path fill="#DCC996" d="M38.6,26.9c-0.1-0.1-0.1-0.1-0.1-0.3c0.1,0,0.3-0.1,0.5-0.1c0.3-0.1,0.4-0.1,0.7-0.1
										c0.1,0,0.3-0.1,0.6-0.1c0.4-0.1,0.6-0.1,0.7-0.1c0.5-0.1,0.9-0.1,1.1,0.1c0.3,0.1,0.4,0.3,0.5,0.5c0.1,0.2,0.2,0.5,0.3,0.7
										c0,0.3,0,0.5-0.1,0.8c-0.1,0.3-0.2,0.5-0.4,0.6s-0.4,0.3-0.7,0.5c0.1,0.1,0.3,0.3,0.5,0.6c0.4,0.5,0.6,0.8,0.9,1.4
										c0.3,0.4,0.4,0.6,0.5,0.6l0.1,0.1c0.1,0,0.1,0,0.2,0c0,0.1,0,0.1,0,0.3c-0.1,0-0.3,0-0.4,0c-0.1,0-0.3,0-0.4,0.1
										c-0.1-0.2-0.4-0.6-0.8-1.2c-0.2-0.5-0.4-0.7-0.6-0.9c-0.3-0.3-0.5-0.7-0.9-0.9c0-0.1,0-0.1,0-0.1c0.1,0,0.2,0,0.3,0
										c0.4-0.1,0.7-0.2,0.9-0.5c0.2-0.2,0.3-0.5,0.2-0.9c-0.1-0.3-0.1-0.6-0.4-0.8c-0.2-0.2-0.5-0.3-0.9-0.2
										c-0.3,0.1-0.5,0.1-0.7,0.3c0,0.1,0.1,0.3,0.1,0.5c0,0.1,0.1,0.5,0.2,1.3c0.1,0.8,0.2,1.2,0.3,1.9c0.1,0.4,0.1,0.8,0.3,1.2
										c0.1,0.3,0.1,0.5,0.1,0.5c0.1,0.1,0.1,0.1,0.1,0.1c0.1,0,0.2,0,0.5,0c0,0.1,0.1,0.1,0.1,0.3c-0.3,0-0.5,0.1-0.8,0.1
										s-0.5,0.1-0.9,0.1c-0.1-0.1-0.1-0.1-0.1-0.3c0.3-0.1,0.3-0.1,0.4-0.1c0.1-0.1,0.1-0.1,0.1-0.1c0-0.1,0-0.2-0.1-0.4
										c0-0.1-0.1-0.5-0.3-1.2c-0.1-0.8-0.3-1.2-0.4-2c-0.1-0.4-0.1-0.8-0.3-1.2c0-0.6-0.1-0.8-0.1-0.8c-0.1-0.1-0.1-0.1-0.1-0.1
										C39.1,26.9,38.9,26.9,38.6,26.9z"/>
									<path fill="#DCC996" d="M44.1,32.3c0-0.1,0-0.2,0-0.3c0.1,0,0.3,0,0.3-0.1c0.1,0,0.1-0.1,0.1-0.1c0.1-0.1,0.1-0.1,0.1-0.3
										c0.1-0.1,0.1-0.5,0.4-1.3c0.3-1,0.5-1.5,0.9-2.5c0.1-0.2,0.3-0.8,0.6-1.8c0.1,0,0.1,0,0.3,0c0.5,1.8,0.8,2.7,1.2,4.5
										c0.1,0.7,0.3,1.2,0.3,1.4c0,0.1,0,0.2,0,0.2c0.1,0.1,0.1,0.1,0.3,0.1c0,0.1,0,0.2-0.1,0.3c-0.3-0.1-0.5-0.1-0.6-0.1
										c-0.4,0-0.5,0-0.9,0c0-0.1,0-0.2,0-0.3c0.2,0,0.3,0,0.4,0c0.1,0,0.1-0.1,0.1-0.1c0-0.1,0.1-0.1,0.1-0.1s0-0.1,0-0.3
										c-0.1-0.5-0.1-0.8-0.3-1.4c-0.8-0.1-1.2-0.1-1.9-0.1c-0.1,0.5-0.2,0.6-0.3,1.2C45,31.5,45,31.7,45,31.7s0,0.1,0.1,0.1
										c0,0.1,0.1,0.1,0.1,0.1c0.1,0,0.2,0.1,0.4,0.1c0,0.1,0,0.2,0,0.3c-0.3-0.1-0.6-0.1-0.8-0.1C44.5,32.3,44.3,32.3,44.1,32.3z
										 M45.6,29.8c0.6,0,1,0,1.7,0.1c-0.3-1.1-0.4-1.6-0.7-2.7C46.1,28.2,45.8,28.8,45.6,29.8z"/>
									<path fill="#DCC996" d="M49.9,26.4c0-0.1,0.1-0.1,0.1-0.3c0.4,0.1,0.7,0.1,0.9,0.1c0.2,0,0.5,0.1,1,0.1
										c0.5,0.1,0.8,0.1,1,0.1s0.3,0.1,0.5,0.1c0.1,0.1,0.3,0.1,0.4,0.1c-0.1,0.3-0.3,0.6-0.5,1.3c-0.1,0-0.1-0.1-0.2-0.1
										c0.1-0.3,0.1-0.8,0.1-0.8c-0.1-0.1-0.3-0.1-0.5-0.2c-0.2-0.1-0.4-0.1-0.6-0.1c-0.3-0.1-0.5-0.1-0.8-0.1
										c-0.1,0.1-0.1,0.3-0.1,0.5c0,0.1-0.1,0.4-0.2,1C51,28.5,51,28.6,50.9,29c0.3,0.1,0.5,0.1,0.6,0.1c0.3,0.1,0.5,0.1,0.7,0.1
										c0.1,0,0.1,0,0.1-0.1c0,0.1,0.1,0.1,0.1-0.2c0.1-0.1,0.1-0.1,0.1-0.3c0.1,0,0.1,0,0.2,0.1c-0.1,0.4-0.2,0.6-0.3,0.9
										c-0.1,0.4-0.1,0.6-0.3,1.1c-0.1,0-0.1,0-0.2-0.1c0-0.1,0.1-0.1,0.1-0.3c0.1-0.3,0.1-0.5,0.1-0.5c0-0.1-0.1-0.1-0.1-0.1
										c-0.1-0.1-0.4-0.1-0.9-0.2c-0.1,0-0.3-0.1-0.5-0.1c-0.1,0.3-0.1,0.5-0.2,0.9c-0.1,0.4-0.1,0.8-0.2,1.2
										c-0.1,0.3-0.1,0.5-0.1,0.5c0,0.1,0.1,0.1,0.1,0.1c0.1,0.1,0.2,0.1,0.4,0.1c-0.1,0.1-0.1,0.1-0.1,0.3
										c-0.3-0.1-0.5-0.1-0.8-0.1c-0.2-0.1-0.5-0.1-1-0.1c0-0.1,0.1-0.1,0.1-0.3c0.3,0,0.4,0,0.5,0s0.1-0.1,0.1-0.1
										c0.1-0.1,0.1-0.2,0.1-0.4c0-0.1,0.1-0.5,0.3-1.3c0.2-0.8,0.2-1.2,0.3-2c0.3-0.5,0.3-0.9,0.4-1.2c0.1-0.3,0.1-0.5,0.1-0.5
										s-0.1-0.1-0.1-0.2C50.4,26.5,50.2,26.5,49.9,26.4z"/>
									<path fill="#DCC996" d="M54.1,28.3c-0.1,0-0.1-0.1-0.2-0.1c0.2-0.7,0.3-1.2,0.4-1.4c0.3,0.1,0.7,0.1,1.3,0.3
										c0.5,0.1,0.8,0.2,0.9,0.3c0.1,0.1,0.5,0.1,1.2,0.3c0.5,0.1,0.8,0.2,0.9,0.3c-0.2,0.3-0.4,0.8-0.7,1.4
										c-0.1-0.1-0.1-0.1-0.2-0.1c0.1-0.1,0.1-0.3,0.1-0.4c0.1-0.3,0.1-0.4,0.1-0.4c0-0.1,0-0.1,0-0.1s0-0.1-0.1-0.1
										c-0.1,0-0.1-0.1-0.3-0.1c-0.2-0.1-0.3-0.1-0.5-0.1c-0.1-0.1-0.3-0.1-0.5-0.1c-0.1,0.3-0.3,0.6-0.5,1.2
										c-0.4,1-0.6,1.5-1,2.5c-0.1,0.4-0.3,0.8-0.5,1.2c-0.1,0.3-0.1,0.5-0.1,0.5c0,0.1,0,0.1,0.1,0.1c0.1,0.1,0.1,0.1,0.4,0.1
										C55,33.7,55,33.8,55,33.9c-0.3-0.1-0.6-0.2-0.8-0.3c-0.1,0-0.3-0.1-0.9-0.2c0.1-0.1,0.1-0.1,0.1-0.3
										c0.3,0.1,0.4,0.1,0.5,0.1s0.1-0.1,0.1-0.1c0.1-0.1,0.1-0.2,0.2-0.4c0-0.1,0.2-0.5,0.5-1.2c0.3-1,0.5-1.5,0.9-2.5
										c0.1-0.1,0.1-0.3,0.1-0.4c0.1-0.3,0.1-0.5,0.3-0.7c-0.2-0.1-0.3-0.1-0.5-0.1c-0.3-0.1-0.5-0.1-0.8-0.1
										c-0.1,0-0.1,0-0.1,0.1c-0.1,0-0.1,0.1-0.3,0.4C54.2,28,54.2,28.2,54.1,28.3z"/>
								</g>
							</g>
							<g>
								<g>
									<path fill="#DCC996" d="M37.6,55.2c0.1-0.1,0.1-0.1,0.1-0.3c0.3,0.1,0.6,0.3,0.8,0.3c0.1,0.1,0.3,0.1,0.5,0.1
										c0.1,0.1,0.3,0.1,0.4,0.1c0.1,0,0.1,0,0.1,0.1c0.3,0.1,0.5,0.2,0.6,0.3c0.1,0.1,0.2,0.3,0.3,0.6c0.1,0.3,0,0.5-0.1,0.8
										c-0.1,0.3-0.1,0.5-0.3,0.8c-0.1,0.3-0.3,0.5-0.5,0.5c-0.2,0.1-0.4,0.2-0.6,0.3c-0.1,0-0.3,0-0.5-0.1
										c-0.1-0.1-0.3-0.1-0.4-0.2c0-0.1,0-0.2,0.1-0.3c0.1,0.1,0.3,0.2,0.4,0.2c0.1,0.1,0.3,0.1,0.5-0.1c0.1-0.1,0.3-0.2,0.5-0.4
										c0.1-0.2,0.3-0.5,0.3-0.7c0.1-0.3,0.1-0.5,0.1-0.7c0-0.3-0.1-0.4-0.1-0.5s-0.3-0.3-0.5-0.3c-0.1-0.1-0.3-0.1-0.6,0
										c-0.1,0.3-0.3,0.8-0.5,1.5c-0.3,0.9-0.5,1.4-0.8,2.2c-0.1,0.4-0.3,0.8-0.4,1.2c-0.1,0.3-0.1,0.5-0.1,0.5
										c0.1,0.1,0.1,0.1,0.1,0.1c0.1,0.1,0.2,0.1,0.5,0.2c-0.1,0.1-0.1,0.1-0.1,0.3c-0.4-0.1-0.7-0.3-0.9-0.3
										c-0.1-0.1-0.5-0.1-1.1-0.3c0.1-0.1,0.1-0.1,0.1-0.3c0.3,0.1,0.4,0.1,0.5,0.1c0.1,0,0.1,0,0.1-0.1c0.1-0.1,0.1-0.2,0.2-0.4
										c0-0.1,0.2-0.5,0.5-1.2c0.3-0.8,0.5-1.2,0.8-2c0.1-0.4,0.3-0.8,0.4-1.2c0.1-0.3,0.1-0.5,0.1-0.5c0-0.1,0-0.1-0.1-0.1
										C38,55.4,37.8,55.3,37.6,55.2z"/>
									<path fill="#DCC996" d="M41.7,62.5c0,0.1,0,0.2-0.1,0.3c-0.5-0.1-0.8-0.1-0.9-0.2c-0.5-0.1-0.6-0.1-1.1-0.2
										c0.1-0.1,0.1-0.1,0.1-0.3c0.3,0.1,0.5,0.1,0.5,0.1c0.1,0,0.1-0.1,0.1-0.1c0.1-0.1,0.1-0.2,0.1-0.5c0-0.1,0.1-0.5,0.3-1.4
										c0.1-0.9,0.3-1.3,0.4-2.2c0.1-0.4,0.1-0.8,0.2-1.2c0.1-0.3,0.1-0.5,0.1-0.5s-0.1-0.1-0.1-0.1c-0.1-0.1-0.1-0.1-0.3-0.1
										c0-0.1,0-0.1,0-0.3c0.3,0.1,0.6,0.1,0.8,0.2s0.5,0.1,0.8,0.1c0,0.1,0,0.2-0.1,0.3c-0.2,0-0.3-0.1-0.4,0
										c-0.1,0-0.1,0.1-0.1,0.1s0,0.2-0.1,0.5c0,0.1-0.1,0.5-0.3,1.4c-0.1,0.9-0.2,1.4-0.3,2.2c-0.1,0.4-0.1,0.8-0.2,1.2
										c-0.1,0.3-0.1,0.5-0.1,0.5c0,0.1,0.1,0.1,0.1,0.1C41.3,62.5,41.4,62.5,41.7,62.5z"/>
									<path fill="#DCC996" d="M46.9,62.3c-0.1,0.2-0.1,0.3-0.1,0.5c-0.3,0.2-0.5,0.3-0.8,0.4c-0.3,0.1-0.6,0.1-0.9,0.1
										s-0.7-0.1-1-0.3c-0.3-0.1-0.5-0.3-0.8-0.6c-0.2-0.3-0.3-0.5-0.5-0.8c-0.1-0.3-0.2-0.6-0.2-0.9c-0.1-0.3,0-0.7,0.1-1.2
										c0.1-1,0.5-1.8,0.9-2.4c0.5-0.6,1-0.9,1.8-0.9c0.1,0,0.3,0,0.5,0.1s0.3,0.1,0.5,0.2c0.1,0.1,0.3,0.1,0.3,0.1
										c-0.1,0.1-0.1,0.3-0.1,0.5c0,0.3-0.1,0.6,0,0.9c-0.1,0-0.1,0-0.2,0c0-0.2,0-0.3,0-0.5c-0.1-0.3-0.1-0.5-0.3-0.7
										c-0.1-0.1-0.4-0.1-0.7-0.1c-0.3,0-0.5,0.1-0.6,0.1c-0.2,0.1-0.3,0.3-0.5,0.5c-0.1,0.2-0.3,0.5-0.4,0.9
										c-0.1,0.3-0.2,0.8-0.3,1.4c-0.1,0.9,0.1,1.8,0.4,2.4c0.3,0.6,0.9,0.9,1.7,0.9c0.3,0,0.6-0.1,0.9-0.2
										c0.2-0.1,0.3-0.2,0.5-0.4C46.8,62.2,46.8,62.3,46.9,62.3z"/>
									<path fill="#DCC996" d="M49.3,62.6c0,0.1,0,0.2,0.1,0.3C48.9,63,48.7,63,48.3,63c-0.1,0-0.4,0.1-1,0.1c0-0.1,0-0.2,0-0.3
										c0.3,0,0.5-0.1,0.5-0.1l0.1-0.1c0-0.1,0.1-0.2,0-0.5c0-0.1-0.1-0.5-0.1-1.4c-0.1-0.9-0.1-1.4-0.2-2.2
										c-0.1-0.5-0.1-0.9-0.1-1.3c-0.1-0.3-0.1-0.5-0.1-0.5l-0.1-0.1c0,0-0.2-0.1-0.4,0c0-0.1,0-0.2,0-0.3c0.3,0,0.6,0,0.8-0.1
										c0.2,0,0.5-0.1,0.8-0.1c0,0.1,0,0.2,0.1,0.3c-0.2,0-0.4,0-0.5,0.1c-0.1,0.1-0.1,0.1-0.1,0.1c0,0.1,0,0.2,0,0.5
										c0,0.1,0.1,0.5,0.1,1.4c0.1,0.4,0.1,0.6,0.1,0.9c0.1-0.1,0.2-0.3,0.3-0.5c0.1-0.3,0.2-0.4,0.3-0.6c0.2-0.5,0.3-0.7,0.5-1.2
										c0.1-0.5,0.3-0.8,0.3-0.9c0-0.1-0.1-0.2-0.1-0.3c0.2,0,0.4,0,0.5-0.1c0.1-0.1,0.3-0.1,0.4-0.1c0.1,0.1,0.1,0.2,0.1,0.3
										c-0.1,0.1-0.3,0.1-0.3,0.1c-0.1,0.1-0.1,0.1-0.1,0.2c-0.1,0.1-0.3,0.4-0.5,0.9c-0.3,0.8-0.5,1.2-0.9,1.9
										c0.9,0.9,1.4,1.4,2.4,2.4c0.4,0.3,0.6,0.5,0.7,0.5c0.1,0.1,0.1,0.1,0.3,0c0.1,0.1,0.1,0.1,0.1,0.3
										c-0.3,0.1-0.4,0.1-0.5,0.1c-0.1,0-0.3,0.1-0.5,0.1c-0.1-0.1-0.3-0.3-0.7-0.6c-0.1-0.1-0.3-0.3-0.5-0.4
										c-0.8-0.7-1.2-1.1-1.8-1.8c-0.2,0.1-0.2,0.1-0.2,0.1c0.1,0.3,0.1,0.5,0.1,0.9c0.1,0.5,0.1,0.9,0.1,1.3
										c0.1,0.3,0.1,0.4,0.1,0.5c0.1,0,0.1,0.1,0.1,0.1C48.8,62.7,49,62.7,49.3,62.6z"/>
									<path fill="#DCC996" d="M52.5,62.1c0-0.3-0.1-0.8-0.3-1.5c0.1,0,0.1,0,0.1,0c0.1,0.4,0.2,0.7,0.3,0.8
										c0.1,0.1,0.1,0.1,0.3,0.2c0.1,0.1,0.3,0.1,0.5,0.1c0.2,0,0.3,0,0.5-0.1c0.3-0.1,0.4-0.2,0.5-0.4c0.1-0.2,0.2-0.5,0.2-0.7
										c0-0.3-0.1-0.5-0.1-0.8c-0.1-0.2-0.1-0.3-0.3-0.5c-0.1-0.1-0.2-0.2-0.3-0.3c-0.1-0.1-0.3-0.1-0.3-0.1
										c-0.1,0-0.3,0.1-0.5,0.1s-0.5,0.1-0.6,0.1c-0.3-0.1-0.4-0.1-0.5-0.2c-0.1-0.1-0.3-0.3-0.3-0.5c-0.1-0.2-0.2-0.4-0.3-0.6
										c-0.1-0.4-0.1-0.8-0.1-1.1c0.1-0.3,0.1-0.6,0.3-0.9c0.1-0.3,0.4-0.4,0.6-0.5c0.1-0.1,0.3-0.1,0.5-0.1
										c0.2,0,0.4,0.1,0.6,0.1c0.1,0.2,0.1,0.4,0.1,0.5c0.1,0.1,0.1,0.5,0.3,0.8c-0.1,0.1-0.1,0.1-0.2,0.1
										c-0.1-0.5-0.3-0.7-0.3-0.8c-0.1-0.1-0.2-0.1-0.3-0.3c-0.3-0.1-0.5-0.1-0.6-0.1c-0.3,0.1-0.4,0.3-0.5,0.6
										c-0.1,0.3-0.1,0.7,0.1,1.2c0.1,0.3,0.1,0.5,0.3,0.6c0.1,0.1,0.3,0.2,0.4,0.3c0.1,0.1,0.3,0.1,0.5,0
										c0.2-0.1,0.5-0.1,0.7-0.1c0.2,0,0.4,0.1,0.5,0.1s0.3,0.2,0.4,0.3s0.3,0.3,0.3,0.6c0.3,0.6,0.3,1.2,0.1,1.8
										c-0.2,0.5-0.6,0.9-1.2,1.2C53.4,62.2,52.9,62.2,52.5,62.1z"/>
								</g>
							</g>
						</g>
					</g>
				</g>
			</g>
		</g>
	</g>
	<g>
		
			<image overflow="visible" enable-background="new    " width="369" height="74" xlink:href="CB8E42BFFB2B6C7F.png"  transform="matrix(0.6771 0 0 0.6771 79.5533 24.6875)">
		</image>
		<g>
			<text transform="matrix(0.4166 0 0 1 84.216 58.1222)" fill="#7D1A3D" font-family="'MyriadPro-Regular'" font-size="37.7889">WHO DO YOU THINK WILL GO FIRST?</text>
		</g>
	</g>
</g>
</svg>
