<svg xmlns="http://www.w3.org/2000/svg" xmlns:xlink="http://www.w3.org/1999/xlink" id="Layer_1" x="0" y="0" enable-background="new -155 0 960 90" version="1.1" viewBox="-155 0 960 90" xml:space="preserve"><g><image width="620" height="420" enable-background="new" overflow="visible" transform="matrix(0.1424 0 0 0.1486 335.2206 13.1944)" xlink:href="mm3.jpg"/><image width="620" height="420" enable-background="new" overflow="visible" transform="matrix(0.1447 0 0 0.1498 411.4781 13.3365)" xlink:href="jw5.jpg"/><image width="620" height="420" enable-background="new" overflow="visible" transform="matrix(0.1416 0 0 0.1502 492.1498 13.1944)" xlink:href="lw4.jpg"/><image width="620" height="420" enable-background="new" overflow="visible" transform="matrix(0.1416 0 0 0.1498 575.4574 13.3365)" xlink:href="kw1.jpg"/><image width="620" height="420" enable-background="new" overflow="visible" transform="matrix(0.1542 0 0 0.1494 662.2689 13.3365)" xlink:href="bp5.jpg"/><g><image id="shadow_x5F_img" width="704" height="115" enable-background="new" opacity=".68" overflow="visible" transform="matrix(0.6797 0 0 0.6931 319.6843 5.8198)" xlink:href="C439AC1F664BC235.png"/><g><g><g><g><image id="phrase_x5F_img" width="565" height="74" enable-background="new" opacity=".47" overflow="visible" transform="matrix(1.0037 0 0 1.0235 -146.3675 6.758)" xlink:href="CAAC89348BD7C0F.png"/><g><path fill="#FFF" d="M416.8,13.3l-34.1,62.3h34.8 M336,75.9h-0.1V13.6h34.2L336,75.9z M336.6,75h-473.9V13.3h473.9V75z"/></g></g><path fill="#FFF" d="M416.9,75.9h-0.1V13.3h34.1L416.9,75.9z M497.5,13.3l-34.1,62.3h34.8 M497.5,75.9V13.3"/><path fill="#FFF" d="M497.7,75.9h-0.1V13.3h34.2L497.7,75.9z M578.5,13.3l-34.1,62.3h35 M578.5,75.9V13.3"/><path fill="#FFF" d="M578.6,75.9h-0.1V13.3h34.2L578.6,75.9z M659.3,13.3l-34.1,62.3H660 M659.3,75.9V13.3"/><path fill="#FFF" d="M659.6,75.9h-0.1V13.3h34.1L659.6,75.9z M740.2,13.3l-34.1,62.3h34.8 M740.2,75.9V13.3"/></g><polygon fill="#FFF" points="797.1 75.6 736.2 75.6 740.4 13.3 797.1 13.3"/><rect width="17.2" height="61.7" x="-144.9" y="13.3" fill="#FFF"/></g></g></g><rect width="402.5" height="51.4" x="-76.2" y="19.3" fill="#FFF"/><g><g id="logo_1_"><g><g><text fill="#030" font-family="'MyriadPro-Regular'" font-size="74.905" transform="matrix(0.8107 0 0 1 -134.9399 69.4416)">T</text><text fill="#030" font-family="'MyriadPro-Regular'" font-size="49.937" transform="matrix(1.216 0 0 1 -104.7603 59.0383)">O</text><text fill="#030" font-family="'MyriadPro-Regular'" font-size="74.905" transform="matrix(0.8107 0 0 1 -62.9234 69.4416)">P</text><text fill="#030" font-family="'MyriadPro-Regular'" font-size="52.45" transform="matrix(0.7058 0 0 1 -92.3042 59.6741)">5</text><path fill="#030" d="M-100.7,23.4c-0.2-0.2-0.2-0.2-0.2-0.4c0.2-0.2,0.2-0.5,0.2-0.5c-0.2-0.4-0.2-0.9-0.5-1.4 c-0.5-0.9-0.7-1.6-0.9-2.1c-0.5-1.1-0.9-1.8-1.4-3c-0.2-0.5-0.5-0.9-0.9-1.6c-0.2-0.4-0.4-0.5-0.5-0.7 c-0.2-0.2-0.2-0.2-0.2-0.2c-0.2,0-0.5,0-0.9,0.2c0-0.2,0-0.2-0.2-0.4c0.5-0.2,1.2-0.4,1.8-0.5c0.4-0.2,0.9-0.2,1.6-0.5 c0.5-0.2,1.1-0.4,1.6-0.5c1.1-0.2,2.1-0.4,2.7-0.2c0.7,0.2,1.4,0.5,2.1,1.3c0.5,0.5,1.1,1.6,1.4,2.7c0.2,0.9,0.2,1.6,0.2,2.1 c0,0.7-0.2,1.4-0.2,2c-0.2,0.5-0.4,0.9-0.5,1.4c-0.2,0.4-0.5,0.5-0.9,0.9c-0.4,0.2-0.9,0.5-1.4,0.5c-0.2,0.2-0.5,0.2-0.9,0.2 c-0.5,0.2-0.9,0.2-0.9,0.2C-99.8,23.1-100.1,23.3-100.7,23.4z M-99.4,22.2c0.5,0,0.9-0.2,1.2-0.2c0.5-0.2,0.9-0.2,1.1-0.5 c0.2-0.2,0.5-0.5,0.7-0.5c0.2-0.2,0.4-0.5,0.5-0.9c0.2-0.5,0.2-0.9,0.2-1.6c-0.2-0.5-0.2-1.3-0.4-2c-0.2-0.9-0.5-1.6-1.1-2.5 c-0.4-0.5-1.1-0.9-1.6-1.3c-0.7-0.2-1.6-0.2-2.5,0.2c-0.7,0.2-1.2,0.4-1.6,0.5c0.2,0.2,0.2,0.5,0.5,1.3 c0.2,0.5,0.2,0.5,0.5,1.1c0.5,1.1,0.7,1.6,1.2,2.9c0.4,0.9,0.5,1.4,0.9,2.3C-99.8,21.1-99.8,21.6-99.4,22.2z"/><path fill="#030" d="M-95.2,11.1c-0.2-0.2-0.2-0.4-0.2-0.5c0.2,0,0.5-0.2,0.9-0.2c0.5-0.2,0.7-0.2,1.2-0.2 c0.2,0,0.5-0.2,1.1-0.2c0.7-0.2,1.1-0.2,1.1-0.2c0.9-0.2,1.6-0.2,1.9,0c0.5,0.2,0.7,0.5,0.9,0.9c0.2,0.4,0.4,0.9,0.5,1.3 c0,0.5,0,0.9-0.2,1.4c-0.2,0.5-0.4,0.9-0.7,1.1c-0.4,0.2-0.7,0.5-1.2,0.9c0.2,0.2,0.5,0.5,0.9,1.1c0.7,0.9,1.1,1.4,1.6,2.5 c0.5,0.7,0.7,1.1,0.9,1.1l0.2,0.2c0.2,0,0.2,0,0.4,0c0,0.2,0,0.2,0,0.5c-0.2,0-0.5,0-0.7,0s-0.5,0-0.7,0.2 c-0.2-0.4-0.7-1.1-1.4-2.1c-0.4-0.5-0.7-1.1-1.1-1.4c-0.5-0.5-0.9-1.3-1.6-1.6c0-0.2,0-0.2,0-0.2c0.2,0,0.4,0,0.5,0 c0.7-0.2,1.2-0.4,1.6-0.9c0.4-0.5,0.5-1.1,0.4-1.8c-0.2-0.5-0.2-1.1-0.7-1.4c-0.4-0.4-0.9-0.5-1.6-0.4 c-0.5,0.2-0.9,0.2-1.2,0.5c0,0.2,0.2,0.5,0.2,0.9c0,0.2,0.2,0.9,0.4,2.3c0.2,1.4,0.4,2.1,0.5,3.4c0.2,0.7,0.2,1.4,0.5,2.1 c0.2,0.5,0.2,0.9,0.2,0.9c0.2,0.2,0.2,0.2,0.2,0.2s0.4,0,0.9,0c0,0.2,0.2,0.2,0.2,0.5c-0.5,0-0.9,0.2-1.4,0.2 c-0.4,0-0.9,0.2-1.6,0.2c-0.2-0.2-0.2-0.2-0.2-0.5c0.5-0.2,0.5-0.2,0.7-0.2c0.2-0.2,0.2-0.2,0.2-0.2c0-0.2,0-0.4-0.2-0.7 c0-0.2-0.2-0.9-0.5-2.1c-0.2-1.4-0.5-2.1-0.7-3.6c-0.2-0.7-0.2-1.4-0.5-2.1c-0.2-1.1-0.2-1.4-0.4-1.4c-0.2-0.2-0.2-0.2-0.2-0.2 C-94.3,10.9-94.5,10.9-95.2,11.1z"/><path fill="#030" d="M-85.4,20.8c0-0.2,0-0.4,0-0.5c0.2,0,0.5,0,0.5-0.2c0.2,0,0.2-0.2,0.2-0.2c0.2-0.2,0.2-0.2,0.2-0.5 c0.2-0.2,0.2-0.9,0.7-2.3c0.5-1.8,0.9-2.7,1.6-4.5c0.2-0.4,0.5-1.4,1.1-3.2c0.2,0,0.2,0,0.5,0c0.9,3.2,1.4,4.8,2.1,8.1 c0.2,1.3,0.5,2.1,0.5,2.5c0.2,0.2,0.2,0.4,0.2,0.4c0.2,0.2,0.2,0.2,0.5,0.2c0,0.2,0,0.4-0.2,0.5c-0.5-0.2-0.9-0.2-1.2-0.2 c-0.7,0-0.9,0-1.6,0c0-0.2,0-0.4,0-0.5c0.4,0,0.5,0,0.7,0s0.2-0.2,0.2-0.2c0-0.2,0.2-0.2,0.2-0.2c0-0.2,0-0.2,0-0.5 c-0.2-0.9-0.2-1.4-0.5-2.5c-1.4-0.2-2.1-0.2-3.4-0.2c-0.2,0.9-0.4,1.1-0.5,2.1c-0.2,0.4-0.2,0.5-0.2,0.9c0,0.2,0,0.2,0.2,0.2 c0,0.2,0.2,0.2,0.2,0.2c0.2,0,0.4,0.2,0.7,0.2c0,0.2,0,0.4,0,0.5c-0.5-0.2-1.1-0.2-1.4-0.2C-84.6,20.6-85.1,20.6-85.4,20.8z M-83,16.3c1.1,0,1.8,0,3,0.2c-0.5-2-0.7-2.9-1.2-4.8C-81.9,13.6-82.3,14.3-83,16.3z"/><path fill="#030" d="M-75.2,10.4c0-0.2,0.2-0.2,0.2-0.5c0.7,0.2,1.2,0.2,1.6,0.2s0.9,0.2,1.8,0.2c0.9,0.2,1.4,0.2,1.8,0.2 c0.4,0.2,0.5,0.2,0.9,0.2c0.2,0.2,0.5,0.2,0.7,0.2c-0.2,0.5-0.5,1.1-0.9,2.3c-0.2,0-0.2-0.2-0.4-0.2c0.2-0.5,0.2-1.4,0.2-1.4 c-0.2-0.2-0.5-0.2-0.9-0.4s-0.7-0.2-1.1-0.2s-0.9-0.2-1.4-0.2c-0.2,0.2-0.2,0.5-0.2,0.9c0,0.2-0.2,0.7-0.4,1.8 c-0.2,0.9-0.2,1.3-0.4,2c0.5,0.2,0.9,0.2,1.1,0.2c0.5,0.2,0.9,0.2,1.2,0.2c0.2,0,0.2,0,0.2-0.2s0.2-0.2,0.2-0.5 c0.2-0.2,0.2-0.2,0.2-0.5c0.2,0,0.2,0,0.4,0.2c-0.2,0.7-0.4,1.1-0.5,1.6c-0.2,0.7-0.2,1.1-0.5,1.8c-0.2,0-0.2,0-0.4-0.2 c0-0.2,0.2-0.2,0.2-0.5c0.2-0.5,0.2-0.9,0.2-0.9c0-0.2-0.2-0.2-0.2-0.2c-0.2-0.2-0.7-0.2-1.6-0.4c-0.2,0-0.5-0.2-0.9-0.2 c-0.2,0.5-0.2,0.9-0.4,1.6c-0.2,0.7-0.2,1.4-0.4,2.1c0,0.5,0,0.9,0,0.9l0.2,0.2c0.2,0.2,0.4,0.2,0.7,0.2 c-0.2,0.2-0.2,0.2-0.2,0.5c-0.5-0.2-0.9-0.2-1.4-0.2c-0.4-0.2-0.9-0.2-1.8-0.2c0-0.2,0.2-0.2,0.2-0.5c0.5,0,0.7,0,0.9,0 s0.2-0.2,0.2-0.2c0.2-0.2,0.2-0.5,0.2-0.9c0-0.2,0.2-0.9,0.5-2.3c0.4-1.4,0.4-2.1,0.5-3.6c0.2-0.7,0.2-1.4,0.4-2.1 c0.2-0.2,0.2-0.5,0.2-0.7s-0.2-0.2-0.2-0.2C-74.5,10.5-74.8,10.5-75.2,10.4z"/><path fill="#030" d="M-67.7,13.6c-0.2,0-0.2-0.2-0.4-0.2c0.4-1.3,0.5-2.1,0.7-2.5c0.5,0.2,1.2,0.2,2.3,0.5 c0.9,0.2,1.4,0.4,1.6,0.5c0.2,0.2,0.9,0.2,2.1,0.5c0.9,0.2,1.4,0.4,1.6,0.5c-0.4,0.5-0.7,1.4-1.2,2.5c-0.2-0.2-0.2-0.2-0.4-0.2 c0.2-0.2,0.2-0.5,0.2-0.7C-61,14.1-61,14-61,14c0-0.2,0-0.2,0-0.2s0-0.2-0.2-0.2c-0.2,0-0.2-0.2-0.5-0.2 c-0.4-0.2-0.5-0.2-0.9-0.2c-0.2-0.2-0.5-0.2-0.9-0.2c-0.2,0.5-0.5,1.1-0.9,2.1c-0.7,1.8-1.1,2.7-1.8,4.5 c-0.2,0.7-0.5,1.4-0.9,2.1c-0.2,0.5-0.2,0.9-0.2,0.9c0,0.2,0,0.2,0.2,0.2c0.2,0.2,0.2,0.2,0.7,0.2c-0.2,0.2-0.2,0.2-0.2,0.5 c-0.5-0.2-1.1-0.4-1.4-0.5c-0.2,0-0.5-0.2-1.6-0.4c0.2-0.2,0.2-0.2,0.2-0.5c0.5,0.2,0.7,0.2,0.9,0.2s0.2-0.2,0.2-0.2 c0.2-0.2,0.2-0.4,0.4-0.7c0-0.2,0.4-0.9,0.9-2.1c0.5-1.8,0.9-2.7,1.6-4.5c0.2-0.2,0.2-0.5,0.2-0.7c0.2-0.5,0.2-0.9,0.5-1.3 c-0.4-0.2-0.5-0.2-0.9-0.2c-0.5-0.2-0.9-0.2-1.4-0.2c-0.2,0-0.2,0-0.2,0.2c-0.2,0-0.2,0.2-0.5,0.7 C-67.6,13.1-67.7,13.4-67.7,13.6z"/><path fill="#030" d="M-96.8,61.8c0.2-0.2,0.2-0.2,0.2-0.5c0.5,0.2,1.1,0.5,1.4,0.5c0.2,0.2,0.5,0.2,0.9,0.2 c0.2,0.2,0.5,0.2,0.7,0.2s0.2,0,0.2,0.2c0.5,0.2,0.9,0.4,1.1,0.5c0.2,0.2,0.4,0.5,0.5,1.1c0.2,0.5,0,0.9-0.2,1.4 c-0.2,0.5-0.2,0.9-0.5,1.4c-0.2,0.5-0.5,0.9-0.9,0.9c-0.4,0.2-0.7,0.4-1.1,0.5c-0.2,0-0.5,0-0.9-0.2c-0.4-0.2-0.5-0.2-0.7-0.4 c0-0.2,0-0.4,0.2-0.5c0.2,0.2,0.5,0.4,0.7,0.4c0.2,0.2,0.5,0.2,0.9-0.2c0.2-0.2,0.5-0.4,0.9-0.7c0.2-0.4,0.5-0.9,0.5-1.3 c0.2-0.5,0.2-0.9,0.2-1.3c0-0.4-0.2-0.7-0.2-0.9c-0.2-0.2-0.5-0.5-0.9-0.5c-0.2-0.2-0.5-0.2-1.1,0c-0.2,0.5-0.5,1.4-0.9,2.7 c-0.5,1.6-0.9,2.5-1.4,3.9c-0.2,0.7-0.5,1.4-0.7,2.1C-98,72-98,72.3-98,72.3c0.2,0.2,0.2,0.2,0.2,0.2s0.4,0.2,0.9,0.4 c-0.2,0.2-0.2,0.2-0.2,0.5c-0.7-0.2-1.2-0.5-1.6-0.5c-0.2-0.2-0.9-0.2-1.9-0.5c0.2-0.2,0.2-0.2,0.2-0.5 c0.5,0.2,0.7,0.2,0.9,0.2c0.2,0,0.2,0,0.2-0.2c0.2-0.2,0.2-0.4,0.4-0.7c0-0.2,0.4-0.9,0.9-2.1c0.5-1.4,0.9-2.1,1.4-3.6 c0.2-0.7,0.5-1.4,0.7-2.1c0.2-0.5,0.2-0.9,0.2-0.9s0-0.2-0.2-0.2C-96.2,61.9-96.6,61.9-96.8,61.8z"/><path fill="#030" d="M-89.7,75c0,0.2,0,0.4-0.2,0.5c-0.9-0.2-1.4-0.2-1.6-0.4c-0.9-0.2-1.1-0.2-1.9-0.4 c0.2-0.2,0.2-0.2,0.2-0.5c0.5,0.2,0.9,0.2,0.9,0.2l0.2-0.2c0.2-0.2,0.2-0.4,0.2-0.9c0-0.2,0.2-0.9,0.5-2.5 c0.2-1.6,0.5-2.3,0.7-3.9c0.2-0.7,0.2-1.4,0.4-2.1c0.2-0.5,0.2-0.9,0.2-0.9l-0.2-0.2c-0.2-0.2-0.2-0.2-0.5-0.2 c0.2-0.2,0.2-0.2,0.2-0.5c0.5,0.2,1.1,0.2,1.4,0.4c0.4,0.2,0.9,0.2,1.4,0.2c0,0.2,0,0.4-0.2,0.5c-0.4,0-0.5-0.2-0.7,0 c-0.2,0-0.2,0.2-0.2,0.2c0,0.2,0,0.4-0.2,0.9c0,0.2-0.2,0.9-0.5,2.5c-0.2,1.6-0.4,2.5-0.5,3.9c-0.2,0.7-0.2,1.4-0.4,2.1 c-0.2,0.5-0.2,0.9-0.2,0.9l0.2,0.2C-90.4,74.6-90.2,74.8-89.7,75z"/><path fill="#030" d="M-80.7,74.5c-0.2,0.4-0.2,0.5-0.2,0.9c-0.5,0.4-0.9,0.5-1.4,0.7c-0.4,0.2-0.9,0.2-1.6,0.2 s-1.2-0.2-1.8-0.5c-0.5-0.2-0.9-0.5-1.4-1.1c-0.4-0.5-0.5-0.9-0.9-1.4c-0.2-0.5-0.4-1.1-0.4-1.6c-0.2-0.5,0-1.3,0.2-2.1 c0.2-1.8,0.9-3.2,1.6-4.3c0.9-1.1,1.8-1.6,3.2-1.6c0.2,0,0.5,0,0.9,0.2c0.2,0.2,0.5,0.2,0.9,0.4c0.4,0.2,0.5,0.2,0.5,0.2 c-0.2,0-0.2,0.4-0.2,0.7c0,0.5-0.2,1.1,0,1.6c-0.2,0-0.2,0-0.4,0c0-0.4,0-0.5,0-0.9c0-0.5-0.2-0.9-0.5-1.3 c-0.2-0.2-0.9-0.4-1.4-0.4s-0.9,0.2-1.1,0.2c-0.4,0.2-0.5,0.5-0.9,0.9c-0.5,0.5-0.7,0.9-0.9,1.6c-0.2,0.5-0.4,1.4-0.5,2.5 c-0.2,1.6,0.2,3.2,0.7,4.3c0.5,1.1,1.6,1.6,3,1.6c0.5,0,1.1-0.2,1.6-0.4c0.4-0.2,0.5-0.4,0.9-0.7 C-80.8,74.3-80.8,74.5-80.7,74.5z"/><path fill="#030" d="M-76.2,75c0,0.2,0,0.4,0.2,0.5c-0.7,0.2-1.1,0.2-1.9,0.2c-0.2,0-0.7,0.2-1.8,0.2c0-0.2,0-0.4,0-0.5 c0.5,0,0.9-0.2,0.9-0.2c0.2-0.2,0.2-0.2,0.2-0.2c0-0.2,0.2-0.4,0-0.9c0-0.2-0.2-0.9-0.2-2.5c-0.2-1.6-0.2-2.5-0.4-3.9 c-0.2-0.7-0.2-1.4-0.2-2.1c-0.2-0.5-0.2-0.9-0.2-0.9l-0.2-0.2c0,0-0.4-0.2-0.7,0c0-0.2,0-0.4,0-0.5c0.5,0,1.1,0,1.4-0.2 c0.4,0,0.9-0.2,1.4-0.2c0,0.2,0,0.4,0.2,0.5c-0.4,0.2-0.5,0.2-0.7,0.2c-0.2,0.2-0.2,0.2-0.2,0.2c0,0.2,0,0.4,0,0.9 c0,0.2,0.2,0.9,0.2,2.5c-0.2,0.9-0.2,1.3,0,1.8c0.2-0.2,0.4-0.5,0.5-0.9c0.2-0.5,0.4-0.7,0.5-1.1c0.4-0.9,0.5-1.3,0.9-2.1 c0.2-0.9,0.5-1.4,0.5-1.6c0-0.2-0.2-0.4-0.2-0.5c0.4-0.2,0.5-0.2,0.9-0.2c0.2-0.2,0.5-0.2,0.7-0.2c0.2,0.2,0.2,0.4,0.2,0.5 c-0.2,0.2-0.5,0.2-0.5,0.2c-0.2,0.2-0.2,0.2-0.2,0.4c-0.2,0.2-0.4,0.9-0.7,1.6c-0.5,1.4-0.9,2.1-1.6,3.4 c1.6,1.6,2.5,2.5,4.2,4.3c0.7,0.5,1.1,0.9,1.2,0.9s0.2,0,0.5-0.2c0,0.2,0,0.2,0,0.5c-0.5,0.2-0.7,0.2-0.9,0.2 c-0.2,0-0.5,0.2-0.9,0.2c-0.2-0.2-0.5-0.5-1.2-1.1c-0.2-0.2-0.5-0.5-0.9-0.7c-1.4-1.3-2.1-2-3.2-3.2c-0.2,0.2-0.2,0.2-0.2,0.2 c0.2,0.5,0.2,0.9,0.2,1.6c0.2,0.9,0.2,1.6,0.2,2.3c0.4,0.5,0.4,0.7,0.4,0.9c0.2,0.2,0.2,0.2,0.2,0.2 C-77.1,75.2-76.8,75.2-76.2,75z"/><path fill="#030" d="M-70.6,73.9c-0.2-0.5-0.2-1.4-0.5-2.7c0.2,0,0.2-0.2,0.4-0.2c0.2,0.9,0.4,1.3,0.5,1.4s0.2,0.2,0.5,0.4 c0.2,0.2,0.5,0.2,0.9,0.2c0.4,0,0.5,0,0.9-0.2c0.5-0.2,0.7-0.4,0.9-0.7c0.2-0.4,0.4-0.9,0.4-1.3c0-0.5-0.2-0.9-0.2-1.4 c-0.2-0.4-0.2-0.5-0.5-0.9c-0.2-0.2-0.4-0.4-0.5-0.5s-0.5-0.2-0.5-0.2c-0.2,0-0.5,0.2-0.9,0.2c-0.4,0-0.9,0.2-1.1,0.2 c-0.5-0.2-0.7-0.2-0.9-0.4c-0.2-0.2-0.5-0.5-0.5-0.9c-0.2-0.4-0.4-0.7-0.5-1.1c-0.2-0.5-0.2-1.3-0.2-2c0.2-0.5,0.2-1.1,0.5-1.6 c0.2-0.5,0.5-0.7,1.1-0.9c0.2-0.2,0.5-0.2,0.9-0.2s0.7,0.2,1.1,0.2c0.2,0.4,0.2,0.7,0.2,0.9c0.2,0.2,0.2,0.7,0.5,1.4 c-0.5,0.4-0.5,0.4-0.7,0.4c-0.5-0.7-0.7-1.3-0.7-1.3c-0.2-0.2-0.4-0.2-0.5-0.5c-0.5-0.2-0.9-0.2-1.1-0.2 c-0.5,0.2-0.7,0.5-0.9,1.1c-0.2,0.5-0.2,1.3,0.2,2.1c0.2,0.5,0.2,0.9,0.5,1.1c0.2,0.2,0.5,0.2,0.7,0.4c0.2,0.2,0.5,0.2,0.9,0 c0.5,0,0.9,0,1.2,0c0.4,0,0.7,0.2,0.9,0.2c0.2,0.2,0.5,0.4,0.7,0.5c0.2,0.2,0.5,0.5,0.5,1.1c0.5,1.1,0.5,2.1,0.2,3.2 c-0.2,1.1-1.1,1.8-2.1,2.1C-69,74.3-69.7,74.3-70.6,73.9z"/></g><g><g><g><text fill="#033" font-family="'MyriadPro-Regular'" font-size="74.905" transform="matrix(0.8107 0 0 1 -134.0347 68.5276)">T</text><text fill="#033" font-family="'MyriadPro-Regular'" font-size="49.937" transform="matrix(1.216 0 0 1 -103.8579 58.1223)">O</text><text fill="#033" font-family="'MyriadPro-Regular'" font-size="74.905" transform="matrix(0.8107 0 0 1 -62.0191 68.5276)">P</text><text fill="#FDBA31" font-family="'MyriadPro-Regular'" font-size="52.45" transform="matrix(0.7058 0 0 1 -91.3989 58.7619)">5</text><g><g><path fill="#FDBA31" d="M-99.8,22.5c-0.2-0.2-0.2-0.2-0.2-0.4c0.2-0.2,0.2-0.5,0.2-0.5c-0.2-0.4-0.2-0.9-0.5-1.4 c-0.5-0.9-0.7-1.6-0.9-2.1c-0.5-1.1-0.9-1.8-1.4-3c-0.2-0.5-0.5-0.9-0.9-1.6c-0.2-0.4-0.4-0.5-0.5-0.7 c-0.2-0.2-0.2-0.2-0.2-0.2c-0.2,0-0.5,0-0.9,0.2c-0.2-0.2-0.2-0.2-0.2-0.5c0.5-0.2,1.1-0.4,1.6-0.5 c0.4,0.2,0.9-0.2,1.6-0.4c0.5-0.2,1.1-0.4,1.6-0.5c1.1-0.2,2.1-0.4,2.7-0.2c0.7,0.2,1.4,0.5,2.1,1.3 c0.5,0.5,1.1,1.6,1.4,2.7c0.2,0.9,0.2,1.6,0.2,2.1c0,0.7-0.2,1.4-0.2,2c-0.2,0.5-0.4,0.9-0.5,1.4c-0.2,0.4-0.5,0.5-0.9,0.9 c-0.4,0.2-0.9,0.5-1.4,0.5c-0.2,0.2-0.5,0.2-0.9,0.2c-0.5,0.2-0.9,0.2-0.9,0.2C-98.9,22.2-99.2,22.4-99.8,22.5z M-98.5,21.1c0.5,0,0.9-0.2,1.2-0.2c0.5-0.2,0.9-0.2,1.1-0.5c0.2-0.2,0.5-0.5,0.7-0.5c0.2-0.2,0.4-0.5,0.5-0.9 c0.2-0.5,0.2-0.9,0.2-1.6c-0.2-0.5-0.2-1.3-0.4-2c-0.2-0.9-0.5-1.6-1.1-2.5c-0.5-0.5-1.1-0.9-1.6-1.3 c-0.7-0.2-1.6-0.2-2.5,0.2c-0.5,0.2-1.1,0.4-1.6,0.5c0.2,0.2,0.2,0.5,0.5,1.3c0.2,0.5,0.2,0.5,0.5,1.1 c0.5,1.1,0.7,1.6,1.2,2.9c0.4,0.9,0.5,1.4,0.9,2.3C-99.1,20.2-98.9,20.6-98.5,21.1z"/><path fill="#FDBA31" d="M-94.3,10.2c-0.2-0.2-0.2-0.2-0.2-0.5c0.2,0,0.5-0.2,0.9-0.2c0.5-0.2,0.7-0.2,1.2-0.2 c0.2,0,0.5-0.2,1.1-0.2c0.7-0.2,1.1-0.2,1.2-0.2c0.9-0.2,1.6-0.2,1.9,0.2c0.5,0.2,0.7,0.5,0.9,0.9s0.4,0.9,0.5,1.3 c0,0.5,0,0.9-0.2,1.4c-0.2,0.5-0.4,0.9-0.7,1.1c-0.4,0.2-0.7,0.5-1.2,0.9c0.2,0.2,0.5,0.5,0.9,1.1c0.7,0.9,1.1,1.4,1.6,2.5 c0.5,0.7,0.7,1.1,0.9,1.1l0.2,0.2c0.2,0,0.2,0,0.4,0c0,0.2,0,0.2,0,0.5c-0.2,0-0.5,0-0.7,0c-0.2,0-0.5,0-0.7,0.2 c-0.2-0.4-0.7-1.1-1.4-2.1c-0.4-0.9-0.7-1.3-1.1-1.6c-0.5-0.5-0.9-1.3-1.6-1.6c0-0.2,0-0.2,0-0.2c0.2,0,0.4,0,0.5,0 c0.7-0.2,1.2-0.4,1.6-0.9c0.4-0.4,0.5-0.9,0.4-1.6c-0.2-0.5-0.2-1.1-0.7-1.4c-0.4-0.4-0.9-0.5-1.6-0.4 c-0.5,0.2-0.9,0.2-1.2,0.5c0,0.2,0.2,0.5,0.2,0.9c0,0.2,0.2,0.9,0.4,2.3c0.2,1.4,0.4,2.1,0.5,3.4c0.2,0.7,0.2,1.4,0.5,2.1 c0.2,0.5,0.2,0.9,0.2,0.9c0.2,0.2,0.2,0.2,0.2,0.2c0.2,0,0.4,0,0.9,0c0,0.2,0.2,0.2,0.2,0.5c-0.5,0-0.9,0.2-1.4,0.2 s-0.9,0.2-1.6,0.2c-0.2-0.2-0.2-0.2-0.2-0.5c0.5-0.2,0.5-0.2,0.7-0.2c0.2-0.2,0.2-0.2,0.2-0.2c0-0.2,0-0.4-0.2-0.7 c0-0.2-0.2-0.9-0.5-2.1c-0.2-1.4-0.5-2.1-0.7-3.6c-0.2-0.7-0.2-1.4-0.5-2.1c0-1.1-0.2-1.4-0.2-1.4 c-0.2-0.2-0.2-0.2-0.2-0.2C-93.4,10.2-93.8,10.2-94.3,10.2z"/><path fill="#FDBA31" d="M-84.6,19.9c0-0.2,0-0.4,0-0.5c0.2,0,0.5,0,0.5-0.2c0.2,0,0.2-0.2,0.2-0.2c0.2-0.2,0.2-0.2,0.2-0.5 c0.2-0.2,0.2-0.9,0.7-2.3c0.5-1.8,0.9-2.7,1.6-4.5c0.2-0.4,0.5-1.4,1.1-3.2c0.2,0,0.2,0,0.5,0c0.9,3.2,1.4,4.8,2.1,8.1 c0.2,1.3,0.5,2.1,0.5,2.5c0,0.2,0,0.4,0,0.4c0.2,0.2,0.2,0.2,0.5,0.2c0,0.2,0,0.4-0.2,0.5c-0.5-0.2-0.9-0.2-1.1-0.2 c-0.7,0-0.9,0-1.6,0c0-0.2,0-0.4,0-0.5c0.4,0,0.5,0,0.7,0c0.2,0,0.2-0.2,0.2-0.2c0-0.2,0.2-0.2,0.2-0.2s0-0.2,0-0.5 c-0.2-0.9-0.2-1.4-0.5-2.5c-1.4-0.2-2.1-0.2-3.4-0.2c-0.2,0.9-0.4,1.1-0.5,2.1c-0.2,0.5-0.2,0.9-0.2,0.9s0,0.2,0.2,0.2 c0,0.2,0.2,0.2,0.2,0.2c0.2,0,0.4,0.2,0.7,0.2c0,0.2,0,0.4,0,0.5c-0.5-0.2-1.1-0.2-1.4-0.2C-83.8,19.9-84.2,19.9-84.6,19.9 z M-81.9,15.4c1.1,0,1.8,0,3,0.2c-0.5-2-0.7-2.9-1.2-4.8C-81,12.5-81.5,13.6-81.9,15.4z"/><path fill="#FDBA31" d="M-74.3,9.3c0-0.2,0.2-0.2,0.2-0.5c0.7,0.2,1.2,0.2,1.6,0.2c0.4,0,0.9,0.2,1.8,0.2 c0.9,0.2,1.4,0.2,1.8,0.2s0.5,0.2,0.9,0.2c0.2,0.2,0.5,0.2,0.7,0.2c-0.2,0.5-0.5,1.1-0.9,2.3c-0.2,0-0.2-0.2-0.4-0.2 c0.2-0.5,0.2-1.4,0.2-1.4c-0.2-0.2-0.5-0.2-0.9-0.4c-0.4-0.2-0.7-0.2-1.1-0.2c-0.5-0.2-0.9-0.2-1.4-0.2 C-72,9.8-72,10.2-72,10.5c0,0.2-0.2,0.7-0.4,1.8c0,0.7,0,0.9-0.2,1.6c0.5,0.2,0.9,0.2,1.1,0.2c0.5,0.2,0.9,0.2,1.2,0.2 c0.2,0,0.2,0,0.2-0.2c0,0.2,0.2,0.2,0.2-0.4c0.2-0.2,0.2-0.2,0.2-0.5c0.2,0,0.2,0,0.4,0.2c-0.2,0.7-0.4,1.1-0.5,1.6 c-0.2,0.7-0.2,1.1-0.5,2c-0.2,0-0.2,0-0.4-0.2c0-0.2,0.2-0.2,0.2-0.5c0.2-0.5,0.2-0.9,0.2-0.9c0-0.2-0.2-0.2-0.2-0.2 c-0.2-0.2-0.7-0.2-1.6-0.4c-0.2,0-0.5-0.2-0.9-0.2c-0.2,0.5-0.2,0.9-0.4,1.6c-0.2,0.7-0.2,1.4-0.4,2.1 c-0.2,0.5-0.2,0.9-0.2,0.9c0,0.2,0.2,0.2,0.2,0.2c0.2,0.2,0.4,0.2,0.7,0.2c-0.2,0.2-0.2,0.2-0.2,0.5 c-0.5-0.2-0.9-0.2-1.4-0.2c-0.4-0.2-0.9-0.2-1.8-0.2c0-0.2,0.2-0.2,0.2-0.5c0.5,0,0.7,0,0.9,0c0.2,0,0.2-0.2,0.2-0.2 C-75,19-75,18.8-75,18.4c0-0.2,0.2-0.9,0.5-2.3c0.4-1.4,0.4-2.1,0.5-3.6c0.5-0.9,0.5-1.6,0.7-2.1c0.2-0.5,0.2-0.9,0.2-0.9 s-0.2-0.2-0.2-0.4C-73.4,9.5-73.8,9.5-74.3,9.3z"/><path fill="#FDBA31" d="M-66.9,12.7c-0.2,0-0.2-0.2-0.4-0.2c0.4-1.3,0.5-2.1,0.7-2.5c0.5,0.2,1.2,0.2,2.3,0.5 c0.9,0.2,1.4,0.4,1.6,0.5c0.2,0.2,0.9,0.2,2.1,0.5c0.9,0.2,1.4,0.4,1.6,0.5c-0.4,0.5-0.7,1.4-1.2,2.5 c-0.2-0.2-0.2-0.2-0.4-0.2c0.2-0.2,0.2-0.5,0.2-0.7c0.2-0.5,0.2-0.7,0.2-0.7c0-0.2,0-0.2,0-0.2s0-0.2-0.2-0.2 s-0.2-0.2-0.5-0.2c-0.4-0.2-0.5-0.2-0.9-0.2c-0.2-0.2-0.5-0.2-0.9-0.2c-0.2,0.5-0.5,1.1-0.9,2.1c-0.7,1.8-1.1,2.7-1.8,4.5 c-0.2,0.7-0.5,1.4-0.9,2.1c-0.2,0.5-0.2,0.9-0.2,0.9c0,0.2,0,0.2,0.2,0.2c0.2,0.2,0.2,0.2,0.7,0.2c0.2,0.2,0.2,0.4,0.2,0.5 c-0.5-0.2-1.1-0.4-1.4-0.5c-0.2,0-0.5-0.2-1.6-0.4c0.2-0.2,0.2-0.2,0.2-0.5c0.5,0.2,0.7,0.2,0.9,0.2c0.2,0,0.2-0.2,0.2-0.2 c0.2-0.2,0.2-0.4,0.4-0.7c0-0.2,0.4-0.9,0.9-2.1c0.5-1.8,0.9-2.7,1.6-4.5c0.2-0.2,0.2-0.5,0.2-0.7c0.2-0.5,0.2-0.9,0.5-1.3 c-0.4-0.2-0.5-0.2-0.9-0.2c-0.5-0.2-0.9-0.2-1.4-0.2c-0.2,0-0.2,0-0.2,0.2c-0.2,0-0.2,0.2-0.5,0.7 C-66.7,12.2-66.7,12.5-66.9,12.7z"/></g></g><g><g><path fill="#FDBA31" d="M-96.1,60.9c0.2-0.2,0.2-0.2,0.2-0.5c0.5,0.2,1.1,0.5,1.4,0.5c0.2,0.2,0.5,0.2,0.9,0.2 c0.2,0.2,0.5,0.2,0.7,0.2c0.2,0,0.2,0,0.2,0.2c0.5,0.2,0.9,0.4,1.1,0.5c0.2,0.2,0.4,0.5,0.5,1.1c0.2,0.5,0,0.9-0.2,1.4 c-0.2,0.5-0.2,0.9-0.5,1.4c-0.2,0.5-0.5,0.9-0.9,0.9c-0.4,0.2-0.7,0.4-1.1,0.5c-0.2,0-0.5,0-0.9-0.2 c-0.2-0.2-0.5-0.2-0.7-0.4c0-0.2,0-0.4,0.2-0.5c0.2,0.2,0.5,0.4,0.7,0.4c0.2,0.2,0.5,0.2,0.9-0.2c0.2-0.2,0.5-0.4,0.9-0.7 c0.2-0.4,0.5-0.9,0.5-1.3c0.2-0.5,0.2-0.9,0.2-1.3c0-0.5-0.2-0.7-0.2-0.9c0-0.2-0.5-0.5-0.9-0.5c-0.2-0.2-0.5-0.2-1.1,0 c-0.2,0.5-0.5,1.4-0.9,2.7c-0.5,1.6-0.9,2.5-1.4,3.9c-0.2,0.7-0.5,1.4-0.7,2.1c-0.2,0.5-0.2,0.9-0.2,0.9 c0.2,0.2,0.2,0.2,0.2,0.2c0.2,0.2,0.4,0.2,0.9,0.4c-0.2,0.2-0.2,0.2-0.2,0.5c-0.7-0.2-1.2-0.5-1.6-0.5 c-0.2-0.2-0.9-0.2-1.9-0.5c0.2-0.2,0.2-0.2,0.2-0.5c0.5,0.2,0.7,0.2,0.9,0.2s0.2,0,0.2-0.2c0.2-0.2,0.2-0.4,0.4-0.7 c0-0.2,0.4-0.9,0.9-2.1c0.5-1.4,0.9-2.1,1.4-3.6c0.2-0.7,0.5-1.4,0.7-2.1c0.2-0.5,0.2-0.9,0.2-0.9c0-0.2,0-0.2-0.2-0.2 C-95.4,61.2-95.7,61-96.1,60.9z"/><path fill="#FDBA31" d="M-88.8,73.9c0,0.2,0,0.4-0.2,0.5c-0.9-0.2-1.4-0.2-1.6-0.4c-0.9-0.2-1.1-0.2-1.9-0.4 c0.2-0.2,0.2-0.2,0.2-0.5c0.5,0.2,0.9,0.2,0.9,0.2c0.2,0,0.2-0.2,0.2-0.2c0.2-0.2,0.2-0.4,0.2-0.9c0-0.2,0.2-0.9,0.5-2.5 c0.2-1.6,0.5-2.3,0.7-3.9c0.2-0.7,0.2-1.4,0.4-2.1c0.2-0.5,0.2-0.9,0.2-0.9l-0.2-0.2c-0.2-0.2-0.2-0.2-0.5-0.2 c0-0.2,0-0.2,0-0.5c0.5,0.2,1.1,0.2,1.4,0.4c0.4,0.2,0.9,0.2,1.4,0.2c0,0.2,0,0.4-0.2,0.5c-0.4,0-0.5-0.2-0.7,0 c-0.2,0-0.2,0.2-0.2,0.2s0,0.4-0.2,0.9c0,0.2-0.2,0.9-0.5,2.5c-0.2,1.6-0.4,2.5-0.5,3.9c-0.2,0.7-0.2,1.4-0.4,2.1 c-0.2,0.5-0.2,0.9-0.2,0.9c0,0.2,0.2,0.2,0.2,0.2C-89.5,73.9-89.3,73.9-88.8,73.9z"/><path fill="#FDBA31" d="M-79.6,73.6c-0.2,0.4-0.2,0.5-0.2,0.9c-0.5,0.4-0.9,0.5-1.4,0.7c-0.5,0.2-1.1,0.2-1.6,0.2 c-0.5,0-1.2-0.2-1.8-0.5c-0.5-0.2-0.9-0.5-1.4-1.1c-0.4-0.5-0.5-0.9-0.9-1.4c-0.2-0.5-0.4-1.1-0.4-1.6 c-0.2-0.5,0-1.3,0.2-2.1c0.2-1.8,0.9-3.2,1.6-4.3c0.9-1.1,1.8-1.6,3.2-1.6c0.2,0,0.5,0,0.9,0.2c0.4,0.2,0.5,0.2,0.9,0.4 c0.2,0.2,0.5,0.2,0.5,0.2c-0.2,0.2-0.2,0.5-0.2,0.9c0,0.5-0.2,1.1,0,1.6c-0.2,0-0.2,0-0.4,0c0-0.4,0-0.5,0-0.9 c-0.2-0.5-0.2-0.9-0.5-1.3c-0.2-0.2-0.7-0.2-1.2-0.2s-0.9,0.2-1.1,0.2c-0.4,0.2-0.5,0.5-0.9,0.9c-0.2,0.4-0.5,0.9-0.7,1.6 c-0.2,0.5-0.4,1.4-0.5,2.5c-0.2,1.6,0.2,3.2,0.7,4.3c0.5,1.1,1.6,1.6,3,1.6c0.5,0,1.1-0.2,1.6-0.4c0.4-0.2,0.5-0.4,0.9-0.7 C-79.8,73.4-79.8,73.6-79.6,73.6z"/><path fill="#FDBA31" d="M-75.4,74.1c0,0.2,0,0.4,0.2,0.5c-0.9,0.2-1.2,0.2-1.9,0.2c-0.2,0-0.7,0.2-1.8,0.2 c0-0.2,0-0.4,0-0.5c0.5,0,0.9-0.2,0.9-0.2l0.2-0.2c0-0.2,0.2-0.4,0-0.9c0-0.2-0.2-0.9-0.2-2.5c-0.2-1.6-0.2-2.5-0.4-3.9 c-0.2-0.9-0.2-1.6-0.2-2.3c-0.2-0.5-0.2-0.9-0.2-0.9l-0.2-0.2c0,0-0.4-0.2-0.7,0c0-0.2,0-0.4,0-0.5c0.5,0,1.1,0,1.4-0.2 c0.4,0,0.9-0.2,1.4-0.2c0,0.2,0,0.4,0.2,0.5c-0.4,0-0.7,0-0.9,0.2c-0.2,0.2-0.2,0.2-0.2,0.2c0,0.2,0,0.4,0,0.9 c0,0.2,0.2,0.9,0.2,2.5c0.2,0.7,0.2,1.1,0.2,1.6c0.2-0.2,0.4-0.5,0.5-0.9c0.2-0.5,0.4-0.7,0.5-1.1c0.4-0.9,0.5-1.3,0.9-2.1 c0.2-0.9,0.5-1.4,0.5-1.6c0-0.2-0.2-0.4-0.2-0.5c0.4,0,0.7,0,0.9-0.2s0.5-0.2,0.7-0.2c0.2,0.2,0.2,0.4,0.2,0.5 c-0.2,0.2-0.5,0.2-0.5,0.2c-0.2,0.2-0.2,0.2-0.2,0.4c-0.2,0.2-0.5,0.7-0.9,1.6c-0.5,1.4-0.9,2.1-1.6,3.4 c1.6,1.6,2.5,2.5,4.2,4.3c0.7,0.5,1.1,0.9,1.2,0.9c0.2,0.2,0.2,0.2,0.5,0c0.2,0.2,0.2,0.2,0.2,0.5 c-0.5,0.2-0.7,0.2-0.9,0.2c-0.2,0-0.5,0.2-0.9,0.2c-0.2-0.2-0.5-0.5-1.2-1.1c-0.2-0.2-0.5-0.5-0.9-0.7 c-1.4-1.3-2.1-2-3.2-3.2c-0.4,0.2-0.4,0.2-0.4,0.2c0.2,0.5,0.2,0.9,0.2,1.6c0.2,0.9,0.2,1.6,0.2,2.3 c0.2,0.5,0.2,0.7,0.2,0.9c0.2,0,0.2,0.2,0.2,0.2C-76.2,74.3-75.9,74.3-75.4,74.1z"/><path fill="#FDBA31" d="M-69.7,73.2c0-0.5-0.2-1.4-0.5-2.7c0.2,0,0.2,0,0.2,0c0.2,0.7,0.4,1.3,0.5,1.4 c0.2,0.2,0.2,0.2,0.5,0.4c0.2,0.2,0.5,0.2,0.9,0.2c0.4,0,0.5,0,0.9-0.2c0.5-0.2,0.7-0.4,0.9-0.7s0.4-0.9,0.4-1.3 c0-0.5-0.2-0.9-0.2-1.4c-0.2-0.4-0.2-0.5-0.5-0.9c-0.2-0.2-0.4-0.4-0.5-0.5c-0.2-0.2-0.5-0.2-0.5-0.2 c-0.2,0-0.5,0.2-0.9,0.2c-0.4,0-0.9,0.2-1.1,0.2c-0.5-0.2-0.7-0.2-0.9-0.4c-0.2-0.2-0.5-0.5-0.5-0.9 c-0.2-0.4-0.4-0.7-0.5-1.1c-0.2-0.7-0.2-1.4-0.2-2c0.2-0.5,0.2-1.1,0.5-1.6c0.2-0.5,0.7-0.7,1.1-0.9 c0.2-0.2,0.5-0.2,0.9-0.2c0.4,0,0.7,0.2,1.1,0.2c0.2,0.4,0.2,0.7,0.2,0.9c0.2,0.2,0.2,0.9,0.5,1.4 c-0.2,0.2-0.2,0.2-0.4,0.2c-0.2-0.9-0.5-1.3-0.5-1.4c-0.2-0.2-0.4-0.2-0.5-0.5c-0.5-0.2-0.9-0.2-1.1-0.2 c-0.5,0.2-0.7,0.5-0.9,1.1c-0.2,0.5-0.2,1.3,0.2,2.1c0.2,0.5,0.2,0.9,0.5,1.1c0.2,0.2,0.5,0.4,0.7,0.5 c0.2,0.2,0.5,0.2,0.9,0c0.4-0.2,0.9-0.2,1.2-0.2s0.7,0.2,0.9,0.2c0.2,0,0.5,0.4,0.7,0.5s0.5,0.5,0.5,1.1 c0.5,1.1,0.5,2.1,0.2,3.2c-0.4,0.9-1.1,1.6-2.1,2.1C-68.1,73.4-69,73.4-69.7,73.2z"/></g></g></g></g></g></g></g></g><g><image id="Img_Shadow" width="369" height="74" enable-background="new" overflow="visible" transform="matrix(0.6771 0 0 0.6771 29.5533 24.6875)" xlink:href="CAAC89348BD7C01.png"/><g><text fill="#033" font-family="'MyriadPro-Regular'" font-size="37.789" transform="matrix(0.4166 0 0 1 34.2157 58.1221)">WHO DO YOU THINK WILL GO FIRST?</text></g></g></g></svg>