<?xml version="1.0" encoding="utf-8"?>
<!-- Generator: Adobe Illustrator 18.1.1, SVG Export Plug-In . SVG Version: 6.00 Build 0)  -->
<svg version="1.1" id="Layer_1" xmlns="http://www.w3.org/2000/svg" xmlns:xlink="http://www.w3.org/1999/xlink" x="0px" y="0px"
	 viewBox="-64 0 960 90" enable-background="new -64 0 960 90" xml:space="preserve">
<g>
	
		<image overflow="visible" enable-background="new    " width="620" height="420" xlink:href="mm3.jpg"  transform="matrix(0.1451 0 0 0.1451 426.5146 14.3124)">
	</image>
	
		<image overflow="visible" enable-background="new    " width="620" height="420" xlink:href="jw5.jpg"  transform="matrix(0.1474 0 0 0.1451 506.2318 14.3124)">
	</image>
	
		<image overflow="visible" enable-background="new    " width="620" height="420" xlink:href="lw4.jpg"  transform="matrix(0.1442 0 0 0.1451 586.3712 14.3124)">
	</image>
	
		<image overflow="visible" enable-background="new    " width="620" height="420" xlink:href="kw1.jpg"  transform="matrix(0.1442 0 0 0.1451 667.1581 14.5312)">
	</image>
	
		<image overflow="visible" enable-background="new    " width="620" height="420" xlink:href="bp5.jpg"  transform="matrix(0.1442 0 0 0.1451 748.3011 14.5312)">
	</image>
	<g>
		
			<image overflow="visible" opacity="0.68" enable-background="new    " width="704" height="115" xlink:href="C439AC1F664BC235.png"  transform="matrix(0.6771 0 0 0.6771 409.8333 7.0833)">
		</image>
		<g>
			<g>
				<g>
					<g>
						
							<image overflow="visible" opacity="0.47" width="566" height="74" xlink:href="6C1C85A9A1F47437.png"  transform="matrix(1 0 0 1 -55 8)">
						</image>
						<g>
							<path fill="#FFFFFF" d="M506.5,14.5l-33.9,60.9h34.7 M426.1,75.6h-0.2V14.7H460L426.1,75.6z M426.6,74.7H-45.5V14.4h472.1
								V74.7z"/>
						</g>
					</g>
					<path fill="#FFFFFF" d="M506.7,75.5h-0.2V14.5h34.1L506.7,75.5z M587,14.5l-33.9,60.9h34.7 M587,75.5V14.5"/>
					<path fill="#FFFFFF" d="M587.2,75.5H587V14.5h34.1L587.2,75.5z M667.6,14.5l-33.9,60.9h34.7 M667.6,75.5V14.5"/>
					<path fill="#FFFFFF" d="M667.8,75.5h-0.2V14.5h34.1L667.8,75.5z M748.2,14.5l-33.9,60.9h34.7 M748.2,75.5V14.5"/>
					<path fill="#FFFFFF" d="M748.4,75.5h-0.2V14.5h34.1L748.4,75.5z M828.8,14.5l-33.9,60.9h34.7 M828.8,75.5V14.5"/>
				</g>
				<polygon fill="#FFFFFF" points="885.5,75.3 824.8,75.3 828.9,14.5 885.5,14.5 				"/>
				<rect x="-53" y="14.4" fill="#FFFFFF" width="17.2" height="60.2"/>
			</g>
		</g>
	</g>
	<rect x="-40.9" y="14.5" fill="#FFFFFF" width="466.8" height="60.7"/>
	<g>
		<g id="logo_1_">
			<g>
				<g>
					
						<text transform="matrix(0.8202 0 0 1 -40.9082 67.1417)" fill="#003300" font-family="'MyriadPro-Regular'" font-size="61.7868">T</text>
					
						<text transform="matrix(1.2303 0 0 1 -15.7221 58.5605)" fill="#003300" font-family="'MyriadPro-Regular'" font-size="41.1912">O</text>
					
						<text transform="matrix(0.8202 0 0 1 19.1933 67.1417)" fill="#003300" font-family="'MyriadPro-Regular'" font-size="61.7868">P</text>
					<text transform="matrix(0.7141 0 0 1 -5.3265 59.086)" fill="#003300" font-family="'MyriadPro-Regular'" font-size="43.2642">5</text>
					<path fill="#003300" d="M-12.3,29.2c-0.1-0.1-0.1-0.1-0.1-0.3c0.1-0.1,0.1-0.4,0.2-0.5c-0.1-0.3-0.2-0.7-0.5-1.2
						c-0.4-0.8-0.6-1.4-0.7-1.8c-0.5-0.9-0.7-1.5-1.2-2.5c-0.1-0.4-0.4-0.8-0.7-1.4c-0.1-0.3-0.3-0.5-0.4-0.6
						c-0.1-0.1-0.1-0.1-0.1-0.1c-0.1,0-0.4,0-0.7,0.1c0-0.1,0-0.1-0.1-0.3c0.5-0.2,1-0.3,1.5-0.4c0.3-0.1,0.7-0.2,1.3-0.4
						c0.5-0.1,0.9-0.3,1.3-0.4c0.9-0.2,1.7-0.3,2.2-0.1c0.6,0.2,1.2,0.5,1.7,1.1c0.5,0.5,0.9,1.3,1.2,2.2c0.1,0.7,0.2,1.3,0.2,1.8
						c0,0.6-0.1,1.2-0.2,1.6c-0.1,0.5-0.3,0.8-0.5,1.2c-0.2,0.3-0.5,0.5-0.7,0.7c-0.3,0.2-0.7,0.4-1.2,0.5c-0.1,0.1-0.5,0.1-0.7,0.1
						c-0.4,0.1-0.7,0.1-0.7,0.2C-11.6,28.9-11.8,29-12.3,29.2z M-11.2,28.1c0.4,0,0.7-0.1,1.1-0.1c0.4-0.1,0.7-0.2,0.9-0.4
						c0.2-0.1,0.5-0.4,0.6-0.5c0.1-0.2,0.3-0.5,0.4-0.8c0.1-0.4,0.1-0.8,0.1-1.4c-0.1-0.5-0.1-1.1-0.3-1.6c-0.2-0.7-0.5-1.4-0.9-2
						c-0.3-0.5-0.9-0.8-1.4-1.1c-0.6-0.1-1.3-0.1-2.1,0.1c-0.6,0.1-1,0.3-1.4,0.5c0.1,0.2,0.2,0.5,0.5,1.1c0.1,0.4,0.2,0.5,0.4,0.9
						c0.4,0.9,0.6,1.4,1.1,2.4c0.3,0.7,0.5,1.2,0.8,1.9C-11.6,27.3-11.5,27.7-11.2,28.1z"/>
					<path fill="#003300" d="M-7.7,19c-0.1-0.1-0.1-0.3-0.1-0.4c0.1,0,0.4-0.1,0.7-0.1c0.4-0.1,0.6-0.1,1.1-0.2
						c0.2,0,0.5-0.1,0.9-0.1c0.6-0.1,0.9-0.1,0.9-0.1c0.8-0.1,1.3-0.1,1.6,0c0.4,0.1,0.6,0.4,0.8,0.7c0.2,0.3,0.3,0.7,0.4,1.1
						c0,0.4,0,0.7-0.1,1.2s-0.3,0.7-0.6,0.9c-0.3,0.2-0.6,0.5-1.1,0.7c0.1,0.1,0.4,0.5,0.7,0.9c0.6,0.8,0.9,1.2,1.4,2
						c0.4,0.6,0.6,0.9,0.7,0.9l0.1,0.1c0.1,0,0.1,0,0.3,0c0,0.1,0,0.2,0,0.5c-0.2,0-0.5,0-0.6,0s-0.4,0-0.6,0.1
						c-0.2-0.3-0.6-0.9-1.2-1.8c-0.3-0.5-0.6-0.9-0.9-1.2c-0.5-0.5-0.8-1.1-1.3-1.4c0-0.1,0-0.1,0-0.2c0.1,0,0.3,0,0.4,0
						c0.6-0.1,1.1-0.3,1.4-0.7s0.4-0.9,0.3-1.5c-0.1-0.5-0.2-0.9-0.6-1.2c-0.3-0.3-0.8-0.4-1.4-0.3c-0.4,0.1-0.7,0.1-1.1,0.4
						c0,0.2,0.1,0.5,0.1,0.7c0,0.1,0.1,0.7,0.3,1.9c0.2,1.2,0.3,1.8,0.5,2.8c0.1,0.6,0.2,1.2,0.4,1.8c0.1,0.4,0.1,0.7,0.2,0.7
						c0.1,0.1,0.1,0.1,0.2,0.1c0.1,0,0.3,0,0.7,0c0,0.1,0.1,0.2,0.1,0.4c-0.5,0-0.8,0.1-1.2,0.1c-0.3,0-0.7,0.1-1.4,0.2
						c-0.1-0.1-0.1-0.2-0.1-0.4c0.4-0.1,0.5-0.1,0.6-0.1c0.1-0.1,0.1-0.1,0.1-0.1c0-0.1,0-0.3-0.1-0.6c0-0.1-0.1-0.7-0.4-1.8
						C-5.8,23.6-6,23-6.2,21.9c-0.1-0.6-0.2-1.2-0.4-1.7c-0.1-0.9-0.2-1.2-0.3-1.2C-6.9,18.9-7,18.9-7,18.9C-7,18.9-7.2,18.9-7.7,19
						z"/>
					<path fill="#003300" d="M0.4,27c0-0.1,0-0.3,0-0.5c0.2,0,0.4,0,0.5-0.1C1,26.4,1,26.4,1,26.3s0.1-0.2,0.2-0.5
						c0.1-0.1,0.2-0.7,0.6-1.9c0.5-1.5,0.7-2.2,1.3-3.7c0.1-0.3,0.4-1.2,0.9-2.6c0.1,0,0.2,0,0.4,0c0.8,2.6,1.2,4,1.8,6.7
						c0.2,1.1,0.4,1.8,0.5,2c0.1,0.1,0.1,0.3,0.1,0.3c0.1,0.1,0.2,0.1,0.5,0.1c0,0.1,0,0.3-0.1,0.5C6.7,27.1,6.4,27,6.2,27
						c-0.6,0-0.8,0-1.4,0c0-0.1,0-0.3,0-0.5c0.3,0,0.5,0,0.6,0c0.1,0,0.1-0.1,0.1-0.1c0-0.1,0.1-0.1,0.1-0.1c0-0.1,0-0.2,0-0.4
						c-0.1-0.8-0.2-1.2-0.5-2c-1.2-0.1-1.7-0.1-2.8-0.1c-0.2,0.7-0.3,0.9-0.5,1.7c-0.1,0.3-0.1,0.5-0.1,0.7c0,0.1,0,0.1,0.1,0.1
						c0,0.1,0.1,0.1,0.1,0.1c0.1,0,0.3,0.1,0.6,0.1c0,0.1,0,0.3,0,0.5c-0.5-0.1-0.9-0.1-1.2-0.1C1.1,26.9,0.7,26.9,0.4,27z
						 M2.5,23.3c0.9,0,1.5,0,2.5,0.1c-0.4-1.6-0.6-2.4-1.1-4C3.3,21,3,21.7,2.5,23.3z"/>
					<path fill="#003300" d="M8.9,18.4c0-0.1,0.1-0.2,0.1-0.5c0.6,0.1,1.1,0.1,1.4,0.2c0.3,0,0.7,0.1,1.5,0.1
						c0.7,0.1,1.2,0.1,1.5,0.2c0.3,0.1,0.5,0.1,0.7,0.1c0.2,0.1,0.5,0.1,0.6,0.1c-0.2,0.4-0.5,0.9-0.7,1.9c-0.1,0-0.2-0.1-0.3-0.1
						c0.1-0.5,0.2-1.2,0.2-1.2c-0.1-0.1-0.5-0.2-0.7-0.3c-0.3-0.1-0.6-0.1-0.9-0.2s-0.7-0.1-1.2-0.1c-0.1,0.2-0.1,0.5-0.1,0.7
						c0,0.1-0.1,0.6-0.3,1.5c-0.1,0.6-0.1,0.8-0.3,1.4c0.4,0.1,0.7,0.1,0.9,0.1c0.5,0.1,0.7,0.1,1.1,0.1c0.1,0,0.1,0,0.2-0.1
						c0.1-0.1,0.1-0.2,0.2-0.5c0.1-0.1,0.1-0.2,0.1-0.4c0.1,0,0.2,0,0.3,0.1c-0.1,0.6-0.3,0.9-0.5,1.4c-0.1,0.6-0.2,0.9-0.4,1.6
						c-0.1,0-0.1,0-0.3-0.1c0-0.1,0.1-0.2,0.1-0.5c0.1-0.5,0.1-0.7,0.1-0.7c0-0.1-0.1-0.1-0.1-0.1c-0.1-0.1-0.6-0.2-1.3-0.3
						c-0.2,0-0.5-0.1-0.7-0.1c-0.1,0.5-0.1,0.7-0.3,1.3c-0.1,0.6-0.2,1.2-0.3,1.8c-0.1,0.4-0.1,0.7-0.1,0.7c0,0.1,0.1,0.1,0.1,0.2
						c0.1,0.1,0.3,0.1,0.6,0.1c-0.1,0.1-0.1,0.2-0.1,0.5c-0.4-0.1-0.7-0.1-1.2-0.2c-0.3-0.1-0.8-0.1-1.5-0.1c0-0.1,0.1-0.2,0.1-0.5
						c0.4,0,0.6,0,0.7,0s0.1-0.1,0.1-0.1c0.1-0.1,0.1-0.3,0.1-0.6c0-0.1,0.1-0.7,0.4-1.9c0.3-1.2,0.3-1.8,0.5-3
						c0.1-0.6,0.2-1.2,0.3-1.8c0.1-0.2,0.1-0.5,0.1-0.6s-0.1-0.1-0.1-0.2C9.6,18.5,9.3,18.5,8.9,18.4z"/>
					<path fill="#003300" d="M15.1,21.1c-0.1,0-0.2-0.1-0.3-0.1c0.3-1.1,0.5-1.8,0.6-2.1c0.4,0.1,1.1,0.2,1.9,0.5
						c0.7,0.1,1.2,0.3,1.4,0.4c0.2,0.1,0.8,0.2,1.8,0.5c0.7,0.1,1.2,0.3,1.4,0.4c-0.3,0.5-0.6,1.2-1.1,2c-0.1-0.1-0.2-0.1-0.3-0.1
						c0.1-0.2,0.1-0.4,0.2-0.6c0.1-0.4,0.2-0.6,0.2-0.6c0-0.1,0-0.1,0-0.1c0,0,0-0.1-0.1-0.1s-0.2-0.1-0.5-0.2
						c-0.3-0.1-0.5-0.2-0.7-0.2c-0.2-0.1-0.4-0.1-0.7-0.1c-0.2,0.4-0.5,0.9-0.7,1.7c-0.6,1.5-0.9,2.2-1.5,3.7
						c-0.2,0.6-0.5,1.2-0.7,1.7c-0.1,0.4-0.2,0.7-0.2,0.7c0,0.1,0,0.1,0.1,0.2c0.1,0.1,0.2,0.1,0.6,0.2c-0.1,0.1-0.1,0.2-0.1,0.4
						c-0.5-0.1-0.9-0.3-1.2-0.4c-0.1,0-0.5-0.1-1.4-0.3c0.1-0.1,0.1-0.2,0.1-0.4c0.4,0.1,0.6,0.1,0.7,0.1s0.1-0.1,0.2-0.1
						c0.1-0.1,0.1-0.3,0.3-0.6c0-0.1,0.3-0.7,0.7-1.8c0.5-1.5,0.8-2.2,1.4-3.7c0.1-0.1,0.1-0.4,0.2-0.6c0.1-0.5,0.2-0.7,0.4-1.1
						c-0.3-0.1-0.5-0.1-0.8-0.2c-0.5-0.1-0.8-0.1-1.2-0.2c-0.1,0-0.1,0-0.2,0.1c-0.1,0-0.2,0.2-0.4,0.6
						C15.3,20.7,15.2,20.9,15.1,21.1z"/>
					<path fill="#003300" d="M-9.1,60.8c0.1-0.1,0.1-0.2,0.1-0.4c0.5,0.2,0.9,0.4,1.2,0.5c0.2,0.1,0.5,0.1,0.7,0.2
						c0.2,0.1,0.4,0.1,0.6,0.1c0.1,0,0.1,0,0.2,0.1c0.4,0.1,0.7,0.3,0.9,0.5c0.2,0.2,0.3,0.5,0.4,0.9c0.1,0.4,0,0.8-0.1,1.2
						c-0.1,0.4-0.2,0.7-0.5,1.2c-0.2,0.4-0.5,0.7-0.8,0.8c-0.3,0.2-0.6,0.3-0.9,0.4c-0.2,0-0.5,0-0.7-0.1c-0.2-0.1-0.4-0.1-0.6-0.3
						c0-0.2,0-0.3,0.1-0.5c0.2,0.1,0.5,0.3,0.6,0.3c0.2,0.1,0.5,0.1,0.7-0.1c0.2-0.1,0.5-0.3,0.7-0.6c0.2-0.3,0.4-0.7,0.5-1.1
						c0.1-0.4,0.1-0.7,0.1-1.1c0-0.3-0.1-0.6-0.2-0.8c-0.1-0.2-0.4-0.4-0.7-0.5c-0.2-0.1-0.5-0.1-0.9,0c-0.1,0.5-0.5,1.2-0.7,2.2
						c-0.5,1.4-0.7,2-1.2,3.3c-0.2,0.6-0.4,1.2-0.6,1.8c-0.1,0.5-0.2,0.7-0.1,0.7c0.1,0.1,0.1,0.1,0.1,0.2s0.3,0.1,0.7,0.3
						c-0.1,0.1-0.1,0.2-0.1,0.5c-0.6-0.2-1.1-0.4-1.4-0.5c-0.1-0.1-0.7-0.2-1.6-0.5c0.1-0.1,0.1-0.2,0.1-0.4
						c0.4,0.1,0.6,0.2,0.7,0.2c0.1,0,0.1,0,0.2-0.1c0.1-0.1,0.1-0.3,0.3-0.6c0-0.1,0.3-0.7,0.7-1.8c0.5-1.2,0.7-1.8,1.2-3
						c0.2-0.6,0.5-1.2,0.6-1.8c0.1-0.4,0.2-0.7,0.2-0.7s0-0.1-0.1-0.2C-8.6,61-8.9,60.9-9.1,60.8z"/>
					<path fill="#003300" d="M-3.2,71.7c0,0.1,0,0.3-0.1,0.5C-4,72-4.5,71.9-4.7,71.9c-0.7-0.1-0.9-0.1-1.6-0.3
						c0.1-0.1,0.1-0.2,0.1-0.5c0.4,0.1,0.7,0.1,0.7,0.1c0.1,0,0.1-0.1,0.2-0.1c0.1-0.1,0.1-0.3,0.2-0.7c0-0.1,0.1-0.7,0.4-2
						c0.2-1.3,0.4-1.9,0.6-3.2c0.1-0.6,0.2-1.2,0.3-1.8c0.1-0.5,0.1-0.7,0.1-0.7s-0.1-0.1-0.1-0.2c-0.1-0.1-0.2-0.1-0.5-0.2
						c0.1-0.1,0.1-0.2,0.1-0.5c0.5,0.1,0.9,0.2,1.2,0.3c0.3,0.1,0.7,0.1,1.2,0.1c0,0.1,0,0.3-0.1,0.5c-0.3,0-0.5-0.1-0.6,0
						c-0.1,0-0.1,0.1-0.1,0.1c0,0.1,0,0.3-0.1,0.7c0,0.1-0.1,0.7-0.4,2c-0.2,1.3-0.3,2-0.5,3.2c-0.1,0.6-0.2,1.2-0.3,1.8
						c-0.1,0.5-0.1,0.7-0.1,0.8c0,0.1,0.1,0.1,0.1,0.2C-3.8,71.5-3.6,71.6-3.2,71.7z"/>
					<path fill="#003300" d="M4.4,71.3c-0.1,0.3-0.1,0.4-0.1,0.7c-0.4,0.3-0.8,0.5-1.2,0.6c-0.3,0.1-0.8,0.1-1.3,0.1
						c-0.5,0-1.1-0.1-1.5-0.4c-0.5-0.2-0.8-0.5-1.2-0.9c-0.3-0.4-0.5-0.7-0.7-1.2c-0.1-0.5-0.3-0.9-0.3-1.4c-0.1-0.5,0-1.1,0.1-1.7
						c0.1-1.5,0.7-2.6,1.4-3.6c0.7-0.9,1.5-1.4,2.6-1.4c0.2,0,0.5,0,0.7,0.1c0.2,0.1,0.5,0.1,0.7,0.3c0.3,0.1,0.5,0.2,0.5,0.2
						C4,62.9,4,63.3,4,63.5c0,0.4-0.1,0.9,0,1.4c-0.1,0-0.1,0-0.3,0c0-0.3,0-0.5,0-0.8c-0.1-0.5-0.2-0.8-0.5-1.1
						c-0.2-0.2-0.7-0.3-1.2-0.3c-0.4,0-0.7,0.1-0.9,0.2c-0.3,0.1-0.5,0.4-0.7,0.7C0.1,64-0.1,64.4-0.3,65c-0.1,0.5-0.3,1.2-0.4,2
						c-0.1,1.4,0.1,2.6,0.6,3.5c0.5,0.9,1.4,1.4,2.5,1.4c0.5,0,0.9-0.1,1.4-0.3c0.3-0.1,0.5-0.3,0.8-0.6C4.3,71.2,4.3,71.3,4.4,71.3
						z"/>
					<path fill="#003300" d="M8.1,71.8c0,0.1,0,0.3,0.1,0.5c-0.6,0.1-0.9,0.1-1.6,0.1c-0.1,0-0.6,0.1-1.5,0.1c0-0.1,0-0.3,0-0.5
						c0.4,0,0.7-0.1,0.7-0.1C5.9,71.9,6,71.9,6,71.8c0-0.1,0.1-0.3,0-0.7c0-0.1-0.1-0.7-0.1-2c-0.1-1.3-0.1-2-0.3-3.3
						c-0.1-0.7-0.1-1.3-0.1-1.9c-0.1-0.5-0.1-0.7-0.1-0.7C5.2,63.1,5.2,63,5.2,63c-0.1,0-0.3-0.1-0.6,0c0-0.1,0-0.3,0-0.5
						c0.5,0,0.9,0,1.2-0.1c0.3,0,0.7-0.1,1.2-0.2c0,0.1,0,0.3,0.1,0.5c-0.3,0.1-0.5,0.1-0.6,0.1c-0.1,0.1-0.1,0.1-0.1,0.1
						c0,0.1,0,0.3,0,0.7c0,0.1,0.1,0.7,0.2,2c0.1,0.6,0.1,0.9,0.1,1.4c0.1-0.1,0.3-0.5,0.5-0.8c0.1-0.4,0.3-0.6,0.5-0.9
						c0.3-0.7,0.5-1.1,0.7-1.8s0.4-1.2,0.5-1.3c0-0.1-0.1-0.3-0.1-0.5c0.3-0.1,0.5-0.1,0.7-0.1c0.2-0.1,0.4-0.1,0.6-0.1
						c0.1,0.1,0.1,0.3,0.1,0.5c-0.2,0.1-0.5,0.1-0.5,0.1c-0.1,0.1-0.1,0.1-0.2,0.3c-0.1,0.2-0.3,0.7-0.6,1.4C8.3,65,8,65.6,7.4,66.7
						c1.3,1.4,2,2.1,3.5,3.5c0.6,0.5,0.9,0.8,1.1,0.8c0.1,0.1,0.2,0.1,0.5,0c0.1,0.1,0.1,0.2,0.1,0.5c-0.4,0.1-0.6,0.1-0.7,0.1
						c-0.1,0-0.4,0.1-0.8,0.2c-0.1-0.1-0.5-0.4-1.1-0.9c-0.2-0.2-0.4-0.4-0.7-0.6c-1.2-1.1-1.7-1.6-2.6-2.7
						c-0.1,0.1-0.1,0.1-0.1,0.1c0.1,0.5,0.1,0.8,0.1,1.4c0.1,0.7,0.1,1.3,0.2,1.9C7,71.3,7,71.5,7,71.6c0.1,0.1,0.1,0.1,0.2,0.1
						C7.4,71.9,7.7,71.9,8.1,71.8z"/>
					<path fill="#003300" d="M12.8,70.9c-0.1-0.5-0.2-1.2-0.5-2.2c0.1,0,0.2-0.1,0.3-0.1c0.2,0.7,0.3,1.1,0.4,1.2
						c0.1,0.1,0.2,0.2,0.4,0.3c0.1,0.1,0.5,0.1,0.7,0.2c0.3,0,0.5,0,0.7-0.1c0.4-0.1,0.6-0.3,0.8-0.6c0.2-0.3,0.3-0.7,0.3-1.1
						s-0.1-0.7-0.2-1.2c-0.1-0.3-0.2-0.5-0.4-0.7c-0.1-0.2-0.3-0.3-0.5-0.5c-0.1-0.1-0.4-0.1-0.5-0.1c-0.1,0-0.4,0.1-0.7,0.1
						s-0.7,0.1-0.9,0.1c-0.4-0.1-0.6-0.1-0.8-0.3c-0.2-0.1-0.4-0.4-0.5-0.7c-0.1-0.3-0.3-0.6-0.4-0.9c-0.1-0.5-0.1-1.1-0.1-1.6
						c0.1-0.5,0.1-0.9,0.4-1.4c0.2-0.4,0.5-0.6,0.9-0.7c0.2-0.1,0.5-0.1,0.7-0.1c0.3,0,0.6,0.1,0.9,0.1c0.1,0.3,0.1,0.6,0.2,0.8
						c0.1,0.2,0.2,0.6,0.4,1.2c-0.1,0.1-0.1,0.1-0.3,0.1c-0.3-0.7-0.5-1.1-0.5-1.2c-0.1-0.1-0.3-0.2-0.5-0.4
						c-0.4-0.1-0.7-0.2-0.9-0.1c-0.4,0.1-0.6,0.5-0.7,0.9c-0.1,0.5-0.1,1.1,0.1,1.7c0.1,0.4,0.2,0.7,0.4,0.9
						c0.1,0.1,0.4,0.3,0.6,0.4c0.1,0.1,0.5,0.1,0.8,0C13.7,65,14,65,14.4,65c0.3,0,0.6,0.1,0.7,0.2c0.1,0.1,0.4,0.3,0.6,0.5
						c0.2,0.2,0.4,0.5,0.5,0.9c0.4,0.9,0.4,1.8,0.1,2.6c-0.3,0.8-0.9,1.4-1.8,1.8C14.2,71.2,13.5,71.2,12.8,70.9z"/>
				</g>
				<g>
					<g>
						<g>
							
								<text transform="matrix(0.8202 0 0 1 -40.1538 66.3877)" fill="#023266" font-family="'MyriadPro-Regular'" font-size="61.7868">T</text>
							
								<text transform="matrix(1.2303 0 0 1 -14.9683 57.8056)" fill="#023266" font-family="'MyriadPro-Regular'" font-size="41.1912">O</text>
							
								<text transform="matrix(0.8202 0 0 1 19.9482 66.3877)" fill="#023266" font-family="'MyriadPro-Regular'" font-size="61.7868">P</text>
							
								<text transform="matrix(0.7141 0 0 1 -4.5722 58.332)" fill="#FFCC00" font-family="'MyriadPro-Regular'" font-size="43.2642">5</text>
							<g>
								<g>
									<path fill="#FFCC00" d="M-11.6,28.4c-0.1-0.1-0.1-0.1-0.1-0.3c0.1-0.1,0.1-0.4,0.2-0.5c-0.1-0.3-0.2-0.7-0.5-1.2
										c-0.4-0.8-0.6-1.4-0.7-1.8c-0.5-0.9-0.7-1.5-1.2-2.5c-0.1-0.4-0.4-0.8-0.7-1.4c-0.1-0.3-0.3-0.5-0.4-0.6
										c-0.1-0.1-0.1-0.1-0.1-0.1c-0.1,0-0.4,0-0.7,0.1c-0.1-0.1-0.1-0.2-0.1-0.4c0.5-0.1,0.9-0.3,1.4-0.4
										c0.3,0.1,0.8-0.1,1.4-0.3c0.5-0.1,0.9-0.3,1.3-0.4c0.9-0.2,1.7-0.3,2.2-0.1c0.6,0.1,1.2,0.5,1.8,1.1
										c0.5,0.5,0.9,1.3,1.2,2.2c0.1,0.7,0.2,1.3,0.2,1.8c0,0.6-0.1,1.2-0.2,1.6c-0.1,0.5-0.3,0.8-0.5,1.2
										c-0.2,0.3-0.5,0.5-0.7,0.7c-0.3,0.2-0.7,0.4-1.2,0.5c-0.1,0.1-0.5,0.1-0.7,0.1c-0.4,0.1-0.7,0.1-0.7,0.2
										C-10.8,28.1-11.1,28.3-11.6,28.4z M-10.5,27.3c0.4,0,0.7-0.1,1.1-0.1c0.4-0.1,0.7-0.2,0.9-0.4c0.2-0.1,0.5-0.4,0.6-0.5
										c0.1-0.2,0.3-0.5,0.4-0.8c0.1-0.4,0.1-0.8,0.1-1.4c-0.1-0.5-0.1-1.1-0.3-1.6c-0.2-0.7-0.5-1.4-0.9-2
										C-9,20-9.5,19.7-10,19.5c-0.6-0.1-1.3-0.1-2.1,0.1c-0.5,0.1-0.9,0.3-1.3,0.5c0.1,0.2,0.2,0.5,0.5,1.1
										c0.1,0.4,0.2,0.5,0.4,0.9c0.4,0.9,0.6,1.4,1.1,2.4c0.3,0.7,0.5,1.2,0.8,1.9C-10.9,26.5-10.8,26.9-10.5,27.3z"/>
									<path fill="#FFCC00" d="M-7,18.3C-7,18.1-7,18.1-7,17.8c0.1,0,0.4-0.1,0.7-0.1c0.4-0.1,0.6-0.1,1.1-0.2
										c0.2,0,0.5-0.1,0.9-0.1c0.6-0.1,0.9-0.2,1-0.2c0.7-0.1,1.3-0.1,1.6,0.1c0.4,0.1,0.6,0.4,0.8,0.7c0.2,0.3,0.3,0.7,0.4,1.1
										c0,0.4,0,0.7-0.1,1.2s-0.3,0.7-0.6,0.9c-0.3,0.2-0.6,0.5-1.1,0.7c0.1,0.1,0.4,0.5,0.7,0.9c0.6,0.8,0.9,1.2,1.4,2
										c0.4,0.6,0.6,0.9,0.7,0.9l0.1,0.1c0.1,0,0.1,0,0.3,0c0,0.1,0,0.2,0,0.5c-0.2,0-0.5,0-0.6,0s-0.4,0-0.6,0.1
										c-0.2-0.3-0.6-0.9-1.2-1.8c-0.3-0.5-0.6-0.9-0.9-1.2c-0.5-0.5-0.8-1.1-1.3-1.4c0-0.1,0-0.1,0-0.2c0.1,0,0.3,0,0.4,0
										c0.6-0.1,1.1-0.3,1.4-0.7c0.3-0.3,0.4-0.8,0.3-1.4c-0.1-0.5-0.2-0.9-0.6-1.2c-0.3-0.3-0.8-0.4-1.4-0.3
										c-0.4,0.1-0.7,0.1-1.1,0.4c0,0.2,0.1,0.5,0.1,0.7c0,0.1,0.1,0.7,0.3,1.9c0.2,1.2,0.3,1.8,0.5,2.8c0.1,0.6,0.2,1.2,0.4,1.8
										c0.1,0.4,0.1,0.7,0.2,0.7c0.1,0.1,0.1,0.1,0.2,0.1c0.1,0,0.3,0,0.7,0c0,0.1,0.1,0.2,0.1,0.4c-0.5,0-0.8,0.1-1.2,0.1
										s-0.7,0.1-1.4,0.2C-5,27.1-5,27.1-5,26.9c0.4-0.1,0.5-0.1,0.6-0.1c0.1-0.1,0.1-0.1,0.1-0.1c0-0.1,0-0.3-0.1-0.6
										c0-0.1-0.1-0.7-0.4-1.8c-0.2-1.2-0.4-1.8-0.6-2.9c-0.1-0.6-0.2-1.2-0.4-1.7c0-0.9-0.1-1.2-0.1-1.2C-6,18.3-6,18.3-6.1,18.2
										C-6.2,18.2-6.5,18.2-7,18.3z"/>
									<path fill="#FFCC00" d="M1.2,26.2c0-0.1,0-0.3,0-0.5c0.2,0,0.4,0,0.5-0.1c0.1,0,0.1-0.1,0.1-0.1C1.8,25.5,1.8,25.4,2,25
										c0.1-0.1,0.2-0.7,0.6-1.9c0.5-1.5,0.7-2.2,1.3-3.7c0.1-0.3,0.4-1.2,0.9-2.6c0.1,0,0.2,0,0.4,0c0.8,2.6,1.2,4,1.8,6.7
										c0.2,1.1,0.4,1.8,0.5,2c0.1,0.1,0.1,0.3,0.1,0.3c0.1,0.1,0.2,0.1,0.5,0.1c0,0.1,0,0.3-0.1,0.5c-0.5-0.1-0.7-0.1-0.9-0.1
										c-0.6,0-0.8,0-1.4,0c0-0.1,0-0.3,0-0.5c0.3,0,0.5,0,0.6,0c0.1,0,0.1-0.1,0.1-0.1c0-0.1,0.1-0.1,0.1-0.1s0-0.2,0-0.4
										c-0.1-0.8-0.2-1.2-0.5-2c-1.2-0.1-1.7-0.1-2.8-0.1c-0.2,0.7-0.3,0.9-0.5,1.7c-0.1,0.3-0.1,0.5-0.1,0.7c0,0.1,0,0.1,0.1,0.1
										c0,0.1,0.1,0.1,0.1,0.1c0.1,0,0.3,0.1,0.6,0.1c0,0.1,0,0.3,0,0.5c-0.5-0.1-0.9-0.1-1.2-0.1C1.8,26.2,1.5,26.2,1.2,26.2z
										 M3.3,22.5c0.9,0,1.5,0,2.5,0.1c-0.4-1.6-0.6-2.4-1.1-4C4.1,20.2,3.7,21,3.3,22.5z"/>
									<path fill="#FFCC00" d="M9.7,17.6c0-0.1,0.1-0.2,0.1-0.5c0.6,0.1,1.1,0.1,1.4,0.2c0.3,0,0.7,0.1,1.5,0.1
										c0.7,0.1,1.2,0.1,1.5,0.2c0.3,0.1,0.5,0.1,0.7,0.1c0.2,0.1,0.5,0.1,0.6,0.1c-0.2,0.4-0.5,0.9-0.7,1.9
										c-0.1,0-0.2-0.1-0.3-0.1c0.1-0.5,0.2-1.2,0.2-1.2c-0.1-0.1-0.5-0.2-0.7-0.3c-0.3-0.1-0.6-0.1-0.9-0.2
										c-0.4-0.1-0.7-0.1-1.2-0.1c-0.1,0.2-0.1,0.5-0.1,0.7c0,0.1-0.1,0.6-0.3,1.5c-0.1,0.6-0.1,0.8-0.3,1.4
										c0.4,0.1,0.7,0.1,0.9,0.1c0.5,0.1,0.7,0.1,1.1,0.1c0.1,0,0.1,0,0.2-0.1c0.1-0.1,0.1-0.2,0.2-0.5c0.1-0.1,0.1-0.2,0.1-0.4
										c0.1,0,0.2,0,0.3,0.1c-0.1,0.6-0.3,0.9-0.5,1.4c-0.1,0.6-0.2,0.9-0.4,1.6c-0.1,0-0.1,0-0.3-0.1c0-0.1,0.1-0.2,0.1-0.5
										c0.1-0.5,0.1-0.7,0.1-0.7c0-0.1-0.1-0.1-0.1-0.1c-0.1-0.1-0.6-0.2-1.3-0.3c-0.2,0-0.5-0.1-0.7-0.1
										c-0.1,0.5-0.1,0.7-0.3,1.3c-0.1,0.6-0.2,1.2-0.3,1.8c-0.1,0.4-0.1,0.7-0.1,0.7c0,0.1,0.1,0.1,0.1,0.2
										c0.1,0.1,0.3,0.1,0.6,0.1c-0.1,0.1-0.1,0.2-0.1,0.5c-0.4-0.1-0.7-0.1-1.2-0.2c-0.3-0.1-0.8-0.1-1.5-0.1
										c0-0.1,0.1-0.2,0.1-0.5c0.4,0,0.6,0,0.7,0s0.1-0.1,0.1-0.1c0.1-0.1,0.1-0.3,0.1-0.6c0-0.1,0.1-0.7,0.4-1.9
										c0.3-1.2,0.3-1.8,0.5-3c0.1-0.6,0.2-1.2,0.3-1.8c0.1-0.4,0.1-0.7,0.1-0.7s-0.1-0.1-0.1-0.2C10.4,17.7,10.1,17.7,9.7,17.6z"
										/>
									<path fill="#FFCC00" d="M15.9,20.4c-0.1,0-0.2-0.1-0.3-0.1c0.3-1.1,0.5-1.8,0.6-2.1c0.4,0.1,1.1,0.2,1.9,0.5
										c0.7,0.1,1.2,0.3,1.4,0.4c0.2,0.1,0.8,0.2,1.8,0.5c0.7,0.1,1.2,0.3,1.4,0.4c-0.3,0.5-0.6,1.2-1.1,2
										c-0.1-0.1-0.2-0.1-0.3-0.1c0.1-0.2,0.1-0.4,0.2-0.6c0.1-0.4,0.2-0.6,0.2-0.6c0-0.1,0-0.1,0-0.1c0,0,0-0.1-0.1-0.1
										c-0.1,0-0.2-0.1-0.5-0.2c-0.3-0.1-0.5-0.2-0.7-0.2C20.2,20,20,20,19.7,19.9c-0.2,0.4-0.5,0.9-0.7,1.7
										c-0.6,1.5-0.9,2.2-1.5,3.7c-0.2,0.6-0.5,1.2-0.7,1.7c-0.1,0.4-0.2,0.7-0.2,0.7c0,0.1,0,0.1,0.1,0.2
										c0.1,0.1,0.2,0.1,0.6,0.2c-0.1,0.1-0.1,0.2-0.1,0.4c-0.5-0.1-0.9-0.3-1.2-0.4c-0.1,0-0.5-0.1-1.4-0.3
										c0.1-0.1,0.1-0.2,0.1-0.4c0.4,0.1,0.6,0.1,0.7,0.1s0.1-0.1,0.2-0.1c0.1-0.1,0.1-0.3,0.3-0.6c0-0.1,0.3-0.7,0.7-1.8
										c0.5-1.5,0.8-2.2,1.4-3.7c0.1-0.1,0.1-0.4,0.2-0.6c0.1-0.5,0.2-0.7,0.4-1.1c-0.3-0.1-0.5-0.1-0.8-0.2
										c-0.5-0.1-0.8-0.1-1.2-0.2c-0.1,0-0.1,0-0.2,0.1c-0.1,0-0.2,0.2-0.4,0.6C16.1,19.9,16,20.2,15.9,20.4z"/>
								</g>
							</g>
							<g>
								<g>
									<path fill="#FFCC00" d="M-8.4,60.1c0.1-0.1,0.1-0.2,0.1-0.4c0.5,0.2,0.9,0.4,1.2,0.5c0.2,0.1,0.5,0.1,0.7,0.2
										c0.2,0.1,0.4,0.1,0.6,0.1c0.1,0,0.1,0,0.2,0.1c0.4,0.1,0.7,0.3,0.9,0.5c0.2,0.2,0.3,0.5,0.4,0.9c0.1,0.4,0,0.8-0.1,1.2
										c-0.1,0.4-0.2,0.7-0.5,1.2C-5,64.8-5.3,65-5.6,65.2c-0.3,0.2-0.6,0.3-0.9,0.4c-0.2,0-0.5,0-0.7-0.1
										c-0.2-0.1-0.4-0.1-0.6-0.3c0-0.2,0-0.3,0.1-0.5c0.2,0.1,0.5,0.3,0.6,0.3c0.2,0.1,0.5,0.1,0.7-0.1c0.2-0.1,0.5-0.3,0.7-0.6
										c0.2-0.3,0.4-0.7,0.5-1.1c0.1-0.4,0.1-0.7,0.1-1.1c0-0.4-0.1-0.6-0.2-0.8c-0.1-0.2-0.4-0.4-0.7-0.5c-0.2-0.1-0.5-0.1-0.9,0
										C-7,61.3-7.4,62.1-7.6,63c-0.5,1.4-0.7,2-1.2,3.3c-0.2,0.6-0.4,1.2-0.6,1.8c-0.1,0.5-0.2,0.7-0.1,0.7
										c0.1,0.1,0.1,0.1,0.1,0.2c0.1,0.1,0.3,0.1,0.7,0.3c-0.1,0.1-0.1,0.2-0.1,0.5c-0.6-0.2-1.1-0.4-1.4-0.5
										c-0.1-0.1-0.7-0.2-1.6-0.5c0.1-0.1,0.1-0.2,0.1-0.4c0.4,0.1,0.6,0.2,0.7,0.2c0.1,0,0.1,0,0.2-0.1c0.1-0.1,0.1-0.3,0.3-0.6
										c0-0.1,0.3-0.7,0.7-1.8c0.5-1.2,0.7-1.8,1.2-3c0.2-0.6,0.5-1.2,0.6-1.8c0.1-0.4,0.2-0.7,0.2-0.7c0-0.1,0-0.1-0.1-0.2
										C-7.8,60.3-8.1,60.2-8.4,60.1z"/>
									<path fill="#FFCC00" d="M-2.4,70.9c0,0.1,0,0.3-0.1,0.5c-0.7-0.1-1.2-0.2-1.4-0.3c-0.7-0.1-0.9-0.1-1.6-0.3
										c0.1-0.1,0.1-0.2,0.1-0.5c0.4,0.1,0.7,0.1,0.7,0.1c0.1,0,0.1-0.1,0.2-0.1c0.1-0.1,0.1-0.3,0.2-0.7c0-0.1,0.1-0.7,0.4-2
										c0.2-1.3,0.4-1.9,0.6-3.2c0.1-0.6,0.2-1.2,0.3-1.8c0.1-0.5,0.1-0.7,0.1-0.7S-3,61.8-3,61.7c-0.1-0.1-0.2-0.1-0.5-0.2
										c0.1-0.1,0.1-0.2,0.1-0.5c0.5,0.1,0.9,0.2,1.2,0.3c0.3,0.1,0.7,0.1,1.2,0.1c0,0.1,0,0.3-0.1,0.5c-0.3,0-0.5-0.1-0.6,0
										C-1.9,61.9-2,62-2,62.1s0,0.3-0.1,0.7c0,0.1-0.1,0.7-0.4,2C-2.6,66-2.7,66.7-3,68c-0.1,0.6-0.2,1.2-0.3,1.8
										c-0.1,0.5-0.1,0.7-0.1,0.8c0,0.1,0.1,0.1,0.1,0.2C-3,70.8-2.8,70.9-2.4,70.9z"/>
									<path fill="#FFCC00" d="M5.2,70.6C5.1,70.9,5.1,71,5,71.3c-0.4,0.3-0.8,0.5-1.2,0.6C3.4,72,3,72,2.5,72
										C2,72,1.4,71.9,1,71.6c-0.5-0.2-0.8-0.5-1.2-0.9c-0.3-0.4-0.5-0.7-0.7-1.2C-1,69-1.1,68.6-1.1,68.1c-0.1-0.5,0-1.1,0.1-1.7
										c0.1-1.5,0.7-2.6,1.4-3.6c0.7-0.9,1.5-1.4,2.6-1.4c0.2,0,0.5,0,0.7,0.1c0.2,0.1,0.5,0.1,0.7,0.3S4.8,62,4.8,62
										c-0.1,0.2-0.1,0.5-0.1,0.7c0,0.4-0.1,0.9,0,1.4c-0.1,0-0.1,0-0.3,0c0-0.3,0-0.5,0-0.8c-0.1-0.5-0.2-0.8-0.5-1.1
										C3.8,62.1,3.3,62,2.8,62c-0.4,0-0.7,0.1-0.9,0.2c-0.3,0.1-0.5,0.4-0.7,0.7c-0.2,0.3-0.5,0.7-0.6,1.3
										c-0.1,0.5-0.3,1.2-0.4,2c-0.1,1.4,0.1,2.6,0.6,3.5c0.5,0.9,1.4,1.4,2.5,1.4c0.5,0,0.9-0.1,1.4-0.3c0.3-0.1,0.5-0.3,0.8-0.6
										C5.1,70.4,5.1,70.5,5.2,70.6z"/>
									<path fill="#FFCC00" d="M8.8,71c0,0.1,0,0.3,0.1,0.5c-0.6,0.1-0.9,0.1-1.6,0.1c-0.1,0-0.6,0.1-1.5,0.1c0-0.1,0-0.3,0-0.5
										c0.4,0,0.7-0.1,0.7-0.1c0.1-0.1,0.1-0.1,0.1-0.1c0-0.1,0.1-0.3,0-0.7c0-0.1-0.1-0.7-0.1-2c-0.1-1.3-0.1-2-0.3-3.3
										c-0.1-0.7-0.1-1.3-0.1-1.9c-0.1-0.5-0.1-0.7-0.1-0.7C6,62.3,6,62.2,5.9,62.2c-0.1,0-0.3-0.1-0.6,0c0-0.1,0-0.3,0-0.5
										c0.5,0,0.9,0,1.2-0.1c0.3,0,0.7-0.1,1.2-0.2c0,0.1,0,0.3,0.1,0.5C7.5,62,7.2,62,7.1,62.1C7,62.1,7,62.1,7,62.2
										c0,0.1,0,0.3,0,0.7c0,0.1,0.1,0.7,0.2,2c0.1,0.6,0.1,0.9,0.1,1.4c0.1-0.1,0.3-0.5,0.5-0.8c0.1-0.4,0.3-0.6,0.5-0.9
										c0.3-0.7,0.5-1.1,0.7-1.8c0.2-0.7,0.4-1.2,0.5-1.3c0-0.1-0.1-0.3-0.1-0.5C9.7,61,10,61,10.2,60.9c0.2-0.1,0.4-0.1,0.6-0.1
										c0.1,0.1,0.1,0.3,0.1,0.5c-0.2,0.1-0.5,0.1-0.5,0.1c-0.1,0.1-0.1,0.1-0.2,0.3C10,61.9,9.8,62.3,9.5,63
										c-0.5,1.2-0.7,1.8-1.4,2.8c1.3,1.4,2,2.1,3.5,3.5c0.6,0.5,0.9,0.8,1.1,0.8c0.1,0.1,0.2,0.1,0.5,0c0.1,0.1,0.1,0.2,0.1,0.5
										c-0.4,0.1-0.6,0.1-0.7,0.1c-0.1,0-0.4,0.1-0.8,0.2c-0.1-0.1-0.5-0.4-1.1-0.9c-0.2-0.2-0.4-0.4-0.7-0.6
										c-1.2-1.1-1.7-1.6-2.6-2.7c-0.3,0.1-0.3,0.1-0.3,0.1c0.1,0.5,0.1,0.8,0.1,1.4c0.1,0.7,0.1,1.3,0.2,1.9
										c0.1,0.5,0.1,0.7,0.1,0.8C7.7,70.9,7.7,71,7.8,71C8.1,71.1,8.4,71.1,8.8,71z"/>
									<path fill="#FFCC00" d="M13.5,70.2c-0.1-0.5-0.2-1.2-0.5-2.2c0.1,0,0.2-0.1,0.3-0.1c0.2,0.7,0.3,1.1,0.4,1.2
										c0.1,0.1,0.2,0.2,0.4,0.3c0.1,0.1,0.5,0.1,0.7,0.2c0.3,0,0.5,0,0.7-0.1c0.4-0.1,0.6-0.3,0.8-0.6c0.2-0.3,0.3-0.7,0.3-1.1
										s-0.1-0.7-0.2-1.2c-0.1-0.3-0.2-0.5-0.4-0.7c-0.1-0.2-0.3-0.3-0.5-0.5c-0.1-0.1-0.4-0.1-0.5-0.1s-0.4,0.1-0.7,0.1
										c-0.3,0-0.7,0.1-0.9,0.1c-0.4-0.1-0.6-0.1-0.8-0.3c-0.2-0.1-0.4-0.4-0.5-0.7c-0.1-0.3-0.3-0.6-0.4-0.9
										c-0.1-0.5-0.1-1.1-0.1-1.6c0.1-0.5,0.1-0.9,0.4-1.4c0.2-0.4,0.5-0.6,0.9-0.7c0.2-0.1,0.5-0.1,0.7-0.1
										c0.3,0,0.6,0.1,0.9,0.1c0.1,0.3,0.1,0.6,0.2,0.8c0.1,0.2,0.2,0.6,0.4,1.2c-0.1,0.1-0.1,0.1-0.3,0.1
										c-0.3-0.7-0.5-1.1-0.5-1.2c-0.1-0.1-0.3-0.2-0.5-0.4c-0.4-0.1-0.7-0.2-0.9-0.1c-0.4,0.1-0.6,0.5-0.7,0.9
										c-0.1,0.5-0.1,1.1,0.1,1.7c0.1,0.4,0.2,0.7,0.4,0.9c0.1,0.1,0.4,0.3,0.6,0.4c0.1,0.1,0.5,0.1,0.8,0
										c0.3-0.1,0.7-0.1,1.1-0.1c0.3,0,0.6,0.1,0.7,0.2c0.1,0.1,0.4,0.3,0.6,0.5c0.2,0.2,0.4,0.5,0.5,0.9c0.4,0.9,0.4,1.8,0.1,2.6
										c-0.3,0.8-0.9,1.4-1.8,1.8C14.9,70.4,14.2,70.4,13.5,70.2z"/>
								</g>
							</g>
						</g>
					</g>
				</g>
			</g>
		</g>
	</g>
	<g>
		<image overflow="visible" width="369" height="74" xlink:href="6C1C85A9A1F47449.png"  transform="matrix(1 0 0 1 54 15)">
		</image>
		<g>
			<text transform="matrix(0.4166 0 0 1 60.3867 64.3806)" fill="#023266" font-family="'MyriadPro-Regular'" font-size="55.8113">WHO DO YOU THINK WILL GO FIRST?</text>
		</g>
	</g>
</g>
</svg>
