<svg xmlns="http://www.w3.org/2000/svg" xmlns:xlink="http://www.w3.org/1999/xlink" x="0" y="0" version="1.1" viewBox="0 0 960 100" xml:space="preserve" style="enable-background:new 0 0 960 100"><style type="text/css">.st0{fill:#c93}.st1{fill:#fff;stroke:#fff;stroke-miterlimit:10}.st2,.st3,.st4{stroke:#231f20}.st3,.st4{fill:#39c;stroke-width:1.1013}.st4{fill:#c93}.st5{fill:#fff}.st6{font-family:&apos;MyriadPro-Regular&apos;}.st7{font-size:12}</style><metadata><?xpacket begin="﻿" id="W5M0MpCehiHzreSzNTczkc9d"?><?xpacket end="w"?></metadata><switch><g><g id="Layer_1"><path d="M951.2,95.7c-3.4-0.3-6.8-0.4-10.2-0.8c-0.9-0.1-1.7-1.1-2.6-1.8c0.8-0.7,1.6-1.7,2.5-1.9 c2.3-0.5,4.7-0.6,7.2-0.9c-0.6-5.1-2.5-6.1-5.5-6.1c-14.1,0-28.1-0.4-42.2-0.2c-10.5,0.1-21.1,0.9-31.6,1.1 c-1.6,0-4.1-1.1-4.6-2.6c-1.8-5.1-1.6-10.7-1.6-16.1c0.1-9.6-8.9-12.7-14.1-14.5c-3.8-1.3-6-2.5-9.8-3.5 c-2.4-0.7-6.9-1.1-6.9-1.1c-8.5-0.8-28.4-1.3-31.9-0.9c-5.8,0.8-11.6,2.1-17.3,3.9c-7.5,2.5-15.3,4.1-20.9,12.1 c-1.8,2.6-3.5,5.3-5.7,7.1c-2.5,2-5.3,3.8-8.2,4.2c-2.5,0.4-5.3-1.2-7.9-2.1c-8.1-2.6-13.7-8.4-15.8-19.5 c-1.3-7.4-3.6-14.6-8.6-19.2c-2.8-2.6-6.1-4.8-9.5-5.7c-16.8-4.4-38.5,3.3-48.8,8.4c-9.7,4.7-19.1,10.4-28.6,15.5 c-0.7,0.4-1.9,0.6-2.5,0.1c-3.7-2.8-7.4-5.7-11.1-8.8c-5.7-4.8-11.1-10.5-17.1-14.6c-17.6-12-36.6-18-56.5-18.9 c-4-0.2-8,0.6-12,0.7c-5.9,0.1-16.4,1.1-16,1.2c-4.2,0.6-8.5,1.4-12.8,1.9c-14.3,1.9-27.8,7.4-41,14.6c-1,0.6-2.7,0.1-3.7-0.6 c-5.6-3.7-10.8-8.3-16.6-11.3c-19.1-10-59.2-10.4-59.2-10.4c0.3,0.3-8.8,1.4-10.6,1.9c-17.1,4.3-32,13.2-40.8,34 c-2.4,5.5-3.8,12.3-1.5,17.3c4.2,9.4-0.7,16.8-0.6,24.6c-2.8,0-4.8-0.2-6.7,0c-9.9,1.4-19.7,2.9-29.6,4.5 c-8.3,1.3-16.5,3.6-24.9,4c-11.3,0.5-22.7-0.4-34-0.5c-2.4,0-5-0.1-7.3,0.8c-2,0.8-3.7,2.9-5.6,4.4c0.1,0.3,0.2,0.5,0.3,0.8 c244.1,0,488.2,0,732.3,0C951.2,96.7,951.2,96.2,951.2,95.7z M860.2,65.1c1.5,6.2,0.6,14.4,2.2,21.3c-3.3,0-7.8,0-9.9,0 c0-0.3,3-13.9,3.9-19.3C856.9,67.1,859.7,65.1,860.2,65.1z M851.3,59.1c8.5,3,1.3,4.8-0.7,5.4c-5.7,1.9-12.9,3.8-15.2,4.5 c-14.1,3.9-22.2,3.2-36.8,5.2c-4.2,0.6-8.5,0.5-12.7,0.9c-2,0.2-3-0.8-3.4-3.4c-0.8-4.9-1.8-9.6-2.7-14.4 C796.7,48.3,833.6,52.9,851.3,59.1z M782.2,84.7c-4,0-8,0-12.8,0c1.7-7.7,6.2-3.8,9.2-4.4C781.6,79.5,781.7,80.1,782.2,84.7z M772.2,62c0.5-2,2.7-3.2,4.9-5.7c1.4,6.9,2.5,12.4,3.7,18.6c-3.6,0-6.7,0-10,0C771.2,70.4,771.2,66,772.2,62z M696.9,29.8 c2.3,0.6,5.6-1,6.3,3.6c2.3,15.3,4.3,30.7,6.5,46.8c-8-0.6-15.6-1.1-23.5-1.7c0.1-1.7,0.1-4.2,0.5-6.6 c2.2-12.8,4.6-25.6,6.7-38.4C693.9,30.7,694.6,29.2,696.9,29.8z M709.2,84.9c0,0.2,0,0.5,0,0.7c-3.8,0-20.7-1-24.5-1 c0-0.7,0.1-1.3,0.1-2C688.5,83,705.5,84.5,709.2,84.9z M691.9,29.4c-2.9,16.3-5.6,33.7-8.4,49.2c-18.7-2.5-35-11.8-51.6-23.3 C651.7,44.9,670.1,32.2,691.9,29.4z M654.2,81.7c-3.4-0.8-6.5-1.5-10.1-2.4c0.7-3.3,1.3-6.8,1.8-9.4 C651,70.4,653.2,75.2,654.2,81.7z M628.4,59.4c5.1,3.1,10.1,6.5,15,9.7c0.1,0.5,0.3,0.8,0.2,1.1c-1.5,8.2-1.5,8-7.8,6.7 c-5.3-1-10.7-1.6-16.1-1.8c-6.4-0.3-6.4-0.1-7.5-8.9c4.4-2.5,8.6-5,12.9-7.1C626.1,58.6,627.5,58.8,628.4,59.4z M622,54.8 c-3.6,2-6.7,3.8-10.6,6c-0.9-5.4-1.6-10.4-2.6-16.5C613.5,48,617.4,51.2,622,54.8z M597.9,34.5c4.5,3.5,9.1,8.3,9.1,8.3l1.2,12.3 c1.1,6.9,0.8,7.5-4.5,9.8c-2,0.9-4.1,1.8-6.9,3.1C597.1,56.6,597.5,46,597.9,34.5z M610,67.1c0.4,3.8,0.8,6.9,1.2,10.5 c-1.9,0.1-13.4,2.2-14.8,2.3c0-0.3-0.4-6.2-0.4-6.2C601.1,71.4,610,67.7,610,67.1z M441.6,70c0.5,5.2,0.6,10.5,0.8,15.9 c-5.2,0-10.2,0-15.6,0c0.7-5.6,1.1-10,2-14.3c0.3-1.3,1.6-3,2.6-3.3c2.5-0.8,5.1-1.1,7.6-1C439.9,67.2,441.5,68.9,441.6,70z M439.7,21.5c0,5.3,0.8,13.7,0.5,18.9c-0.3,4.8-1.6,9.5-2.5,14.2c-0.1,0.4,0.4,0.7,0.4,1.1c-0.2,7.1-1.7,7.6-8,6.7 c2-14,3.9-29,5.9-43.2L439.7,21.5z M340,32c6.8-9.7,15.5-15.2,25.2-18.3c23.1-7.6,45.7-3.6,68.7,4.7c-2.4,16.3-4.6,29.9-6.8,44.9 l-5.1,1c-9,1.5-18.1,3.1-27.1,4.8c-9.7,1.8-19.4,4.6-29.2,5.5c-5.3,0.5-10.8-1.9-16.1-3.4c-0.9-0.2-1.7-2.3-2.1-3.8 c-2.9-9.7-5.9-19.5-8.5-29.4C338.7,36.3,339.1,33.4,340,32z M333.7,53c1-4.6,1.5-9.3,3.2-14.2c3,10,5.9,20,8.9,30 c-0.2,0.3-0.5,0.6-0.7,0.9c-2.6-1.7-5.3-3.2-7.8-5.2C333.9,61.9,332.5,58.2,333.7,53z M331.4,67.3c5.8,3.4,11.3,6.6,16.8,9.8 c0,0.4-0.1,0.9-0.1,1.3c-6.1,1.4-12.2,2.8-19.1,4.4C329.9,77.3,330.6,72.3,331.4,67.3z M327.2,94.8c0.5-7,0.5-7,8-7.9 C336.5,94.2,333.9,96.8,327.2,94.8z M341.6,93c-0.9-1.5-1.1-4-1-6.1c0-0.7,1.6-1.8,2.6-2.1c7.4-2,8.1-1.2,9.9,10.7 C349.1,94.3,344.8,98,341.6,93z M379.6,95.4c-6.7,0-13.4-0.2-20.1,0.1c-3,0.2-4.5-1.2-5.2-4.8c-0.5-2.4-1.3-4.6-2.1-7.5 c12.5-5.2,23.9,2.8,35.7,2.7C386.6,94.7,385.9,95.4,379.6,95.4z M387.1,95.6c1-2.4,1.8-4.4,2.7-6.4c1.4-3.4,3-3.5,4.8-0.3 c1.1,2,2.1,4,3.5,6.6C394.3,95.6,390.8,95.6,387.1,95.6z M423.1,94.8c-0.5,0.2-0.8,0.5-1.2,0.5c-6.6,0-13.2,0.5-19.7-0.2 c-2.1-0.2-3.9-3.7-5.8-5.7c0.2-0.6,0.4-1.2,0.6-1.8c8.7,0.9,17.4,1.8,26.6,2.8C423.4,92.3,423.3,93.6,423.1,94.8z M413.8,84.3 c-4.5,0-27.9-3.7-37.2-5.1c0-0.5,0-1-0.1-1.5c16.5-3,33.1-6,50.2-9.1c-0.8,5.9-1.5,10.9-2.3,16.8 C420.8,84.9,417.3,84.3,413.8,84.3z M440.6,95.3c-5,0.2-9.9,0.1-14.9,0.1c-0.2-0.6-0.4-1.3-0.7-1.9c1.1-0.9,2.3-2.5,3.4-2.5 c4.1,0,8.2,0.4,12.2,0.9c0.7,0.1,1.3,1,1.9,1.6C442,94.1,441.3,95.3,440.6,95.3z M442.5,36.3c-0.1-4.1-0.3-8.3-0.5-13.7 c3.8,2.9,7,5.4,10.3,8c0.2,0.2,0.3,0.4,0.3,0.7s-0.1,0.6-0.3,0.8c-2.4,2.5-4.2,4.8-6.4,6.6C444.2,40.2,442.6,40,442.5,36.3z M443.8,56.3c0.3-7.1,7-18.2,12.4-19.9c0.8-0.2,2,0.4,2.7,1.1c5.6,6.4,11.2,13,17.4,20.2c-7.8,0.8-14.9,1.5-22,2.3 c-2.3,0.2-4.6,0.6-6.9,0.8C444.9,61.2,443.7,60,443.8,56.3z M526.1,78.7c0.8,0.1,1.5,0.3,2.3,0.4l-1.3,8l-56.6-7 c-0.2-3.8-0.3-9.1-0.2-16.2c5.9-1.1,11.5-1.8,17.4,2.2C499.7,74.4,512.9,76.6,526.1,78.7z M493.6,63.2 c16.4-0.4,32.5,1.2,47.4,11.3C524.8,73.6,508.7,71.9,493.6,63.2z M490.3,88.5c-12.9-0.4-27.9-0.9-29.5-1.2 c-0.3-0.1-0.4-2.5-0.7-4.7C463.2,83.9,482.5,86.9,490.3,88.5z M459.3,76.8c-4.4-3.3-8.4-6.3-12.4-9.3c0.1-0.5,0.2-1,0.2-1.5 c4.6-0.5,9.1-1,14.2-1.5C460.7,68.7,460.1,72.1,459.3,76.8z M462,75.3c-0.1-8.1,1.7-11.1,5.7-11.1c0.3,5.3,0.7,10.4,1,16.2 C466.2,78.4,462.1,80.4,462,75.3z M446.5,95.3c-0.6,0-1.2-1.4-1.7-2.1c0.2-0.4,0.3-0.9,0.5-1.3c3.7,0.3,7.4,0.6,11.1,0.9 c0,0.6,0,1.1,0.1,1.7C453.3,96.5,449.8,95.1,446.5,95.3z M457.8,85.3c-0.2,0.8-1.2,1.9-1.8,1.9c-3.1,0.1-6.2,0.2-9.2-0.2 c-0.8-0.1-1.9-1.9-2-3.1c-0.4-3.6-0.4-7.2-0.6-11.3c4.6,3.1,9.1,6,13.4,9.2C458.1,82.1,458.1,84.2,457.8,85.3z M458.3,95.7 c1.4-3.5,8.6-4,11.9,0C466.2,95.7,462.3,95.7,458.3,95.7z M524.2,95.3c-16.1,0.2-34.6,0.1-50.7,0.1c-0.4,0-0.9-0.4-1.3-0.6 c0-0.3,0-0.6,0-0.9c17.4-0.8,35.6-1.6,53.1-2.4C525.5,91.7,525.3,95.3,524.2,95.3z M536.9,95.2c-3.3,0-6.6,0-10.1,0 c0.7-6.8,4.7-3.7,7.2-4.4C536.5,90,536.9,92.3,536.9,95.2z M592.9,95.6c-7.2,0-14.1,0-21.1,0c-9.7,0-19.4-0.2-29-0.1 c-2.8,0-4.1-1-3.9-4.9c18.2-2.5,36.3-4.9,54.8-7.4C593.5,87.2,593.2,91.1,592.9,95.6z M540.1,87.5l-1-7.3l54-6l0.6,6.2 L540.1,87.5z M595.3,41.1c-0.3,8-0.7,16-0.8,23.9c-0.1,3-0.7,5-3.1,5.2c-14.4,1.1-43.9,3.3-44.3,3c-7.2-4.9-12.5-8.8-19.3-10.9 c-10.4-3.2-39.9-3.3-39.9-3.3c-0.2,0-11.5-8.6-15.9-14.7c-2.4-3.3-6.9-8.8-9-11.1c0,0,4.9-3.2,5-3.3 c17.6-13.5,34.4-14.7,48.6-15.4c25.3-1.2,49.7,0.1,72.9,14.2C595.6,32.4,595.6,32.4,595.3,41.1z M595.6,95 c0.2-4.2,0.4-8,0.6-12.5c5.2-0.7,10.4-1.4,15.9-2.1c0.7,5,1.4,9.6,2.2,14.6C607.9,95,601.9,95,595.6,95z M635.8,95.4 c-5.7,0.1-11.3,0.2-17-0.1c-0.9,0-2.4-1.4-2.6-2.5c-0.8-4-1.2-8-1.9-13.6c9,1.1,17.5,2.2,26.6,3.3c-1,4.6-1.6,8.1-2.5,11.4 C638.1,94.7,636.7,95.3,635.8,95.4z M640.6,95c0.8-3.6,1.6-6.9,2.4-10.6c4.1,1,8.2,1.4,11.8,3.1c1.7,0.8,2.6,4.3,4.5,7.5 C652.5,95,646.9,95,640.6,95z M676.9,95.6c-3.8-0.4-7.7-0.3-11.5,0c-4.1,0.4-5.8-2-6.1-7.2c7.2,0.6,14.3,1.3,21.4,1.9 C681,94.1,680.1,95.9,676.9,95.6z M659,82.7c-1.7-0.3-1.5-5-3.7-8.2c10,4.4,17.7,5.7,26.7,7.9l0,2.6 C675.2,84.4,665.9,84.1,659,82.7z M711.4,95.1c-9.4,0-18.8,0-28.5,0c-0.2-3.9,1-5.1,3.8-5.1c6.9,0.1,13.9,0.1,20.8-0.4 C710.9,89.3,712,90.7,711.4,95.1z M705.4,32c7.6,2.8,10.6,10,12,18c2.7,15.2,10.3,23.2,21.4,26.8c0.6,0.2,1.2,0.6,1.7,0.9 c0.1,0,0,0.3,0.1,0.7c-9.1,4.2-18.4,4.7-28.5,2.2C710,64.9,707.8,48.9,705.4,32z M763.3,95.4c-15.5,0.1-30.9,0-46.4,0.1 c-3.9,0-3-3.3-3.2-6.2c17.5-3.8,34.8,1.9,52.1,0.4C767,94.7,766.7,95.4,763.3,95.4z M767.2,84.4c-7.8,0-15.4,0-23,0 c7.2-7.2,15.3-3.6,23.6-4.3C767.5,82.2,767.3,83.4,767.2,84.4z M760.9,74.9c2.6-4.4,5.2-8.7,7.9-13.1c0.3,0.2,0.6,0.4,0.9,0.6 c-0.5,4.1-1,8.2-1.5,12.5C765.7,74.9,763.3,74.9,760.9,74.9z M768.9,95l0-5.1l14.4,0c0.4,1.5,0.7,3,1.2,5.1 C779.2,95,774.2,95,768.9,95z M848.7,95.5c0,0-41.9-0.6-61.5-0.6c-0.4,0-1.2-5.1-1.2-5.1l63.1,0L848.7,95.5z M797.9,84.3 c-3.1,0-12.3,0.3-12.3,0.3l-1.2-4.4c23.2-1.4,46.2-4.2,69.1-12.4l-4,19.3C849.4,87.1,814.6,84.1,797.9,84.3z M864.4,95.4 c-3.9,0-7.7,0-12.1,0c0.1-1.9,0.3-3.7,0.4-5.9c2.6,0,4.9,0.2,7.2-0.1C863.3,89.1,864.6,91,864.4,95.4z M866.4,95 c0,0-0.6-3.2-0.5-3.6l11.3,0.2l0.7,3.3L866.4,95z M909.1,95.5c-8.9,0.2-19.4,0.1-28.4,0c-0.7,0-1.5-3.9-0.8-3.9 c6.3,0,14.9,0.2,21.2,0.3c3.3,0.1,6.6,0,9.9,0c0.2,0.4,0.4,0.8,0.6,1.2C910.8,93.9,910,95.4,909.1,95.5z M932,94.8 c-2.1-0.3-5,1.9-6.5-3c3.6,0,6.6,0,9.6,0c0.1,0.5,0.3,1,0.4,1.6C934.4,93.8,933.2,94.9,932,94.8z" class="st0"/><path d="M713.1,89.1" class="st1"/><g><path d="M196.3,91.9H45.8c-3.7,0-6.7-3-6.7-6.7v0c0-3.7,3-6.7,6.7-6.7h150.5c3.7,0,6.7,3,6.7,6.7v0 C203,88.9,200,91.9,196.3,91.9z" class="st2"/><g><g><path d="M40.1,35.3c-4.6-0.4-6.9-0.7-11.4-1.5c-0.2-0.8-0.5-1.4-0.8-2.1c-0.3-0.6-0.8-1.1-1.3-1.6 c-0.6-0.5-1.3-0.9-2.1-1.1c-0.9-0.2-1.7-0.2-2.3,0.1c-0.6,0.3-1.1,0.7-1.5,1.2c-0.4,0.6-0.6,1.2-0.8,1.9 c-0.2,0.7-0.3,1.5-0.3,2.3c0,0.9,0.1,1.7,0.3,2.6c0.2,0.9,0.5,1.8,0.9,2.5c0.4,0.8,0.9,1.5,1.4,2.1c0.6,0.6,1.2,1,2,1.3 c0.9,0.3,1.6,0.4,2.2,0.2c0.6-0.2,1.1-0.5,1.5-0.9c0.4-0.5,0.6-1,0.8-1.6c0.2-0.6,0.3-1.2,0.4-1.8c4.1,1.1,6.2,1.6,10.3,2.3 c-0.1,5.3-0.2,8.7-0.3,11.7c-2.3-0.4-3.4-0.6-5.7-1.1c0.2-1.7,0.3-2.9,0.5-5.7c-0.3,0.4-0.7,0.9-1.2,1.5 c-0.5,0.6-1.3,1.3-2.2,1.5c-0.9,0.2-2.1,0.2-3.5,0.1c-1.4-0.1-3-0.5-4.9-1.3c-2-0.8-3.8-1.9-5.4-3.4c-1.6-1.5-3-3.4-4.1-5.4 c-1.1-2-1.9-4.1-2.5-6.3c-0.6-2.2-0.9-4.2-0.9-6.3c0-1.7,0.1-3.3,0.4-5.1c0.3-1.7,0.8-3.3,1.6-4.7c0.8-1.4,1.9-2.6,3.2-3.5 c1.4-0.9,3.1-1.3,5.3-1.2c1.6,0.1,2.9,0.6,4,1.4c1.1,0.9,2,1.9,2.8,3.2c0.7,1.3,1.3,2.7,1.7,4.1c0.4,1.5,0.7,2.8,0.9,4.1 c-0.3-4.5-0.4-6.7-0.6-11.3c5,0.3,7.5,0.5,12.6,0.7C40.8,23.2,40.5,27.4,40.1,35.3z" class="st3"/><path d="M75.2,37.4c0,3.2-0.4,5.9-1.3,8c-0.9,2.2-2,3.9-3.5,5.4c-1.5,1.4-3.1,2.3-5,2.8c-1.9,0.6-3.8,0.8-5.9,0.9 c-2,0-4-0.2-5.9-0.6c-1.9-0.4-3.6-1-5.1-2.5c-1.5-1.5-2.7-3.4-3.6-5.8c-0.9-2.4-1.3-5.3-1.3-8.8c0-3.7,0.2-7,0.7-10 c0.5-3,1.3-5.5,2.5-7.6c1.2-2.1,2.8-3.7,4.9-4.9c2-1.1,4.6-1.7,7.7-1.6c3.2,0,5.9,0.7,8,1.9c2.1,1.2,3.7,3,4.8,5.2 c1.2,2.2,1.9,4.9,2.4,7.9C75,30.8,75.2,34,75.2,37.4z M64.8,41.4c0-2.8-0.5-4.8-1.4-5.8c-1-1-2.4-1.6-4.3-1.6 c-0.9,0-1.7,0.1-2.3,0.3c-0.6,0.3-1.1,0.7-1.5,1.3c-0.4,0.6-0.7,1.4-0.8,2.5c-0.2,1-0.2,2.3-0.2,3.7c0,1.5,0.1,2.7,0.4,3.5 c0.3,0.9,0.6,1.5,1.1,2c0.5,0.5,1,0.8,1.7,0.9c0.7,0.1,1.4,0.2,2.2,0.2c0.8,0,1.5-0.1,2.1-0.3c0.6-0.2,1.2-0.6,1.6-1.1 c0.5-0.5,0.8-1.3,1-2.2C64.7,44,64.8,42.8,64.8,41.4z" class="st3"/><path d="M109.7,44.1c-5.5,1.6-8.2,2.4-13.7,3.8c0-1.6,0.1-2.5,0.1-4.3c-0.9,1.2-1.9,2.3-3,3.3 c-0.9,0.9-2,1.7-3.3,2.4c-1.2,0.8-2.6,1.3-4,1.6c-2.8,0.6-5,0.5-6.4-0.5c-1.4-1-2.1-3.1-2.1-6.4c0-1.5,0.2-2.9,0.7-4.1 c0.5-1.2,1.1-2.2,1.9-3c0.8-0.8,1.8-1.4,2.9-1.8c1.1-0.4,2.4-0.8,3.7-1.1c2.6-0.5,4.6-0.8,6.1-0.8c1.5,0,2.7-0.1,3.5-0.2 c0.1-0.6,0.1-1.3,0.1-1.9c0-0.6-0.1-1.1-0.3-1.5c-0.2-0.4-0.6-0.7-1.2-0.9c-0.6-0.2-1.4-0.2-2.5,0c-1.1,0.2-2.5,0.6-4,1.3 c-1.6,0.6-3.1,1.4-4.6,2c-1.7,0.6-3.5,1.3-5.3,2.1c0.3-6.6,0.4-10.2,0.7-18c1.4-0.4,2.9-0.8,4.6-1.1c1.4-0.3,3-0.7,4.8-1.1 c1.8-0.4,3.7-0.6,5.7-0.7c2-0.1,3.8,0.1,5.4,0.6c1.6,0.5,3,1.3,4.1,2.3c1.1,1,2,2.2,2.6,3.7c0.6,1.5,0.8,3.2,0.8,5.2 c-0.3,6.5-0.4,9.6-0.7,15.5c1.4-0.5,2-0.7,3.4-1.2C109.7,41.3,109.7,42.3,109.7,44.1z M95.8,38c-0.5,0.1-1,0.1-1.5,0.2 c-0.4,0-0.9,0.1-1.4,0.2c-0.5,0.1-1,0.2-1.5,0.3c-0.9,0.2-1.7,0.6-2.3,1.1c-0.6,0.5-0.9,1.2-0.9,2c0,0.8,0.3,1.4,0.8,1.7 c0.5,0.3,1.1,0.4,1.8,0.3c0.3-0.1,0.7-0.3,1.2-0.7c0.5-0.4,1-0.8,1.5-1.4c0.5-0.5,1-1.1,1.4-1.8C95.2,39.3,95.6,38.6,95.8,38z" class="st3"/><path d="M142,20.7c-4.9,1-7.4,1.5-12.3,2.5c-0.3-0.9-0.8-1.6-1.6-2.1c-0.8-0.5-2-0.6-3.6-0.3 c-0.8,0.2-1.4,0.4-1.9,0.8c-0.4,0.4-0.7,0.8-0.7,1.3c0,0.4,0.2,0.8,0.5,1.2c0.4,0.4,1,0.5,1.8,0.6c3.5,0.1,5.2,0.1,8.6,0.1 c2.2,0,4,0.2,5.3,0.7c1.3,0.5,1.9,1.6,1.9,3.4c0,2-1,3.9-2.9,5.7c-1.9,1.8-4.6,3.2-8,4.3c-1.5,0.5-2.9,0.7-4.1,0.8 c-1.2,0.1-2.2,0-3-0.2c-0.8-0.2-1.5-0.5-2.1-0.8c-0.5-0.4-1-0.7-1.3-1.1c0,1.8,0,2.7,0,4.4c-2.5,0.9-3.7,1.4-6.1,2.3 c0.1-3.3,0.1-5.1,0.2-8.6c4.1-1.1,6.2-1.7,10.3-2.9c0.1,0.3,0.3,0.5,0.6,0.8s0.8,0.5,1.3,0.6c0.6,0.1,1.3,0.2,2.1,0.1 c0.8,0,1.8-0.2,2.9-0.6c1.2-0.3,2.1-0.7,2.6-1.2c0.6-0.4,0.8-0.8,0.8-1.1c0-0.3-0.3-0.6-0.9-0.7c-0.6-0.2-1.4-0.2-2.5-0.1 c-4.2,0.5-6.3,0.8-10.6,1.3c-1.5,0.2-2.9,0.2-4.1,0c-1.2-0.2-2.3-0.7-3.2-1.3c-0.9-0.7-1.6-1.6-2.1-2.7 c-0.5-1.1-0.7-2.5-0.7-4.2c0-1.6,0.2-3.2,0.6-4.6c0.4-1.5,1-2.8,1.8-3.9c0.8-1.1,1.8-2,3.1-2.7c1.3-0.7,2.8-1.1,4.5-1.2 c1.9-0.1,3.5,0,4.7,0.4c1.3,0.4,2.3,0.9,3.1,1.4c0.8,0.6,1.4,1.2,1.8,1.9c0.4,0.7,0.7,1.2,0.8,1.8c-0.1-2.3-0.1-3.4-0.2-5.6 c5.3-0.5,8-0.8,13.3-1.2C142.6,13.7,142.4,15.9,142,20.7z" class="st3"/><path d="M164.1,29.2c-0.7,0.3-1.5,0.7-2.6,1c-1.1,0.4-2.4,0.7-4,1c-1.6,0.3-2.8,0.3-3.8,0c-1-0.4-1.7-0.9-2.3-1.5 c-0.5-0.6-0.9-1.4-1.1-2.1c-0.2-0.8-0.3-1.4-0.3-2c0-2.5-0.1-3.7-0.1-5.9c-1.8,0.4-2.7,0.6-4.6,1c-0.1-4.7-0.2-6.9-0.3-10.6 c1.9-0.1,2.8-0.2,4.7-0.3c0-1.1,0-1.7,0.1-2.6c4.6,0,6.9,0,11.5,0c-0.1,0.7-0.1,1.1-0.2,2c1.8,0,2.7,0,4.6,0 c-0.2,2.6-0.3,4.3-0.6,8.3c-1.8,0.1-2.7,0.2-4.5,0.3c-0.1,2.2-0.1,3.4-0.2,6c0,0.7,0.2,1.1,0.8,1.2c0.6,0.1,1.2,0,1.9-0.1 c0.8-0.2,1.8-0.5,2.8-1c0,1.6,0,2.4,0,4.2C165.5,28.4,164.9,28.8,164.1,29.2z" class="st3"/><path d="M179.4,21c0.1,0.5,0.4,1,0.9,1.4c0.4,0.4,1,0.7,1.9,1c0.8,0.3,2,0.4,3.6,0.5c1.6,0,3.2,0,4.7-0.1 c1.6-0.1,3-0.2,4.4-0.2c1.5-0.1,3-0.2,4.5-0.3c-0.4,1.4-0.5,2.1-0.9,3.6c-1.6,0.2-3.2,0.5-4.9,0.9c-1.4,0.3-2.9,0.6-4.5,0.9 c-1.6,0.3-3.2,0.4-4.6,0.4c-0.9,0-2,0-3.1-0.1c-1.2-0.1-2.3-0.3-3.5-0.6c-1.2-0.3-2.3-0.9-3.4-1.3c-1.1-0.4-2.1-1-2.9-1.8 c-0.9-0.8-1.5-1.7-2.1-2.9c-0.5-1.1-0.8-2.5-0.8-3.9c0-4.3,1.4-6.6,4.1-8c2.7-1.3,6.6-1.9,11.7-1.8c2.5,0,5,0.2,7.3,0.6 c2.3,0.4,4.3,1,5.8,2c1.6,1,2.6,2.3,3.1,4.1c0.5,1.8,0.2,3.9-1,6.7C191.6,21,187.5,20.9,179.4,21z M189.9,18.2 c0.2-0.4,0.2-0.9-0.1-1.3c-0.2-0.3-0.7-0.6-1.4-0.9c-0.7-0.3-1.9-0.5-3.6-0.5c-1.7-0.1-2.9,0.1-3.7,0.3 c-0.8,0.3-1.3,0.6-1.5,0.9c-0.3,0.4-0.4,0.9-0.2,1.4C183.5,18.1,185.7,18.1,189.9,18.2z" class="st3"/><path d="M232.7,26c-2.6-2-4.9-3.2-6.9-3.9c-0.9-0.3-1.7-0.5-2.6-0.6c-0.8-0.1-1.6-0.1-2.2,0.1 c-0.6,0.2-1.2,0.6-1.6,1.1c-0.4,0.5-0.6,1.3-0.7,2.4c0,0.7,0,1.4-0.1,2c0,0.5-0.1,1-0.1,1.5c0,0.5,0,0.8,0,0.9 c0,0.1,0.3,0.3,0.8,0.5c0.5,0.2,1.1,0.4,1.7,0.6c0.7,0.2,1.5,0.5,2.5,0.9c-0.1,1.6-0.2,2.2-0.3,4.3 c-7.8-3.5-11.8-4.6-19.6-6.1c0.1-2.5,0.1-2.8,0.2-4.3c1.9,0.3,2.8,0.5,4.7,1c0-3.1,0.1-4.5,0.1-7.3c-2-0.3-3-0.4-5-0.6 c0.1-3.7,0.1-5.3,0.2-8.4c5.4,0.3,8.1,0.4,13.5,0.8c0.4,3.3,0.6,5,0.9,8.6c0.5-2,1.4-3.7,2.7-5c0.5-0.6,1.2-1.1,1.9-1.6 s1.6-0.9,2.6-1.1c1-0.3,2.1-0.4,3.4-0.3c1.3,0.1,2.7,0.4,4.3,1.2C232.9,17.9,232.8,20.6,232.7,26z" class="st3"/><path d="M40.1,62.5c-4.6-0.4-6.9-0.7-11.4-1.3c-0.2-0.4-0.5-0.8-0.8-1.2c-0.3-0.3-0.8-0.7-1.3-1.1 c-0.6-0.4-1.3-0.6-2.1-0.9c-0.9-0.2-1.7-0.3-2.3-0.1c-0.6,0.1-1.1,0.4-1.5,0.8C20.3,59,20,59.5,19.8,60 c-0.2,0.5-0.3,1.1-0.3,1.6c0,0.6,0.1,1.2,0.3,1.9c0.2,0.6,0.5,1.2,0.9,1.7c0.4,0.5,0.9,0.9,1.4,1.2c0.6,0.3,1.2,0.5,2,0.6 c0.9,0.1,1.6,0,2.2-0.1c0.6-0.2,1.1-0.4,1.5-0.7c0.4-0.3,0.6-0.6,0.8-1c0.2-0.4,0.3-0.7,0.4-1c4.1,0.6,6.2,0.8,10.3,1.2 c-0.1,2.4-0.2,3.6-0.3,5.7c-2.3,0-3.4,0-5.7,0.1c0.2-1.3,0.3-2,0.5-3.4c-0.3,0.2-0.7,0.5-1.2,0.8c-0.5,0.3-1.3,0.7-2.2,1 c-0.9,0.3-2.1,0.6-3.5,0.9c-1.4,0.3-3,0.4-4.9,0.4c-2,0-3.8-0.3-5.4-1c-1.6-0.7-3-1.8-4.1-3.1c-1.1-1.4-1.9-3.1-2.5-5 c-0.6-1.9-0.9-4-0.9-6.1c0-1.7,0.1-3.4,0.4-5c0.3-1.7,0.8-3,1.6-4.1c0.8-1.1,1.9-1.7,3.2-1.9c1.4-0.2,3.1,0.2,5.3,1.1 c1.6,0.7,2.9,1.5,4,2.4c1.1,0.9,2,1.8,2.8,2.8c0.7,1,1.3,1.9,1.7,2.9c0.4,0.9,0.7,1.8,0.9,2.5c-0.3-2.6-0.4-4-0.6-6.7 c5,1.5,7.5,2.1,12.6,2.9C40.8,56.8,40.5,58.8,40.1,62.5z" class="st4"/><path d="M72.2,63.1c-2.6-0.5-4.9-0.9-6.9-0.9c-0.9,0-1.7,0-2.6,0.1c-0.8,0.1-1.6,0.3-2.2,0.5 c-0.6,0.3-1.2,0.6-1.6,1.1c-0.4,0.5-0.6,1.1-0.7,1.8c0,0.5,0,1-0.1,1.3c0,0.3-0.1,0.6-0.1,0.9c0,0.3,0,0.4,0,0.5 c0,0.1,0.3,0.1,0.8,0.1c0.5,0,1.1,0,1.7,0c0.7,0,1.5,0,2.5,0c-0.1,0.9-0.2,1.3-0.3,2c-7.8,0-11.8,0-19.6-0.1 c0.1-1,0.1-1.5,0.2-2.6c1.9,0.1,2.8,0.1,4.7,0.2c0-2.1,0.1-3.2,0.1-5.7c-2-0.1-3-0.1-5-0.3c0.1-3.4,0.1-5.3,0.2-9.4 c5.4,0.8,8.1,0.9,13.5,1c0.4,3.5,0.6,5,0.9,7.9c0.5-1.7,1.4-3.3,2.7-4.8c0.5-0.6,1.2-1.2,1.9-1.7c0.7-0.6,1.6-1,2.6-1.4 c1-0.4,2.1-0.6,3.4-0.8c1.3-0.1,2.7-0.1,4.3,0.2C72.4,57.7,72.3,59.7,72.2,63.1z" class="st4"/><path d="M106.5,70c-5.5,0.1-8.2,0.2-13.7,0.3c0-0.9,0.1-1.4,0.1-2.4c-0.9,0.6-1.9,1.1-3,1.5 c-0.9,0.4-2,0.7-3.3,0.9c-1.2,0.3-2.6,0.4-4,0.4c-2.8,0-5-0.2-6.4-0.7c-1.4-0.5-2.1-1.3-2.1-2.8c0-0.7,0.2-1.3,0.7-1.8 c0.5-0.5,1.1-1,1.9-1.4c0.8-0.4,1.8-0.7,2.9-0.9c1.1-0.2,2.4-0.4,3.7-0.5c2.6-0.2,4.6-0.7,6.1-0.8c1.5-0.1,2.7-0.2,3.5-0.3 c0.1-0.4,0.1-0.8,0.1-1.2c0-0.4-0.1-0.7-0.3-1c-0.2-0.3-0.6-0.4-1.2-0.5c-0.6-0.1-1.4,0-2.5,0.2c-1.1,0.2-2.5,0.6-4,1.1 c-1.6,0.5-3.1,0.8-4.6,1.1c-1.7,0.4-3.5,0.8-5.3,1.2c0.3-3.3,0.4-5.2,0.7-9.7c1.4-0.4,2.9-0.8,4.6-1.3c1.4-0.4,3-0.8,4.8-1.4 c1.8-0.5,3.7-1.1,5.7-1.5c2-0.5,3.8-0.7,5.4-0.7c1.6,0,3,0.3,4.1,0.9c1.1,0.5,2,1.4,2.6,2.4c0.6,1.1,0.8,2.4,0.8,3.9 c-0.3,5-0.4,7.3-0.7,11.5c1.4-0.2,2-0.3,3.4-0.5C106.6,67.8,106.5,68.6,106.5,70z M92.6,64.6c-0.5,0-1,0.1-1.5,0.1 c-0.5,0-0.9,0.1-1.4,0.1c-0.5,0-1,0.1-1.5,0.2c-0.9,0.1-1.7,0.3-2.3,0.6c-0.6,0.3-0.9,0.6-0.9,1c0,0.4,0.3,0.7,0.8,0.8 c0.5,0.2,1.1,0.2,1.8,0.2c0.3,0,0.7-0.1,1.2-0.3c0.5-0.2,1-0.4,1.5-0.7c0.5-0.3,1-0.6,1.4-1C92,65.3,92.4,65,92.6,64.6z" class="st4"/><path d="M140.9,49.3c-7.5,6.6-11.3,9.9-18.8,15c4.7-0.4,7-0.6,11.6-0.9c-0.1-2.2-0.1-3.3-0.2-5.4 c2.4-0.4,3.6-0.6,6-0.9c-0.2,4.8-0.3,7.2-0.5,12.3c-10.9,0.3-16.3,0.4-27.1,0.6c-0.3-1.9-0.4-2.9-0.6-4.8 c7.4-4.6,11-7.6,18.4-14.1c-5.7,1.3-8.5,2-14.2,3.4c-0.1,1.5-0.1,2.3-0.2,3.8c-2.4,0.6-3.6,0.9-5.9,1.4 c-0.4-5.8-0.5-8.8-0.9-15.1c10.9-3.1,21.8-6.4,32.8-9.4C141.1,40.6,141,43.4,140.9,49.3z" class="st4"/><path d="M161.9,68.7c-7.1-0.1-10.6,0-17.7,0.1c-0.1-2.5-0.1-3.8-0.2-6.2c1.6-0.1,2.4-0.2,3.9-0.4 c-0.1-5.5-0.1-8.1-0.2-13.1c-1.6,0.4-2.4,0.6-4,1c-0.1-6.6-0.2-9.6-0.4-15.3c6.2-1.7,9.2-2.7,15.4-3.8 c-0.1,9.9-0.2,16-0.4,30.1c1.6,0,2.4,0.1,3.9,0.2C162.1,64.2,162,65.7,161.9,68.7z M158.9,27.5c-4.7,1.1-7.1,1.8-11.8,3.1 c-0.2-2.6-0.3-3.9-0.4-6.2c5-1.2,7.6-2,12.6-2.6C159.1,23.9,159,25.1,158.9,27.5z" class="st4"/><path d="M173.6,55.8c0.1,1.1,0.4,2.1,0.9,3c0.4,0.8,1,1.4,1.9,2.1c0.8,0.6,2,1,3.6,1c1.6,0,3.2-0.1,4.7-0.5 c1.6-0.3,3-0.7,4.4-1.1c1.5-0.5,3-1,4.5-1.6c-0.4,3-0.5,4.5-0.9,7.6c-1.6,0.8-3.3,1.5-4.9,2.1c-1.4,0.5-2.9,1-4.5,1.5 c-1.6,0.4-3.2,0.6-4.6,0.6c-0.9,0-2-0.1-3.1-0.3c-1.2-0.2-2.3-0.5-3.5-1c-1.2-0.5-2.3-1.3-3.4-2.2c-1.1-1-2.1-2.2-2.9-3.8 c-0.9-1.6-1.5-3.5-2.1-5.6c-0.5-2.2-0.8-4.7-0.8-7.5c0-8.3,1.4-13.6,4.1-17.1c2.7-3.5,6.6-5.6,11.7-5.8c2.5-0.1,5,0.2,7.3,1.1 c2.3,0.9,4.3,2.4,5.8,4.7c1.6,2.2,2.6,5.2,3.1,9c0.5,3.8,0.2,8.5-1,14.4C185.7,55.8,181.7,55.7,173.6,55.8z M184,49.4 c0.2-1,0.2-1.9-0.1-2.8c-0.2-0.7-0.7-1.3-1.4-1.9c-0.7-0.6-1.9-0.9-3.6-0.9c-1.7,0-2.9,0.3-3.7,1c-0.8,0.6-1.3,1.3-1.5,2.1 c-0.3,0.9-0.4,1.9-0.2,3C177.7,49.6,179.8,49.5,184,49.4z" class="st4"/><path d="M230.1,53.5c-4.9-1.7-7.4-2.5-12.3-3.8c-0.3-1.3-0.8-2.5-1.6-3.6c-0.8-1.1-2-1.9-3.6-2.2 c-0.8-0.2-1.4-0.1-1.9,0.2c-0.4,0.3-0.7,0.8-0.7,1.3c0,0.6,0.2,1.2,0.5,1.8c0.4,0.6,1,1.2,1.8,1.6c3.5,1.9,5.2,2.9,8.6,4.8 c2.2,1.2,4,2.5,5.3,3.8c1.3,1.3,1.9,3,1.9,5.1c0,2.3-1,4-2.9,5.4c-1.9,1.4-4.6,2.1-8,2.1c-1.5,0-2.9-0.2-4.1-0.6 c-1.2-0.4-2.2-0.9-3-1.6c-0.8-0.6-1.5-1.3-2.1-2.1c-0.5-0.7-1-1.5-1.3-2.2c0,2.5,0,3.7,0,6.3c-2.5,0.2-3.7,0.3-6.1,0.6 c0.1-5.1,0.1-7.5,0.2-12.3c4.1,0.4,6.2,0.6,10.3,1.1c0.1,0.4,0.3,0.8,0.6,1.3c0.3,0.5,0.8,1,1.3,1.4c0.6,0.5,1.3,0.9,2.1,1.2 c0.8,0.3,1.8,0.6,2.9,0.7c1.2,0.1,2.1,0,2.6-0.2c0.6-0.3,0.8-0.6,0.8-1c0-0.4-0.3-0.9-0.9-1.4c-0.6-0.5-1.4-0.9-2.5-1.3 c-4.2-1.4-6.3-2.1-10.6-3.5c-1.5-0.5-2.9-1.1-4.1-2c-1.2-0.9-2.3-2-3.2-3.2c-0.9-1.2-1.6-2.7-2.1-4.3 c-0.5-1.6-0.7-3.4-0.7-5.4c0-1.9,0.2-3.7,0.6-5.3c0.4-1.6,1-2.9,1.8-3.9c0.8-1,1.8-1.8,3.1-2.2c1.3-0.4,2.8-0.5,4.5,0 c1.9,0.4,3.5,1.2,4.7,2.2c1.3,1,2.3,2,3.1,3.2c0.8,1.1,1.4,2.2,1.8,3.3c0.4,1.1,0.7,2,0.8,2.8c-0.1-3.1-0.1-4.6-0.2-7.6 c5.3,1.8,8,2.9,13.3,5.7C230.8,44.8,230.6,47.7,230.1,53.5z" class="st4"/></g></g><text class="st5 st6 st7" transform="matrix(1 0 0 1 46.505 88.8009)">Roller Coaster Enthuiasts Club</text></g></g></g></switch></svg>